<?xml version="1.0" encoding="utf-8"?>
<!-- Generator: Adobe Illustrator 24.3.0, SVG Export Plug-In . SVG Version: 6.00 Build 0)  -->
<svg version="1.1" id="Layer_1" xmlns="http://www.w3.org/2000/svg" xmlns:xlink="http://www.w3.org/1999/xlink" x="0px" y="0px"
	 viewBox="0 0 120 120" enable-background="new 0 0 120 120" xml:space="preserve">
<g>
	<circle fill="#E8EBEC" cx="82.765" cy="67.286" r="14"/>
	<circle fill="#E8EBEC" cx="44.799" cy="34.272" r="12"/>
	<circle fill="#E8EBEC" cx="42.362" cy="76.808" r="20"/>
	<g>
		<circle fill="#FFFFFF" cx="56.281" cy="61.27" r="32"/>
		<path fill="#BDC3D8" d="M76.761,36.685c2.245,4.375,3.519,9.329,3.519,14.584c0,17.673-14.327,32-32,32
			c-7.791,0-14.93-2.788-20.48-7.416C33.105,86.191,43.862,93.27,56.281,93.27c17.673,0,32-14.327,32-32
			C88.281,51.388,83.799,42.555,76.761,36.685z"/>
		<path fill="#21365F" d="M56.281,94.02c-18.059,0-32.75-14.691-32.75-32.75s14.691-32.75,32.75-32.75s32.75,14.691,32.75,32.75
			S74.339,94.02,56.281,94.02z M56.281,30.02c-17.231,0-31.25,14.019-31.25,31.25c0,17.232,14.019,31.25,31.25,31.25
			c17.232,0,31.25-14.019,31.25-31.25C87.531,44.039,73.512,30.02,56.281,30.02z"/>
		<path fill="#BDC3D8" d="M56.281,68.964l18,10.001V34.812c-5.129-3.496-11.325-5.542-18-5.542s-12.871,2.046-18,5.542v44.152
			L56.281,68.964z"/>
		<path fill="#FFFFFF" d="M57.252,64.966l10.161,5.646c0.666,0.37,1.486-0.111,1.486-0.874V31.858
			c-3.872-1.664-8.136-2.588-12.618-2.588c-6.675,0-12.871,2.046-18,5.542v39.615l17.029-9.462
			C55.914,64.631,56.648,64.631,57.252,64.966z"/>
		<path fill="#21365F" d="M74.281,79.715c-0.126,0-0.251-0.031-0.364-0.095l-17.636-9.798L38.645,79.62
			c-0.232,0.13-0.516,0.127-0.745-0.009c-0.229-0.135-0.37-0.381-0.37-0.646V34.812c0-0.248,0.123-0.48,0.328-0.62
			c5.444-3.71,11.815-5.672,18.422-5.672s12.978,1.962,18.422,5.672c0.205,0.14,0.328,0.372,0.328,0.62v44.152
			c0,0.266-0.141,0.512-0.37,0.646C74.544,79.68,74.412,79.715,74.281,79.715z M56.281,68.214c0.125,0,0.251,0.031,0.364,0.095
			l16.886,9.382V35.212c-5.121-3.397-11.077-5.191-17.25-5.191s-12.129,1.794-17.25,5.191V77.69l16.886-9.382
			C56.03,68.245,56.155,68.214,56.281,68.214z"/>
		<polygon fill="#FFFFFF" points="56.281,39.767 59.692,46.679 67.321,47.788 61.801,53.169 63.104,60.767 56.281,57.179 
			49.458,60.767 50.761,53.169 45.24,47.788 52.869,46.679 		"/>
		<path fill="#BDC3D8" d="M61.801,53.169l5.521-5.381l-4.882-0.709l-4.093,3.99c-0.471,0.459-0.687,1.121-0.575,1.771l0.966,5.631
			l4.368,2.297L61.801,53.169z"/>
		<path fill="#21365F" d="M63.104,61.517c-0.12,0-0.239-0.028-0.349-0.086l-6.474-3.404l-6.474,3.404
			c-0.253,0.133-0.558,0.112-0.79-0.058c-0.231-0.167-0.347-0.452-0.298-0.733l1.237-7.209l-5.238-5.105
			c-0.205-0.199-0.278-0.497-0.19-0.769c0.088-0.272,0.323-0.47,0.605-0.511l7.239-1.053l3.237-6.559
			c0.252-0.512,1.093-0.512,1.345,0l3.237,6.559l7.239,1.053c0.283,0.041,0.517,0.239,0.605,0.511
			c0.088,0.271,0.015,0.569-0.19,0.769l-5.238,5.105l1.237,7.209c0.048,0.281-0.067,0.566-0.298,0.733
			C63.414,61.469,63.259,61.517,63.104,61.517z M56.281,56.429c0.12,0,0.24,0.028,0.349,0.086l5.478,2.881l-1.046-6.1
			c-0.042-0.243,0.039-0.492,0.216-0.664l4.432-4.32l-6.125-0.891c-0.244-0.035-0.456-0.189-0.564-0.41l-2.739-5.55l-2.739,5.55
			c-0.109,0.222-0.32,0.375-0.564,0.41l-6.125,0.891l4.432,4.32c0.177,0.172,0.257,0.421,0.216,0.664l-1.046,6.1l5.478-2.881
			C56.041,56.458,56.161,56.429,56.281,56.429z"/>
		<path fill="#21365F" d="M84.899,65.728h-1.384c-0.414,0-0.75-0.336-0.75-0.75c0-0.414,0.336-0.75,0.75-0.75h1.384
			c0.414,0,0.75,0.336,0.75,0.75C85.649,65.392,85.313,65.728,84.899,65.728z"/>
		<path fill="#21365F" d="M80.284,65.728h-1.385c-0.414,0-0.75-0.336-0.75-0.75c0-0.414,0.336-0.75,0.75-0.75h1.385
			c0.414,0,0.75,0.336,0.75,0.75C81.034,65.392,80.698,65.728,80.284,65.728z"/>
		<path fill="#21365F" d="M81.899,68.728c-0.414,0-0.75-0.336-0.75-0.75v-1.385c0-0.414,0.336-0.75,0.75-0.75
			c0.414,0,0.75,0.336,0.75,0.75v1.385C82.649,68.392,82.313,68.728,81.899,68.728z"/>
		<path fill="#21365F" d="M81.899,64.112c-0.414,0-0.75-0.336-0.75-0.75v-1.384c0-0.414,0.336-0.75,0.75-0.75
			c0.414,0,0.75,0.336,0.75,0.75v1.384C82.649,63.776,82.313,64.112,81.899,64.112z"/>
		<path fill="#21365F" d="M64.332,80.913h-1.385c-0.414,0-0.75-0.336-0.75-0.75c0-0.414,0.336-0.75,0.75-0.75h1.385
			c0.414,0,0.75,0.336,0.75,0.75C65.082,80.577,64.746,80.913,64.332,80.913z"/>
		<path fill="#21365F" d="M59.716,80.913h-1.384c-0.414,0-0.75-0.336-0.75-0.75c0-0.414,0.336-0.75,0.75-0.75h1.384
			c0.414,0,0.75,0.336,0.75,0.75C60.466,80.577,60.13,80.913,59.716,80.913z"/>
		<path fill="#21365F" d="M61.332,83.913c-0.414,0-0.75-0.336-0.75-0.75v-1.385c0-0.414,0.336-0.75,0.75-0.75
			c0.414,0,0.75,0.336,0.75,0.75v1.385C62.082,83.577,61.746,83.913,61.332,83.913z"/>
		<path fill="#21365F" d="M61.332,79.297c-0.414,0-0.75-0.336-0.75-0.75v-1.384c0-0.414,0.336-0.75,0.75-0.75
			c0.414,0,0.75,0.336,0.75,0.75v1.384C62.082,78.961,61.746,79.297,61.332,79.297z"/>
		<path fill="#21365F" d="M51.108,86.22h-1.385c-0.414,0-0.75-0.336-0.75-0.75s0.336-0.75,0.75-0.75h1.385
			c0.414,0,0.75,0.336,0.75,0.75S51.522,86.22,51.108,86.22z"/>
		<path fill="#21365F" d="M46.492,86.22h-1.384c-0.414,0-0.75-0.336-0.75-0.75s0.336-0.75,0.75-0.75h1.384
			c0.414,0,0.75,0.336,0.75,0.75S46.906,86.22,46.492,86.22z"/>
		<path fill="#21365F" d="M48.108,89.22c-0.414,0-0.75-0.336-0.75-0.75v-1.385c0-0.414,0.336-0.75,0.75-0.75
			c0.414,0,0.75,0.336,0.75,0.75v1.385C48.858,88.885,48.522,89.22,48.108,89.22z"/>
		<path fill="#21365F" d="M48.108,84.604c-0.414,0-0.75-0.336-0.75-0.75V82.47c0-0.414,0.336-0.75,0.75-0.75
			c0.414,0,0.75,0.336,0.75,0.75v1.384C48.858,84.268,48.522,84.604,48.108,84.604z"/>
		<path fill="#21365F" d="M32.095,50.005c-0.112,0-0.226-0.025-0.333-0.078c-0.371-0.185-0.522-0.635-0.337-1.006
			c0.378-0.762,0.798-1.515,1.246-2.238c0.219-0.353,0.68-0.462,1.033-0.243c0.352,0.218,0.461,0.681,0.243,1.032
			c-0.424,0.686-0.82,1.397-1.179,2.117C32.636,49.852,32.37,50.005,32.095,50.005z"/>
		<path fill="#21365F" d="M31.291,72.26c-0.295,0-0.575-0.175-0.694-0.465c-1.371-3.341-2.065-6.882-2.065-10.524
			c0-2.869,0.436-5.697,1.296-8.407c0.126-0.395,0.546-0.614,0.942-0.488c0.395,0.125,0.613,0.547,0.488,0.941
			c-0.814,2.564-1.226,5.239-1.226,7.954c0,3.446,0.657,6.796,1.953,9.954c0.157,0.384-0.026,0.822-0.409,0.979
			C31.482,72.242,31.385,72.26,31.291,72.26z"/>
	</g>
</g>
</svg>
