<?xml version="1.0" encoding="utf-8"?>
<!-- Generator: Adobe Illustrator 24.3.0, SVG Export Plug-In . SVG Version: 6.00 Build 0)  -->
<svg version="1.1" id="Layer_1" xmlns="http://www.w3.org/2000/svg" xmlns:xlink="http://www.w3.org/1999/xlink" x="0px" y="0px"
	 viewBox="0 0 120 120" enable-background="new 0 0 120 120" xml:space="preserve">
<g>
	<circle fill="#E8EBEC" cx="37.091" cy="85.541" r="14"/>
	<circle fill="#E8EBEC" cx="40.69" cy="31.54" r="12"/>
	<circle fill="#E8EBEC" cx="76.439" cy="53.292" r="20"/>
	<g>
		<path fill="#FFFFFF" d="M55.438,57.378c-2.298,0-4.162,1.863-4.162,4.162H59.6C59.6,59.241,57.736,57.378,55.438,57.378z"/>
		<path fill="#BDC3D8" d="M55.438,57.378c-0.53,0-1.034,0.109-1.5,0.29c1.555,0.603,2.662,2.104,2.662,3.872h3
			C59.6,59.241,57.736,57.378,55.438,57.378z"/>
		<path fill="#21365F" d="M59.6,62.29h-8.324c-0.414,0-0.75-0.336-0.75-0.75c0-2.709,2.204-4.912,4.912-4.912
			s4.912,2.203,4.912,4.912C60.35,61.954,60.014,62.29,59.6,62.29z M52.109,60.79h6.658c-0.343-1.521-1.705-2.662-3.329-2.662
			S52.451,59.268,52.109,60.79z"/>
		<path fill="#21365F" d="M63.286,54.23c-0.192,0-0.384-0.073-0.53-0.22c-4.035-4.035-10.601-4.035-14.636,0
			c-0.293,0.293-0.768,0.293-1.061,0c-0.293-0.293-0.293-0.768,0-1.061c4.62-4.619,12.137-4.619,16.757,0
			c0.293,0.293,0.293,0.768,0,1.061C63.67,54.157,63.478,54.23,63.286,54.23z"/>
		<path fill="#21365F" d="M68.191,49.325c-0.192,0-0.384-0.073-0.53-0.22c-6.741-6.739-17.706-6.738-24.446,0
			c-0.293,0.293-0.768,0.293-1.061,0c-0.293-0.293-0.293-0.768,0-1.061c7.324-7.324,19.243-7.324,26.567,0
			c0.293,0.293,0.293,0.768,0,1.061C68.575,49.252,68.383,49.325,68.191,49.325z"/>
		<path fill="#21365F" d="M73.096,44.421c-0.192,0-0.384-0.073-0.53-0.22c-4.575-4.575-10.658-7.095-17.128-7.095
			s-12.553,2.52-17.128,7.095c-0.293,0.293-0.768,0.293-1.061,0c-0.293-0.293-0.293-0.768,0-1.06
			c4.858-4.858,11.318-7.534,18.188-7.534s13.33,2.676,18.188,7.534c0.293,0.293,0.293,0.768,0,1.06
			C73.48,44.347,73.288,44.421,73.096,44.421z"/>
		<path fill="#21365F" d="M78.065,39.663c-0.192,0-0.384-0.073-0.53-0.22c-5.902-5.902-13.75-9.153-22.097-9.153
			s-16.195,3.251-22.097,9.153c-0.293,0.293-0.768,0.293-1.061,0c-0.293-0.293-0.293-0.768,0-1.061
			c6.186-6.186,14.41-9.593,23.158-9.593c8.748,0,16.972,3.407,23.158,9.593c0.293,0.293,0.293,0.767,0,1.061
			C78.449,39.59,78.257,39.663,78.065,39.663z"/>
		<path fill="#21365F" d="M74.695,82.295h-7.741c-0.414,0-0.75-0.336-0.75-0.75V65.544c0-0.414,0.336-0.75,0.75-0.75h20.483
			c0.225,0,0.438,0.101,0.581,0.275c0.142,0.174,0.199,0.402,0.155,0.623c-1.206,5.984-4.522,11.379-9.338,15.191
			C77.685,81.794,76.215,82.295,74.695,82.295z M67.704,80.795h6.991c1.184,0,2.323-0.386,3.209-1.087
			c4.295-3.4,7.325-8.137,8.6-13.414H67.704V80.795z"/>
		<path fill="#FFFFFF" d="M80.622,61.54c0,13.909-11.275,25.184-25.184,25.184S30.254,75.449,30.254,61.54H80.622z"/>
		<path fill="#BDC3D8" d="M72.301,61.54c-1.917,12.007-12.317,21.184-24.865,21.184c-2.461,0-4.837-0.359-7.086-1.018
			c4.206,3.151,9.428,5.018,15.087,5.018c13.909,0,25.184-11.274,25.184-25.184H72.301z"/>
		<path fill="#21365F" d="M55.438,87.474c-14.3,0-25.934-11.634-25.934-25.935c0-0.414,0.336-0.75,0.75-0.75h50.368
			c0.414,0,0.75,0.336,0.75,0.75C81.372,75.841,69.738,87.474,55.438,87.474z M31.015,62.29
			c0.398,13.128,11.201,23.685,24.423,23.685S79.463,75.418,79.86,62.29H31.015z"/>
		<path fill="#BDC3D8" d="M70.938,93.54h-31c-3.59,0-6.5-2.91-6.5-6.5v-0.316h44v0.316C77.438,90.63,74.527,93.54,70.938,93.54z"/>
		<path fill="#FFFFFF" d="M63.937,93.54H39.939c-3.59,0-6.5-2.91-6.5-6.5v-0.316h36.999v0.316
			C70.437,90.63,67.527,93.54,63.937,93.54z"/>
		<path fill="#21365F" d="M70.938,94.29h-31c-3.998,0-7.25-3.252-7.25-7.25v-0.315c0-0.414,0.336-0.75,0.75-0.75h44
			c0.414,0,0.75,0.336,0.75,0.75v0.315C78.188,91.038,74.935,94.29,70.938,94.29z M34.204,87.474
			c0.223,2.969,2.709,5.315,5.734,5.315h31c3.024,0,5.511-2.347,5.734-5.315H34.204z"/>
		<path fill="#21365F" d="M80.936,87.474H29.94c-0.414,0-0.75-0.336-0.75-0.75c0-0.414,0.336-0.75,0.75-0.75h50.996
			c0.414,0,0.75,0.336,0.75,0.75C81.686,87.138,81.35,87.474,80.936,87.474z"/>
		<path fill="#21365F" d="M24.822,33.29h-1.385c-0.414,0-0.75-0.336-0.75-0.75s0.336-0.75,0.75-0.75h1.385
			c0.414,0,0.75,0.336,0.75,0.75S25.236,33.29,24.822,33.29z"/>
		<path fill="#21365F" d="M29.438,33.29h-1.384c-0.414,0-0.75-0.336-0.75-0.75s0.336-0.75,0.75-0.75h1.384
			c0.414,0,0.75,0.336,0.75,0.75S29.852,33.29,29.438,33.29z"/>
		<path fill="#21365F" d="M26.438,36.29c-0.414,0-0.75-0.336-0.75-0.75v-1.385c0-0.414,0.336-0.75,0.75-0.75
			c0.414,0,0.75,0.336,0.75,0.75v1.385C27.188,35.954,26.852,36.29,26.438,36.29z"/>
		<path fill="#21365F" d="M26.438,31.675c-0.414,0-0.75-0.336-0.75-0.75V29.54c0-0.414,0.336-0.75,0.75-0.75
			c0.414,0,0.75,0.336,0.75,0.75v1.385C27.188,31.339,26.852,31.675,26.438,31.675z"/>
		<path fill="#21365F" d="M31.823,50.292h-1.384c-0.414,0-0.75-0.336-0.75-0.75c0-0.414,0.336-0.75,0.75-0.75h1.384
			c0.414,0,0.75,0.336,0.75,0.75C32.573,49.956,32.237,50.292,31.823,50.292z"/>
		<path fill="#21365F" d="M36.439,50.292h-1.385c-0.414,0-0.75-0.336-0.75-0.75c0-0.414,0.336-0.75,0.75-0.75h1.385
			c0.414,0,0.75,0.336,0.75,0.75C37.189,49.956,36.853,50.292,36.439,50.292z"/>
		<path fill="#21365F" d="M33.439,53.292c-0.414,0-0.75-0.336-0.75-0.75v-1.385c0-0.414,0.336-0.75,0.75-0.75
			c0.414,0,0.75,0.336,0.75,0.75v1.385C34.189,52.956,33.853,53.292,33.439,53.292z"/>
		<path fill="#21365F" d="M33.439,48.677c-0.414,0-0.75-0.336-0.75-0.75v-1.385c0-0.414,0.336-0.75,0.75-0.75
			c0.414,0,0.75,0.336,0.75,0.75v1.385C34.189,48.341,33.853,48.677,33.439,48.677z"/>
		<path fill="#21365F" d="M82.822,44.291h-1.385c-0.414,0-0.75-0.336-0.75-0.75c0-0.414,0.336-0.75,0.75-0.75h1.385
			c0.414,0,0.75,0.336,0.75,0.75C83.572,43.955,83.236,44.291,82.822,44.291z"/>
		<path fill="#21365F" d="M87.438,44.291h-1.384c-0.414,0-0.75-0.336-0.75-0.75c0-0.414,0.336-0.75,0.75-0.75h1.384
			c0.414,0,0.75,0.336,0.75,0.75C88.188,43.955,87.852,44.291,87.438,44.291z"/>
		<path fill="#21365F" d="M84.438,47.291c-0.414,0-0.75-0.336-0.75-0.75v-1.384c0-0.414,0.336-0.75,0.75-0.75s0.75,0.336,0.75,0.75
			v1.384C85.188,46.955,84.852,47.291,84.438,47.291z"/>
		<path fill="#21365F" d="M84.438,42.676c-0.414,0-0.75-0.336-0.75-0.75v-1.385c0-0.414,0.336-0.75,0.75-0.75s0.75,0.336,0.75,0.75
			v1.385C85.188,42.34,84.852,42.676,84.438,42.676z"/>
		<path fill="#21365F" d="M74.821,55.292h-1.384c-0.414,0-0.75-0.336-0.75-0.75c0-0.414,0.336-0.75,0.75-0.75h1.384
			c0.414,0,0.75,0.336,0.75,0.75C75.571,54.956,75.235,55.292,74.821,55.292z"/>
		<path fill="#21365F" d="M79.437,55.292h-1.385c-0.414,0-0.75-0.336-0.75-0.75c0-0.414,0.336-0.75,0.75-0.75h1.385
			c0.414,0,0.75,0.336,0.75,0.75C80.187,54.956,79.851,55.292,79.437,55.292z"/>
		<path fill="#21365F" d="M76.437,58.292c-0.414,0-0.75-0.336-0.75-0.75v-1.384c0-0.414,0.336-0.75,0.75-0.75
			c0.414,0,0.75,0.336,0.75,0.75v1.384C77.187,57.956,76.851,58.292,76.437,58.292z"/>
		<path fill="#21365F" d="M76.437,53.677c-0.414,0-0.75-0.336-0.75-0.75v-1.385c0-0.414,0.336-0.75,0.75-0.75
			c0.414,0,0.75,0.336,0.75,0.75v1.385C77.187,53.341,76.851,53.677,76.437,53.677z"/>
		<path fill="#21365F" d="M47.926,81.37c-0.092,0-0.185-0.017-0.275-0.052c-4.042-1.593-7.462-4.351-9.888-7.976
			c-0.23-0.344-0.138-0.81,0.207-1.04c0.343-0.231,0.809-0.139,1.041,0.206c2.256,3.371,5.434,5.935,9.191,7.414
			c0.385,0.152,0.575,0.588,0.423,0.973C48.508,81.19,48.225,81.37,47.926,81.37z"/>
		<path fill="#21365F" d="M36.437,69.999c-0.296,0-0.577-0.177-0.695-0.468c-0.273-0.672-0.514-1.366-0.716-2.064
			c-0.115-0.398,0.114-0.814,0.511-0.93c0.396-0.112,0.813,0.113,0.929,0.512c0.188,0.647,0.412,1.292,0.666,1.917
			c0.156,0.384-0.029,0.821-0.413,0.976C36.627,69.981,36.531,69.999,36.437,69.999z"/>
	</g>
</g>
</svg>
