<?xml version="1.0" encoding="utf-8"?>
<!-- Generator: Adobe Illustrator 24.3.0, SVG Export Plug-In . SVG Version: 6.00 Build 0)  -->
<svg version="1.1" id="Layer_1" xmlns="http://www.w3.org/2000/svg" xmlns:xlink="http://www.w3.org/1999/xlink" x="0px" y="0px"
	 viewBox="0 0 120 120" enable-background="new 0 0 120 120" xml:space="preserve">
<g>
	<circle fill="#E8EBEC" cx="33.629" cy="66.866" r="14"/>
	<circle fill="#E8EBEC" cx="60.82" cy="33.415" r="12"/>
	<circle fill="#E8EBEC" cx="79.497" cy="77.665" r="20"/>
	<g>
		<path fill="#BDC3D8" d="M80.497,38.416H28.496v52c0,1.104,0.896,2,2,2h48.001c1.104,0,2-0.896,2-2V38.416z"/>
		<path fill="#FFFFFF" d="M75.497,38.416H28.499v49.999h42.998c2.209,0,4-1.791,4-4V38.416z"/>
		<path fill="#21365F" d="M78.497,93.166H30.496c-1.517,0-2.75-1.234-2.75-2.75v-52c0-0.414,0.336-0.75,0.75-0.75h52.001
			c0.414,0,0.75,0.336,0.75,0.75v52C81.247,91.932,80.014,93.166,78.497,93.166z M29.246,39.166v51.25c0,0.689,0.56,1.25,1.25,1.25
			h48.001c0.689,0,1.25-0.561,1.25-1.25v-51.25H29.246z"/>
		<path fill="#BDC3D8" d="M84.497,46.416h-46c-1.104,0-2,0.895-2,2v34c0,1.104,0.896,2,2,2h46c1.105,0,2-0.896,2-2v-34
			C86.497,47.311,85.603,46.416,84.497,46.416z"/>
		<path fill="#FFFFFF" d="M80.497,46.416h-42c-1.104,0-2,0.895-2,2v31.999h40c2.209,0,4-1.791,4-4V46.416z"/>
		<path fill="#21365F" d="M84.497,85.166h-46c-1.517,0-2.75-1.234-2.75-2.75v-34c0-1.518,1.233-2.75,2.75-2.75h46
			c1.517,0,2.75,1.232,2.75,2.75v34C87.247,83.932,86.014,85.166,84.497,85.166z M38.497,47.166c-0.689,0-1.25,0.561-1.25,1.25v34
			c0,0.689,0.561,1.25,1.25,1.25h46c0.689,0,1.25-0.561,1.25-1.25v-34c0-0.689-0.561-1.25-1.25-1.25H38.497z"/>
		<path fill="#BDC3D8" d="M90.498,66.416H75.499l-6.001-6l-6,6h-15c-1.104,0-2,0.896-2,2v6c0,1.104,0.896,2,2,2h42
			c1.104,0,2-0.896,2-2v-6C92.498,67.312,91.603,66.416,90.498,66.416z"/>
		<path fill="#FFFFFF" d="M89.498,66.416H75.499l-6.001-6l-6,6h-15c-1.104,0-2,0.896-2,2v5h41c1.105,0,2-0.896,2-2V66.416z"/>
		<path fill="#21365F" d="M90.498,77.166h-42c-1.517,0-2.75-1.234-2.75-2.75v-6c0-1.517,1.233-2.75,2.75-2.75h14.688l5.781-5.781
			c0.293-0.293,0.768-0.293,1.061,0l5.781,5.781h14.688c1.517,0,2.75,1.233,2.75,2.75v6C93.248,75.932,92.015,77.166,90.498,77.166z
			 M48.498,67.166c-0.689,0-1.25,0.561-1.25,1.25v6c0,0.689,0.561,1.25,1.25,1.25h42c0.69,0,1.25-0.561,1.25-1.25v-6
			c0-0.689-0.56-1.25-1.25-1.25H75.499c-0.199,0-0.39-0.079-0.53-0.22l-5.471-5.47l-5.471,5.47c-0.141,0.141-0.331,0.22-0.53,0.22
			H48.498z"/>
		<path fill="#BDC3D8" d="M80.497,38.416H28.498v-8c0-1.105,0.896-2,2-2h47.999c1.104,0,2,0.895,2,2V38.416z"/>
		<path fill="#FFFFFF" d="M68.496,35.415h-40v-4.999c0-1.105,0.896-2,2-2h43v1.999C73.496,33.177,71.258,35.415,68.496,35.415z"/>
		<path fill="#21365F" d="M74.492,34.415c-0.26,0-0.52-0.11-0.71-0.29c-0.18-0.19-0.29-0.44-0.29-0.71c0-0.261,0.11-0.521,0.3-0.71
			c0.37-0.37,1.04-0.37,1.41,0c0.19,0.189,0.29,0.449,0.29,0.71c0,0.26-0.1,0.52-0.29,0.71
			C75.022,34.305,74.762,34.415,74.492,34.415z"/>
		<path fill="#21365F" d="M67.492,33.415c0-0.55,0.45-1,1-1l0,0c0.561,0,1,0.45,1,1l0,0c0,0.55-0.439,1-1,1l0,0
			C67.942,34.415,67.492,33.965,67.492,33.415z"/>
		<path fill="#21365F" d="M62.492,34.415c-0.26,0-0.51-0.1-0.7-0.29c-0.189-0.19-0.3-0.45-0.3-0.71c0-0.261,0.11-0.521,0.3-0.71
			c0.37-0.37,1.04-0.37,1.41,0c0.19,0.189,0.29,0.449,0.29,0.71c0,0.26-0.1,0.52-0.29,0.71
			C63.012,34.315,62.762,34.415,62.492,34.415z"/>
		<path fill="#21365F" d="M80.497,39.166H28.498c-0.414,0-0.75-0.336-0.75-0.75v-8c0-1.518,1.233-2.75,2.75-2.75h47.999
			c1.517,0,2.75,1.232,2.75,2.75v8C81.247,38.83,80.911,39.166,80.497,39.166z M29.248,37.666h50.499v-7.25
			c0-0.689-0.561-1.25-1.25-1.25H30.498c-0.689,0-1.25,0.561-1.25,1.25V37.666z"/>
		<path fill="#21365F" d="M41.882,61.166h-1.384c-0.414,0-0.75-0.336-0.75-0.75c0-0.414,0.336-0.75,0.75-0.75h1.384
			c0.414,0,0.75,0.336,0.75,0.75C42.632,60.83,42.296,61.166,41.882,61.166z"/>
		<path fill="#21365F" d="M46.498,61.166h-1.385c-0.414,0-0.75-0.336-0.75-0.75c0-0.414,0.336-0.75,0.75-0.75h1.385
			c0.414,0,0.75,0.336,0.75,0.75C47.248,60.83,46.912,61.166,46.498,61.166z"/>
		<path fill="#21365F" d="M43.498,64.166c-0.414,0-0.75-0.336-0.75-0.75v-1.384c0-0.414,0.336-0.75,0.75-0.75
			c0.414,0,0.75,0.336,0.75,0.75v1.384C44.248,63.83,43.912,64.166,43.498,64.166z"/>
		<path fill="#21365F" d="M43.498,59.551c-0.414,0-0.75-0.336-0.75-0.75v-1.385c0-0.414,0.336-0.75,0.75-0.75
			c0.414,0,0.75,0.336,0.75,0.75v1.385C44.248,59.215,43.912,59.551,43.498,59.551z"/>
		<path fill="#21365F" d="M54.884,54.166h-1.385c-0.414,0-0.75-0.336-0.75-0.75c0-0.414,0.336-0.75,0.75-0.75h1.385
			c0.414,0,0.75,0.336,0.75,0.75C55.634,53.83,55.298,54.166,54.884,54.166z"/>
		<path fill="#21365F" d="M59.499,54.166h-1.385c-0.414,0-0.75-0.336-0.75-0.75c0-0.414,0.336-0.75,0.75-0.75h1.385
			c0.414,0,0.75,0.336,0.75,0.75C60.249,53.83,59.913,54.166,59.499,54.166z"/>
		<path fill="#21365F" d="M56.499,57.166c-0.414,0-0.75-0.336-0.75-0.75v-1.385c0-0.414,0.336-0.75,0.75-0.75
			c0.414,0,0.75,0.336,0.75,0.75v1.385C57.249,56.83,56.913,57.166,56.499,57.166z"/>
		<path fill="#21365F" d="M56.499,52.551c-0.414,0-0.75-0.336-0.75-0.75v-1.385c0-0.414,0.336-0.75,0.75-0.75
			c0.414,0,0.75,0.336,0.75,0.75v1.385C57.249,52.215,56.913,52.551,56.499,52.551z"/>
		<path fill="#21365F" d="M75.886,57.166h-1.385c-0.414,0-0.75-0.336-0.75-0.75c0-0.414,0.336-0.75,0.75-0.75h1.385
			c0.414,0,0.75,0.336,0.75,0.75C76.636,56.83,76.3,57.166,75.886,57.166z"/>
		<path fill="#21365F" d="M80.501,57.166h-1.385c-0.414,0-0.75-0.336-0.75-0.75c0-0.414,0.336-0.75,0.75-0.75h1.385
			c0.414,0,0.75,0.336,0.75,0.75C81.251,56.83,80.915,57.166,80.501,57.166z"/>
		<path fill="#21365F" d="M77.501,60.166c-0.414,0-0.75-0.336-0.75-0.75v-1.385c0-0.414,0.336-0.75,0.75-0.75
			c0.414,0,0.75,0.336,0.75,0.75v1.385C78.251,59.83,77.915,60.166,77.501,60.166z"/>
		<path fill="#21365F" d="M77.501,55.551c-0.414,0-0.75-0.336-0.75-0.75v-1.385c0-0.414,0.336-0.75,0.75-0.75
			c0.414,0,0.75,0.336,0.75,0.75v1.385C78.251,55.215,77.915,55.551,77.501,55.551z"/>
		<path fill="#21365F" d="M61.496,72.166h-9.998c-0.414,0-0.75-0.336-0.75-0.75c0-0.414,0.336-0.75,0.75-0.75h9.998
			c0.414,0,0.75,0.336,0.75,0.75C62.246,71.83,61.91,72.166,61.496,72.166z"/>
		<path fill="#21365F" d="M80.497,72.166H65.496c-0.414,0-0.75-0.336-0.75-0.75c0-0.414,0.336-0.75,0.75-0.75h15.001
			c0.414,0,0.75,0.336,0.75,0.75C81.247,71.83,80.911,72.166,80.497,72.166z"/>
	</g>
</g>
</svg>
