<?xml version="1.0" encoding="utf-8"?>
<!-- Generator: Adobe Illustrator 24.3.0, SVG Export Plug-In . SVG Version: 6.00 Build 0)  -->
<svg version="1.1" id="Layer_1" xmlns="http://www.w3.org/2000/svg" xmlns:xlink="http://www.w3.org/1999/xlink" x="0px" y="0px"
	 viewBox="0 0 120 120" enable-background="new 0 0 120 120" xml:space="preserve">
<g>
	<circle fill="#E8EBEC" cx="31.312" cy="56.414" r="14"/>
	<circle fill="#E8EBEC" cx="55.564" cy="87.791" r="12"/>
	<circle fill="#E8EBEC" cx="81.815" cy="39.289" r="20"/>
	<g>
		<path fill="#BDC3D8" d="M90.065,81.79h-6.999l-5.001,11.001l-5-11.001h-3c-1.104,0-2-0.896-2-2V30.791c0-1.104,0.896-2,2-2h20
			c1.105,0,2,0.896,2,2V79.79C92.065,80.895,91.17,81.79,90.065,81.79z"/>
		<path fill="#FFFFFF" d="M87.065,76.79h-5.711c-0.784,0-1.496,0.458-1.821,1.172l-4.104,9.029l-2.363-5.201h-3
			c-1.104,0-2-0.896-2-2V30.791c0-1.104,0.896-2,2-2h17c1.104,0,2,0.896,2,2V74.79C89.065,75.895,88.169,76.79,87.065,76.79z"/>
		<path fill="#21365F" d="M78.066,93.542c-0.294,0-0.562-0.172-0.683-0.439l-4.802-10.562h-2.516c-1.517,0-2.75-1.233-2.75-2.75
			V30.792c0-1.517,1.233-2.75,2.75-2.75h20c1.517,0,2.75,1.233,2.75,2.75v48.999c0,1.517-1.233,2.75-2.75,2.75h-6.517l-4.801,10.562
			C78.627,93.37,78.36,93.542,78.066,93.542z M70.066,29.542c-0.689,0-1.25,0.561-1.25,1.25v48.999c0,0.689,0.561,1.25,1.25,1.25
			h2.999c0.294,0,0.562,0.172,0.683,0.439l4.318,9.499l4.317-9.499c0.121-0.268,0.389-0.439,0.683-0.439h7
			c0.689,0,1.25-0.561,1.25-1.25V30.792c0-0.689-0.561-1.25-1.25-1.25H70.066z"/>
		<path fill="#BDC3D8" d="M58.062,52.789h-28c-1.104,0-2-0.895-2-2v-20c0-1.104,0.896-2,2-2h28c1.104,0,2,0.896,2,2v3l11.001,5
			L60.062,43.79v6.999C60.062,51.895,59.166,52.789,58.062,52.789z"/>
		<path fill="#FFFFFF" d="M55.061,47.789H28.062v-17c0-1.104,0.896-2,2-2h28c1.104,0,2,0.896,2,2v3l7.301,3.318l-9.129,4.15
			c-0.714,0.324-1.173,1.036-1.173,1.82v2.712C57.061,46.894,56.166,47.789,55.061,47.789z"/>
		<path fill="#21365F" d="M58.062,53.54h-28c-1.517,0-2.75-1.233-2.75-2.75v-20c0-1.517,1.233-2.75,2.75-2.75h28
			c1.517,0,2.75,1.233,2.75,2.75v2.516l10.562,4.801c0.268,0.121,0.439,0.389,0.439,0.683c0,0.294-0.172,0.562-0.439,0.683
			l-10.562,4.802v6.517C60.812,52.307,59.578,53.54,58.062,53.54z M30.062,29.54c-0.689,0-1.25,0.561-1.25,1.25v20
			c0,0.689,0.561,1.25,1.25,1.25h28c0.689,0,1.25-0.561,1.25-1.25v-7c0-0.294,0.172-0.562,0.439-0.683l9.499-4.318l-9.499-4.317
			c-0.268-0.121-0.439-0.389-0.439-0.683V30.79c0-0.689-0.561-1.25-1.25-1.25H30.062z"/>
		<path fill="#BDC3D8" d="M58.062,92.793h-28c-1.104,0-2-0.896-2-2v-28c0-1.104,0.896-2,2-2h2.999l5-11.001l5,11.001h15.001
			c1.104,0,2,0.896,2,2v28C60.062,91.898,59.166,92.793,58.062,92.793z"/>
		<path fill="#FFFFFF" d="M55.061,87.793H28.062v-25c0-1.104,0.896-2,2-2h2.999l5-11.001l5,11.001h14v25
			C57.061,86.898,56.166,87.793,55.061,87.793z"/>
		<path fill="#21365F" d="M58.062,93.543h-28c-1.517,0-2.75-1.233-2.75-2.75v-28c0-1.517,1.233-2.75,2.75-2.75h2.516l4.801-10.562
			c0.242-0.535,1.123-0.535,1.365,0l4.801,10.562h14.518c1.517,0,2.75,1.233,2.75,2.75v28C60.812,92.31,59.578,93.543,58.062,93.543
			z M30.062,61.543c-0.689,0-1.25,0.561-1.25,1.25v28c0,0.689,0.561,1.25,1.25,1.25h28c0.689,0,1.25-0.561,1.25-1.25v-28
			c0-0.689-0.561-1.25-1.25-1.25H43.061c-0.294,0-0.561-0.172-0.683-0.439l-4.317-9.499l-4.317,9.499
			c-0.121,0.268-0.389,0.439-0.683,0.439H30.062z"/>
		<path fill="#21365F" d="M55.062,36.537h-8.664c-0.414,0-0.75-0.336-0.75-0.75c0-0.414,0.336-0.75,0.75-0.75h8.664
			c0.414,0,0.75,0.336,0.75,0.75C55.812,36.201,55.476,36.537,55.062,36.537z"/>
		<path fill="#21365F" d="M42.398,36.537h-9.336c-0.414,0-0.75-0.336-0.75-0.75c0-0.414,0.336-0.75,0.75-0.75h9.336
			c0.414,0,0.75,0.336,0.75,0.75C43.148,36.201,42.812,36.537,42.398,36.537z"/>
		<path fill="#21365F" d="M49.061,43.538h-6.663c-0.414,0-0.75-0.336-0.75-0.75c0-0.414,0.336-0.75,0.75-0.75h6.663
			c0.414,0,0.75,0.336,0.75,0.75C49.811,43.202,49.475,43.538,49.061,43.538z"/>
		<path fill="#21365F" d="M38.397,43.538h-5.335c-0.414,0-0.75-0.336-0.75-0.75c0-0.414,0.336-0.75,0.75-0.75h5.335
			c0.414,0,0.75,0.336,0.75,0.75C39.147,43.202,38.811,43.538,38.397,43.538z"/>
		<path fill="#21365F" d="M87.066,36.537h-4.001c-0.414,0-0.75-0.336-0.75-0.75c0-0.414,0.336-0.75,0.75-0.75h4.001
			c0.414,0,0.75,0.336,0.75,0.75C87.816,36.201,87.48,36.537,87.066,36.537z"/>
		<path fill="#21365F" d="M79.065,36.537h-5.999c-0.414,0-0.75-0.336-0.75-0.75c0-0.414,0.336-0.75,0.75-0.75h5.999
			c0.414,0,0.75,0.336,0.75,0.75C79.815,36.201,79.479,36.537,79.065,36.537z"/>
		<path fill="#21365F" d="M87.066,43.538h-6.002c-0.414,0-0.75-0.336-0.75-0.75c0-0.414,0.336-0.75,0.75-0.75h6.002
			c0.414,0,0.75,0.336,0.75,0.75C87.816,43.202,87.48,43.538,87.066,43.538z"/>
		<path fill="#21365F" d="M77.063,43.538h-3.997c-0.414,0-0.75-0.336-0.75-0.75c0-0.414,0.336-0.75,0.75-0.75h3.997
			c0.414,0,0.75,0.336,0.75,0.75C77.813,43.202,77.477,43.538,77.063,43.538z"/>
		<path fill="#21365F" d="M83.065,50.539h-9.999c-0.414,0-0.75-0.336-0.75-0.75s0.336-0.75,0.75-0.75h9.999
			c0.414,0,0.75,0.336,0.75,0.75S83.479,50.539,83.065,50.539z"/>
		<path fill="#21365F" d="M87.066,57.54h-7.002c-0.414,0-0.75-0.336-0.75-0.75c0-0.414,0.336-0.75,0.75-0.75h7.002
			c0.414,0,0.75,0.336,0.75,0.75C87.816,57.204,87.48,57.54,87.066,57.54z"/>
		<path fill="#21365F" d="M76.063,57.54h-2.997c-0.414,0-0.75-0.336-0.75-0.75c0-0.414,0.336-0.75,0.75-0.75h2.997
			c0.414,0,0.75,0.336,0.75,0.75C76.813,57.204,76.477,57.54,76.063,57.54z"/>
		<path fill="#21365F" d="M87.066,64.54h-5.001c-0.414,0-0.75-0.336-0.75-0.75c0-0.414,0.336-0.75,0.75-0.75h5.001
			c0.414,0,0.75,0.336,0.75,0.75C87.816,64.204,87.48,64.54,87.066,64.54z"/>
		<path fill="#21365F" d="M78.065,64.54h-4.999c-0.414,0-0.75-0.336-0.75-0.75c0-0.414,0.336-0.75,0.75-0.75h4.999
			c0.414,0,0.75,0.336,0.75,0.75C78.815,64.204,78.479,64.54,78.065,64.54z"/>
		<path fill="#21365F" d="M83.065,71.541h-9.999c-0.414,0-0.75-0.336-0.75-0.75c0-0.414,0.336-0.75,0.75-0.75h9.999
			c0.414,0,0.75,0.336,0.75,0.75C83.815,71.205,83.479,71.541,83.065,71.541z"/>
		<path fill="#21365F" d="M55.062,68.541h-7.664c-0.414,0-0.75-0.336-0.75-0.75c0-0.414,0.336-0.75,0.75-0.75h7.664
			c0.414,0,0.75,0.336,0.75,0.75C55.812,68.205,55.476,68.541,55.062,68.541z"/>
		<path fill="#21365F" d="M43.398,68.541H33.062c-0.414,0-0.75-0.336-0.75-0.75c0-0.414,0.336-0.75,0.75-0.75h10.336
			c0.414,0,0.75,0.336,0.75,0.75C44.148,68.205,43.812,68.541,43.398,68.541z"/>
		<path fill="#21365F" d="M55.062,75.541h-12c-0.414,0-0.75-0.336-0.75-0.75c0-0.414,0.336-0.75,0.75-0.75h12
			c0.414,0,0.75,0.336,0.75,0.75C55.812,75.205,55.476,75.541,55.062,75.541z"/>
		<path fill="#21365F" d="M39.062,75.541h-6c-0.414,0-0.75-0.336-0.75-0.75c0-0.414,0.336-0.75,0.75-0.75h6
			c0.414,0,0.75,0.336,0.75,0.75C39.812,75.205,39.476,75.541,39.062,75.541z"/>
		<path fill="#21365F" d="M49.061,82.542H33.062c-0.414,0-0.75-0.336-0.75-0.75c0-0.414,0.336-0.75,0.75-0.75h15.999
			c0.414,0,0.75,0.336,0.75,0.75C49.811,82.206,49.475,82.542,49.061,82.542z"/>
		<path fill="#21365F" d="M98.066,86.918h-4c-0.414,0-0.75-0.336-0.75-0.75s0.336-0.75,0.75-0.75h4c0.414,0,0.75,0.336,0.75,0.75
			S98.48,86.918,98.066,86.918z"/>
		<path fill="#21365F" d="M96.066,88.918c-0.414,0-0.75-0.336-0.75-0.75v-4c0-0.414,0.336-0.75,0.75-0.75
			c0.414,0,0.75,0.336,0.75,0.75v4C96.816,88.582,96.48,88.918,96.066,88.918z"/>
		<circle fill="#21365F" cx="96.066" cy="80.167" r="0.75"/>
		<circle fill="#21365F" cx="96.066" cy="77.167" r="0.75"/>
		<circle fill="#21365F" cx="96.066" cy="72.166" r="0.75"/>
		<circle fill="#21365F" cx="96.066" cy="66.166" r="0.75"/>
		<path fill="#21365F" d="M26.062,56.914h-4c-0.414,0-0.75-0.336-0.75-0.75s0.336-0.75,0.75-0.75h4c0.414,0,0.75,0.336,0.75,0.75
			S26.476,56.914,26.062,56.914z"/>
		<path fill="#21365F" d="M24.062,58.914c-0.414,0-0.75-0.336-0.75-0.75v-4c0-0.414,0.336-0.75,0.75-0.75
			c0.414,0,0.75,0.336,0.75,0.75v4C24.812,58.578,24.476,58.914,24.062,58.914z"/>
		<circle fill="#21365F" cx="24.061" cy="50.164" r="0.75"/>
		<circle fill="#21365F" cx="24.061" cy="47.164" r="0.75"/>
		<circle fill="#21365F" cx="24.061" cy="42.163" r="0.75"/>
		<circle fill="#21365F" cx="24.061" cy="36.162" r="0.75"/>
	</g>
</g>
</svg>
