<?xml version="1.0" encoding="utf-8"?>
<!-- Generator: Adobe Illustrator 24.3.0, SVG Export Plug-In . SVG Version: 6.00 Build 0)  -->
<svg version="1.1" id="Layer_1" xmlns="http://www.w3.org/2000/svg" xmlns:xlink="http://www.w3.org/1999/xlink" x="0px" y="0px"
	 viewBox="0 0 120 120" enable-background="new 0 0 120 120" xml:space="preserve">
<g>
	<circle fill="#E8EBEC" cx="33.746" cy="67.46" r="14"/>
	<circle fill="#E8EBEC" cx="65.235" cy="31.164" r="12"/>
	<circle fill="#E8EBEC" cx="79.381" cy="79.917" r="20"/>
	<g>
		<path fill="#BDC3D8" d="M82.994,36.918H28.993v52c0,1.104,0.896,2,2,2h50.001c1.104,0,2-0.896,2-2V36.918z"/>
		<path fill="#FFFFFF" d="M78.994,36.918h-50v50h49c0.552,0,1-0.448,1-1V36.918z"/>
		<path fill="#21365F" d="M80.995,91.668H30.994c-1.517,0-2.75-1.233-2.75-2.75v-52c0-0.414,0.336-0.75,0.75-0.75h54.001
			c0.414,0,0.75,0.336,0.75,0.75v52C83.745,90.434,82.512,91.668,80.995,91.668z M29.744,37.668v51.25c0,0.689,0.561,1.25,1.25,1.25
			h50.001c0.689,0,1.25-0.561,1.25-1.25v-51.25H29.744z"/>
		<path fill="#BDC3D8" d="M82.994,36.918H28.995v-8c0-1.105,0.896-2,2-2h49.999c1.104,0,2,0.895,2,2V36.918z"/>
		<path fill="#FFFFFF" d="M76.994,33.918H28.995v-5c0-1.105,0.896-2,2-2h47.999v5C78.994,33.022,78.099,33.918,76.994,33.918z"/>
		<path fill="#21365F" d="M76.995,32.92c-0.26,0-0.52-0.11-0.71-0.29c-0.189-0.19-0.29-0.45-0.29-0.71
			c0-0.261,0.101-0.521,0.29-0.71c0.38-0.37,1.05-0.37,1.42,0c0.181,0.189,0.29,0.449,0.29,0.71c0,0.26-0.109,0.52-0.29,0.71
			C77.516,32.809,77.256,32.92,76.995,32.92z"/>
		<path fill="#21365F" d="M69.995,31.92c0-0.551,0.45-1,1-1l0,0c0.55,0,1,0.449,1,1l0,0c0,0.55-0.45,1-1,1l0,0
			C70.445,32.92,69.995,32.47,69.995,31.92z"/>
		<path fill="#21365F" d="M64.995,32.92c-0.26,0-0.52-0.11-0.71-0.29c-0.18-0.19-0.29-0.45-0.29-0.71c0-0.271,0.101-0.521,0.29-0.71
			c0.38-0.37,1.04-0.37,1.42,0c0.181,0.189,0.29,0.449,0.29,0.71c0,0.26-0.109,0.52-0.29,0.71
			C65.516,32.809,65.256,32.92,64.995,32.92z"/>
		<path fill="#21365F" d="M82.995,37.668H28.996c-0.414,0-0.75-0.336-0.75-0.75v-8c0-1.517,1.233-2.75,2.75-2.75h49.999
			c1.517,0,2.75,1.233,2.75,2.75v8C83.745,37.332,83.409,37.668,82.995,37.668z M29.746,36.168h52.499v-7.25
			c0-0.69-0.561-1.25-1.25-1.25H30.996c-0.689,0-1.25,0.56-1.25,1.25V36.168z"/>
		<path fill="#BDC3D8" d="M90.996,58.919H54.997c-1.104,0-2,0.896-2,2v17.998c0,1.104,0.896,2,2,2h4.997l0.001,6.001l12.002-6.001
			h18.999c1.105,0,2-0.896,2-2V60.919C92.996,59.814,92.101,58.919,90.996,58.919z"/>
		<path fill="#FFFFFF" d="M85.996,58.919H54.997c-1.104,0-2,0.896-2,2v16.998h30.999c1.104,0,2-0.896,2-2V58.919z"/>
		<path fill="#21365F" d="M87.997,70.67h-13.52c-0.414,0-0.75-0.336-0.75-0.75c0-0.414,0.336-0.75,0.75-0.75h13.52
			c0.414,0,0.75,0.336,0.75,0.75C88.747,70.334,88.411,70.67,87.997,70.67z"/>
		<path fill="#21365F" d="M87.997,65.67h-6.894c-0.414,0-0.75-0.336-0.75-0.75c0-0.414,0.336-0.75,0.75-0.75h6.894
			c0.414,0,0.75,0.336,0.75,0.75C88.747,65.334,88.411,65.67,87.997,65.67z"/>
		<path fill="#21365F" d="M79.996,75.671h-8.394c-0.414,0-0.75-0.336-0.75-0.75c0-0.414,0.336-0.75,0.75-0.75h8.394
			c0.414,0,0.75,0.336,0.75,0.75C80.746,75.335,80.41,75.671,79.996,75.671z"/>
		<path fill="#21365F" d="M67.602,75.671h-9.605c-0.414,0-0.75-0.336-0.75-0.75c0-0.414,0.336-0.75,0.75-0.75h9.605
			c0.414,0,0.75,0.336,0.75,0.75C68.352,75.335,68.016,75.671,67.602,75.671z"/>
		<path fill="#21365F" d="M59.995,87.668c-0.137,0-0.273-0.037-0.395-0.112c-0.221-0.137-0.355-0.378-0.355-0.638v-5.251h-4.248
			c-1.517,0-2.75-1.233-2.75-2.75V60.919c0-1.517,1.233-2.75,2.75-2.75h36c1.517,0,2.75,1.233,2.75,2.75v17.998
			c0,1.517-1.233,2.75-2.75,2.75H72.174L60.33,87.589C60.225,87.641,60.109,87.668,59.995,87.668z M54.997,59.669
			c-0.689,0-1.25,0.561-1.25,1.25v17.998c0,0.689,0.561,1.25,1.25,1.25h4.998c0.414,0,0.75,0.336,0.75,0.75v4.787l10.917-5.458
			c0.104-0.052,0.219-0.079,0.335-0.079h19c0.689,0,1.25-0.561,1.25-1.25V60.919c0-0.689-0.561-1.25-1.25-1.25H54.997z"/>
		<path fill="#BDC3D8" d="M37.995,43.917h36c1.104,0,2,0.896,2,2v17.999c0,1.105-0.896,2-2,2h-4.998v6l-12.002-6h-19
			c-1.104,0-2-0.895-2-2V45.917C35.995,44.812,36.891,43.917,37.995,43.917z"/>
		<path fill="#FFFFFF" d="M68.994,43.917H37.995c-1.104,0-2,0.896-2,2v16.998h30.999c1.104,0,2-0.895,2-2V43.917z"/>
		<path fill="#21365F" d="M68.997,72.667c-0.114,0-0.229-0.026-0.335-0.079l-11.844-5.922H37.995c-1.517,0-2.75-1.233-2.75-2.75
			V45.918c0-1.517,1.233-2.75,2.75-2.75h36c1.517,0,2.75,1.233,2.75,2.75v17.998c0,1.517-1.233,2.75-2.75,2.75h-4.248v5.251
			c0,0.26-0.135,0.501-0.355,0.638C69.27,72.63,69.134,72.667,68.997,72.667z M37.995,44.668c-0.689,0-1.25,0.561-1.25,1.25v17.998
			c0,0.69,0.561,1.25,1.25,1.25h19c0.116,0,0.231,0.027,0.335,0.079l10.917,5.458v-4.787c0-0.414,0.336-0.75,0.75-0.75h4.998
			c0.689,0,1.25-0.56,1.25-1.25V45.918c0-0.689-0.561-1.25-1.25-1.25H37.995z"/>
		<path fill="#21365F" d="M87.995,46.368c-0.414,0-0.75-0.336-0.75-0.75V31.919c0-0.414,0.336-0.75,0.75-0.75
			c0.414,0,0.75,0.336,0.75,0.75v13.699C88.745,46.032,88.409,46.368,87.995,46.368z"/>
		<path fill="#21365F" d="M87.995,52.668c-0.414,0-0.75-0.336-0.75-0.75v-2.3c0-0.414,0.336-0.75,0.75-0.75
			c0.414,0,0.75,0.336,0.75,0.75v2.3C88.745,52.332,88.409,52.668,87.995,52.668z"/>
		<path fill="#21365F" d="M70.995,55.669H59.476c-0.414,0-0.75-0.336-0.75-0.75c0-0.414,0.336-0.75,0.75-0.75h11.519
			c0.414,0,0.75,0.336,0.75,0.75C71.745,55.333,71.409,55.669,70.995,55.669z"/>
		<path fill="#21365F" d="M55.476,55.669H40.995c-0.414,0-0.75-0.336-0.75-0.75c0-0.414,0.336-0.75,0.75-0.75h14.481
			c0.414,0,0.75,0.336,0.75,0.75C56.226,55.333,55.891,55.669,55.476,55.669z"/>
		<path fill="#21365F" d="M70.995,50.668H54.1c-0.414,0-0.75-0.336-0.75-0.75s0.336-0.75,0.75-0.75h16.895
			c0.414,0,0.75,0.336,0.75,0.75S71.409,50.668,70.995,50.668z"/>
		<path fill="#21365F" d="M50.1,50.668h-9.105c-0.414,0-0.75-0.336-0.75-0.75s0.336-0.75,0.75-0.75H50.1
			c0.414,0,0.75,0.336,0.75,0.75S50.515,50.668,50.1,50.668z"/>
		<path fill="#21365F" d="M62.994,60.669H51.6c-0.414,0-0.75-0.336-0.75-0.75c0-0.414,0.336-0.75,0.75-0.75h11.394
			c0.414,0,0.75,0.336,0.75,0.75C63.744,60.333,63.408,60.669,62.994,60.669z"/>
		<path fill="#21365F" d="M47.6,60.669h-6.605c-0.414,0-0.75-0.336-0.75-0.75c0-0.414,0.336-0.75,0.75-0.75H47.6
			c0.414,0,0.75,0.336,0.75,0.75C48.35,60.333,48.015,60.669,47.6,60.669z"/>
		<circle fill="#FFFFFF" cx="34.996" cy="76.917" r="2"/>
		<path fill="#21365F" d="M34.996,79.667c-1.517,0-2.75-1.233-2.75-2.75c0-1.517,1.233-2.75,2.75-2.75c1.517,0,2.75,1.233,2.75,2.75
			C37.746,78.433,36.513,79.667,34.996,79.667z M34.996,75.667c-0.689,0-1.25,0.561-1.25,1.25c0,0.689,0.561,1.25,1.25,1.25
			c0.689,0,1.25-0.561,1.25-1.25C36.246,76.227,35.685,75.667,34.996,75.667z"/>
		<circle fill="#FFFFFF" cx="42.997" cy="81.918" r="2"/>
		<path fill="#21365F" d="M42.997,84.668c-1.517,0-2.75-1.233-2.75-2.75c0-1.517,1.233-2.75,2.75-2.75c1.517,0,2.75,1.233,2.75,2.75
			C45.747,83.434,44.514,84.668,42.997,84.668z M42.997,80.668c-0.689,0-1.25,0.56-1.25,1.25c0,0.689,0.561,1.25,1.25,1.25
			c0.689,0,1.25-0.561,1.25-1.25C44.247,81.228,43.686,80.668,42.997,80.668z"/>
		<circle fill="#FFFFFF" cx="45.997" cy="71.917" r="2"/>
		<path fill="#21365F" d="M45.997,74.667c-1.517,0-2.75-1.233-2.75-2.75c0-1.517,1.233-2.75,2.75-2.75c1.517,0,2.75,1.233,2.75,2.75
			C48.747,73.433,47.514,74.667,45.997,74.667z M45.997,70.667c-0.689,0-1.25,0.561-1.25,1.25c0,0.689,0.561,1.25,1.25,1.25
			c0.69,0,1.25-0.561,1.25-1.25C47.247,71.227,46.686,70.667,45.997,70.667z"/>
	</g>
</g>
</svg>
