<?xml version="1.0" encoding="utf-8"?>
<!-- Generator: Adobe Illustrator 24.3.0, SVG Export Plug-In . SVG Version: 6.00 Build 0)  -->
<svg version="1.1" id="Layer_1" xmlns="http://www.w3.org/2000/svg" xmlns:xlink="http://www.w3.org/1999/xlink" x="0px" y="0px"
	 viewBox="0 0 120 120" enable-background="new 0 0 120 120" xml:space="preserve">
<g>
	<circle fill="#E8EBEC" cx="72.82" cy="36.545" r="14"/>
	<circle fill="#E8EBEC" cx="30.82" cy="64.285" r="12"/>
	<circle fill="#E8EBEC" cx="80.307" cy="76.536" r="20"/>
	<g>
		<path fill="#FFFFFF" d="M60.813,44.009c-2.066,0-3.741-1.675-3.741-3.74c0-1.823,1.306-3.337,3.032-3.669
			c-0.261-0.46-0.412-0.991-0.412-1.559c0-0.413,0.084-0.804,0.228-1.165c-0.019-0.001-0.038-0.006-0.058-0.006
			c-1.751,0-3.17,1.42-3.17,3.171c0,0.567,0.15,1.099,0.412,1.56c-1.727,0.331-3.032,1.845-3.032,3.668
			c0,2.065,1.675,3.741,3.741,3.741h16.443c1.651,0,3.105-0.833,3.973-2.099c-0.314,0.064-0.639,0.098-0.972,0.098H60.813z"/>
		<path fill="#FFFFFF" d="M60.98,44.009c-1.917,0-3.648-1.369-3.879-3.272c-0.246-2.027,1.131-3.776,3.003-4.137
			c-0.363-0.64-0.512-1.416-0.341-2.235c0.251-1.203,1.234-2.183,2.439-2.427c1.077-0.219,2.078,0.112,2.789,0.758
			c0.363-2.799,2.746-4.964,5.641-4.975c1.978-0.007,3.782,1.147,4.846,2.815c0.909,1.425,1.014,2.746,0.79,3.95
			c0.965-0.205,2.027-0.144,3.169,0.446c1.356,0.699,2.357,2.018,2.581,3.528c0.44,2.984-1.861,5.548-4.761,5.548H60.98z"/>
		<path fill="#BDC3D8" d="M82.051,38.754c-0.157-1.768-1.358-3.31-2.993-3.999c-0.999-0.422-1.933-0.451-2.791-0.268
			c0.223-1.194,0.122-2.503-0.77-3.919c-1.077-1.711-2.935-2.885-4.957-2.846c-1.795,0.035-3.382,0.902-4.404,2.228
			c1.6-0.443,3.383-0.443,5.685,1.896c0.51,0.517,0.958,1.118,1.216,1.798c0.212,0.56,0.31,1.103,0.327,1.626
			c0.02,0.61,0.494,1.086,1.104,1.115c0.513,0.025,1.047,0.14,1.601,0.376c1.632,0.696,2.83,2.241,2.982,4.009
			c0.101,1.171-0.22,2.26-0.824,3.142C80.558,43.432,82.275,41.272,82.051,38.754z"/>
		<path fill="#21365F" d="M77.255,44.759H60.979c-2.363,0-4.352-1.69-4.624-3.933c-0.246-2.033,0.917-3.944,2.738-4.702
			c-0.177-0.612-0.201-1.261-0.064-1.913c0.312-1.495,1.527-2.705,3.024-3.01c0.846-0.17,1.693-0.07,2.443,0.275
			c0.835-2.624,3.298-4.495,6.132-4.506c0.006,0,0.013,0,0.019,0c2.125,0,4.216,1.21,5.461,3.161c0.713,1.118,1.045,2.271,1.005,3.5
			c0.904-0.017,1.803,0.188,2.665,0.633c1.611,0.832,2.725,2.359,2.979,4.087c0.239,1.62-0.231,3.252-1.289,4.478
			C80.411,44.055,78.875,44.759,77.255,44.759z M62.857,32.62c-0.167,0-0.336,0.017-0.506,0.052
			c-0.917,0.187-1.663,0.929-1.854,1.846c-0.125,0.6-0.036,1.192,0.259,1.712c0.12,0.21,0.13,0.465,0.028,0.685
			c-0.1,0.22-0.301,0.377-0.538,0.422c-1.536,0.295-2.59,1.748-2.4,3.31c0.177,1.465,1.555,2.613,3.134,2.613h16.276
			c1.183,0,2.306-0.514,3.079-1.41c0.784-0.908,1.118-2.072,0.94-3.278c-0.182-1.232-1.019-2.371-2.183-2.973
			c-0.875-0.45-1.75-0.574-2.669-0.378c-0.245,0.051-0.5-0.021-0.68-0.196c-0.18-0.175-0.259-0.428-0.213-0.675
			c0.229-1.233,0.012-2.317-0.685-3.41c-0.973-1.523-2.579-2.468-4.196-2.468c-0.005,0-0.01,0-0.015,0
			c-2.475,0.009-4.581,1.867-4.9,4.321c-0.035,0.276-0.222,0.511-0.484,0.607c-0.262,0.096-0.557,0.038-0.763-0.149
			C64.033,32.839,63.458,32.62,62.857,32.62z"/>
		<rect x="48.07" y="83.285" fill="#BDC3D8" width="24" height="6"/>
		<path fill="#FFFFFF" d="M67.454,83.285H48.07v4h15.384C65.663,87.285,67.454,85.494,67.454,83.285L67.454,83.285z"/>
		<path fill="#21365F" d="M72.07,90.035H48.07c-0.415,0-0.75-0.336-0.75-0.75v-6c0-0.414,0.335-0.75,0.75-0.75H72.07
			c0.414,0,0.75,0.336,0.75,0.75v6C72.82,89.699,72.483,90.035,72.07,90.035z M48.82,88.535H71.32v-4.5H48.82V88.535z"/>
		<path fill="#BDC3D8" d="M92.07,77.286h-64v-35c0-1.657,1.343-3,3-3h58c1.657,0,3,1.343,3,3V77.286z"/>
		<path fill="#FFFFFF" d="M81.069,73.286h-53v-31c0-1.657,1.343-3,3-3h55v29C86.069,71.047,83.831,73.286,81.069,73.286z"/>
		<path fill="#21365F" d="M92.07,78.036h-64c-0.415,0-0.75-0.336-0.75-0.75v-35c0-2.067,1.682-3.75,3.75-3.75h58
			c2.068,0,3.75,1.683,3.75,3.75v35C92.82,77.7,92.483,78.036,92.07,78.036z M28.82,76.536h62.5v-34.25c0-1.24-1.01-2.25-2.25-2.25
			h-58c-1.241,0-2.25,1.01-2.25,2.25V76.536z"/>
		<path fill="#BDC3D8" d="M89.07,83.285h-58c-1.657,0-3-1.343-3-3v-3h64v3C92.07,81.942,90.727,83.285,89.07,83.285z"/>
		<path fill="#FFFFFF" d="M82.069,81.285h-54v-4h58l0,0C86.069,79.494,84.278,81.285,82.069,81.285z"/>
		<path fill="#21365F" d="M89.07,84.035h-58c-2.068,0-3.75-1.683-3.75-3.75v-3c0-0.414,0.335-0.75,0.75-0.75h64
			c0.414,0,0.75,0.336,0.75,0.75v3C92.82,82.352,91.138,84.035,89.07,84.035z M28.82,78.035v2.25c0,1.24,1.009,2.25,2.25,2.25h58
			c1.24,0,2.25-1.01,2.25-2.25v-2.25H28.82z"/>
		<path fill="#21365F" d="M79.07,90.035h-38c-0.415,0-0.75-0.336-0.75-0.75c0-0.414,0.335-0.75,0.75-0.75h38
			c0.414,0,0.75,0.336,0.75,0.75C79.82,89.699,79.483,90.035,79.07,90.035z"/>
		<circle fill="#21365F" cx="60.07" cy="80.285" r="0.75"/>
		<path fill="#FFFFFF" d="M65.854,48.872c2.992,0,5.417-2.425,5.417-5.417c0-2.64-1.891-4.832-4.391-5.312
			c0.378-0.667,0.596-1.437,0.596-2.258c0-2.535-2.056-4.592-4.591-4.592c-1.188,0-2.267,0.455-3.082,1.195
			c-0.527-4.062-3.992-7.203-8.199-7.203c-4.571,0-8.276,3.705-8.276,8.275c0,0.521,0.054,1.028,0.146,1.521
			c-0.462-0.098-0.941-0.154-1.433-0.154c-3.851,0-6.973,3.121-6.973,6.972c0,3.851,3.122,6.973,6.973,6.973H65.854z"/>
		<path fill="#BDC3D8" d="M71.272,43.455c0-2.64-1.891-4.832-4.391-5.312c0.509-0.898,0.728-1.982,0.515-3.129
			c-0.344-1.849-1.862-3.34-3.716-3.653c-1.497-0.253-2.883,0.226-3.876,1.128c-0.527-4.062-3.992-7.203-8.199-7.203
			c-4.064,0-7.438,2.932-8.137,6.794c1.412-1.12,3.194-1.794,5.136-1.794c3.728,0,6.874,2.467,7.908,5.856
			c0.182,0.596,0.866,0.852,1.429,0.587c0.81-0.382,1.75-0.533,2.738-0.366c1.854,0.312,3.372,1.804,3.716,3.652
			c0.213,1.146-0.006,2.232-0.515,3.13c2.452,0.471,4.305,2.59,4.377,5.161C70.042,47.418,71.272,45.582,71.272,43.455z"/>
		<path fill="#21365F" d="M65.854,49.622H42.042c-4.258,0-7.722-3.465-7.722-7.723c0-4.444,3.791-8.057,8.284-7.7
			c-0.016-0.216-0.024-0.429-0.024-0.639c0-4.978,4.049-9.026,9.025-9.026c4.109,0,7.662,2.796,8.708,6.674
			c0.783-0.434,1.666-0.665,2.573-0.665c2.945,0,5.341,2.396,5.341,5.342c0,0.603-0.102,1.201-0.302,1.767
			c2.421,0.861,4.096,3.171,4.096,5.803C72.021,46.855,69.254,49.622,65.854,49.622z M42.042,35.678
			c-3.431,0-6.222,2.791-6.222,6.222c0,3.432,2.791,6.223,6.222,6.223h23.812c2.574,0,4.667-2.094,4.667-4.668
			c0-2.229-1.591-4.154-3.782-4.575c-0.237-0.045-0.438-0.202-0.539-0.422c-0.101-0.22-0.091-0.475,0.029-0.685
			c0.326-0.575,0.498-1.228,0.498-1.888c0-2.118-1.723-3.842-3.841-3.842c-0.952,0-1.868,0.355-2.578,1.001
			c-0.208,0.188-0.504,0.245-0.763,0.148c-0.262-0.097-0.449-0.331-0.485-0.607c-0.484-3.734-3.689-6.551-7.455-6.551
			c-4.15,0-7.525,3.376-7.525,7.526c0,0.451,0.043,0.903,0.133,1.384c0.046,0.246-0.034,0.5-0.214,0.675
			c-0.181,0.175-0.436,0.248-0.68,0.196C42.889,35.723,42.46,35.678,42.042,35.678z"/>
		<path fill="#FFFFFF" d="M55.809,54.65c-2.456,0-4.446-1.99-4.446-4.445c0-2.167,1.551-3.966,3.603-4.359
			c-0.311-0.548-0.489-1.179-0.489-1.853c0-2.081,1.687-3.768,3.768-3.768c0.975,0,1.86,0.374,2.529,0.98
			c0.432-3.334,3.276-5.911,6.728-5.911c3.751,0,6.792,3.041,6.792,6.791c0,0.428-0.044,0.844-0.12,1.249
			c0.38-0.081,0.772-0.127,1.176-0.127c3.16,0,5.722,2.562,5.722,5.722c0,3.16-2.562,5.722-5.722,5.722H55.809z"/>
		<path fill="#BDC3D8" d="M81.049,48.424c-0.18-2.094-1.595-3.922-3.524-4.755c-1.2-0.518-2.321-0.554-3.352-0.335
			c0.27-1.444,0.141-3.032-0.973-4.743c-1.314-2.021-3.492-3.364-5.901-3.294c-2.56,0.075-4.756,1.57-5.846,3.723
			c0.82-0.414,1.735-0.668,2.705-0.717c2.829-0.142,5.328,1.603,6.537,4.164c0.386,0.819,0.562,1.607,0.593,2.363
			c0.032,0.757,0.614,1.342,1.371,1.387c0.742,0.043,1.521,0.247,2.333,0.677c1.51,0.8,2.651,2.239,2.972,3.918
			c0.231,1.21,0.076,2.366-0.357,3.375C79.787,53.248,81.269,50.995,81.049,48.424z"/>
		<path fill="#21365F" d="M75.349,55.4H55.809c-2.865,0-5.196-2.331-5.196-5.196c0-2.173,1.354-4.084,3.328-4.843
			c-0.141-0.441-0.214-0.904-0.214-1.369c0-2.491,2.027-4.517,4.519-4.517c0.71,0,1.402,0.167,2.027,0.482
			c0.928-3.154,3.854-5.413,7.23-5.413c4.158,0,7.541,3.383,7.541,7.541c0,0.126-0.003,0.253-0.01,0.38
			c3.698-0.178,6.788,2.79,6.788,6.464C81.821,52.497,78.917,55.4,75.349,55.4z M58.245,40.974c-1.665,0-3.019,1.354-3.019,3.017
			c0,0.518,0.136,1.031,0.392,1.484c0.119,0.21,0.129,0.465,0.028,0.684c-0.1,0.22-0.302,0.377-0.539,0.422
			c-1.735,0.333-2.994,1.856-2.994,3.622c0,2.038,1.658,3.696,3.696,3.696h19.541c2.741,0,4.972-2.231,4.972-4.972
			c-0.001-3.075-2.83-5.539-5.991-4.861c-0.245,0.052-0.5-0.021-0.68-0.196c-0.18-0.175-0.26-0.429-0.214-0.675
			c0.071-0.38,0.106-0.754,0.106-1.111c0-3.331-2.709-6.041-6.041-6.041c-3.022,0-5.595,2.261-5.984,5.258
			c-0.036,0.276-0.222,0.511-0.484,0.607c-0.265,0.098-0.557,0.038-0.764-0.148C59.712,41.254,58.992,40.974,58.245,40.974z"/>
		<path fill="#21365F" d="M92.07,70.034H68.543c-0.414,0-0.75-0.336-0.75-0.75v-8.62c0-0.414,0.336-0.75,0.75-0.75
			c0.415,0,0.75,0.336,0.75,0.75v7.87H92.07c0.414,0,0.75,0.336,0.75,0.75C92.82,69.698,92.483,70.034,92.07,70.034z"/>
		<polygon fill="#21365F" points="70.638,61.277 68.544,57.65 66.449,61.277 		"/>
		<path fill="#21365F" d="M84.055,64.033h-9.512c-0.414,0-0.75-0.336-0.75-0.75V51.282c0-0.414,0.336-0.75,0.75-0.75
			c0.415,0,0.75,0.336,0.75,0.75v11.251h8.762c0.415,0,0.75,0.336,0.75,0.75C84.805,63.697,84.47,64.033,84.055,64.033z"/>
		<polygon fill="#21365F" points="83.442,61.189 87.069,63.284 83.442,65.378 		"/>
		<path fill="#21365F" d="M56.542,65.034H28.07c-0.415,0-0.75-0.336-0.75-0.75c0-0.414,0.335-0.75,0.75-0.75h27.722v-2.87
			c0-0.414,0.337-0.75,0.75-0.75c0.414,0,0.75,0.336,0.75,0.75v3.62C57.292,64.698,56.956,65.034,56.542,65.034z"/>
		<polygon fill="#21365F" points="54.448,61.277 56.542,57.65 58.636,61.277 		"/>
		<path fill="#21365F" d="M62.543,70.034H35.084c-0.413,0-0.75-0.336-0.75-0.75c0-0.414,0.337-0.75,0.75-0.75h26.709V51.282
			c0-0.414,0.337-0.75,0.75-0.75c0.415,0,0.75,0.336,0.75,0.75v18.002C63.293,69.698,62.957,70.034,62.543,70.034z"/>
		<polygon fill="#21365F" points="35.697,67.19 32.07,69.285 35.697,71.379 		"/>
		<circle fill="#FFFFFF" cx="62.543" cy="49.282" r="2.25"/>
		<path fill="#21365F" d="M62.543,52.282c-1.654,0-3-1.346-3-3s1.346-3,3-3c1.654,0,3,1.346,3,3S64.197,52.282,62.543,52.282z
			 M62.543,47.782c-0.827,0-1.5,0.673-1.5,1.5c0,0.827,0.673,1.5,1.5,1.5c0.828,0,1.5-0.673,1.5-1.5
			C64.043,48.455,63.37,47.782,62.543,47.782z"/>
		<circle fill="#FFFFFF" cx="74.544" cy="49.282" r="2.25"/>
		<path fill="#21365F" d="M74.544,52.282c-1.654,0-3-1.346-3-3s1.346-3,3-3c1.655,0,3,1.346,3,3S76.198,52.282,74.544,52.282z
			 M74.544,47.782c-0.827,0-1.5,0.673-1.5,1.5c0,0.827,0.673,1.5,1.5,1.5c0.828,0,1.5-0.673,1.5-1.5
			C76.044,48.455,75.371,47.782,74.544,47.782z"/>
		<path fill="#21365F" d="M98.068,37.038h-4c-0.414,0-0.75-0.336-0.75-0.75c0-0.414,0.336-0.75,0.75-0.75h4
			c0.415,0,0.75,0.336,0.75,0.75C98.818,36.702,98.483,37.038,98.068,37.038z"/>
		<path fill="#21365F" d="M96.068,39.038c-0.414,0-0.75-0.336-0.75-0.75v-4c0-0.414,0.336-0.75,0.75-0.75
			c0.415,0,0.75,0.336,0.75,0.75v4C96.818,38.702,96.483,39.038,96.068,39.038z"/>
		<circle fill="#21365F" cx="96.068" cy="42.289" r="0.75"/>
		<circle fill="#21365F" cx="96.068" cy="45.289" r="0.75"/>
		<circle fill="#21365F" cx="96.068" cy="49.289" r="0.75"/>
		<circle fill="#21365F" cx="96.068" cy="55.29" r="0.75"/>
		<path fill="#21365F" d="M26.069,87.037h-4c-0.415,0-0.75-0.336-0.75-0.75c0-0.414,0.335-0.75,0.75-0.75h4
			c0.414,0,0.75,0.336,0.75,0.75C26.819,86.701,26.483,87.037,26.069,87.037z"/>
		<path fill="#21365F" d="M24.069,89.037c-0.415,0-0.75-0.336-0.75-0.75v-4c0-0.414,0.335-0.75,0.75-0.75
			c0.414,0,0.75,0.336,0.75,0.75v4C24.819,88.701,24.483,89.037,24.069,89.037z"/>
		<circle fill="#21365F" cx="24.069" cy="80.287" r="0.75"/>
		<circle fill="#21365F" cx="24.069" cy="76.286" r="0.75"/>
		<circle fill="#21365F" cx="24.069" cy="71.286" r="0.75"/>
		<circle fill="#21365F" cx="24.069" cy="64.285" r="0.75"/>
	</g>
</g>
</svg>
