<?xml version="1.0" encoding="utf-8"?>
<!-- Generator: Adobe Illustrator 24.3.0, SVG Export Plug-In . SVG Version: 6.00 Build 0)  -->
<svg version="1.1" id="Layer_1" xmlns="http://www.w3.org/2000/svg" xmlns:xlink="http://www.w3.org/1999/xlink" x="0px" y="0px"
	 viewBox="0 0 120 120" enable-background="new 0 0 120 120" xml:space="preserve">
<g>
	<circle fill="#E8EBEC" cx="84.121" cy="49.518" r="14"/>
	<circle fill="#E8EBEC" cx="46.504" cy="83.063" r="12"/>
	<circle fill="#E8EBEC" cx="41.006" cy="44.018" r="20"/>
	<g>
		<path fill="#FFFFFF" d="M89.863,66.264c0.658-2.557,1.008-5.237,1.008-8c0-17.673-14.326-32-32-32
			c-5.566,0-10.799,1.424-15.358,3.923v36.077H89.863z"/>
		<path fill="#BDC3D8" d="M58.871,26.264c-5.566,0-10.799,1.424-15.358,3.923v6.257c3.132-1.165,6.52-1.804,10.057-1.804
			c15.944,0,28.87,12.926,28.87,28.87c0,0.929-0.048,1.847-0.134,2.754h7.558c0.658-2.557,1.008-5.237,1.008-8
			C90.871,40.591,76.545,26.264,58.871,26.264z"/>
		<path fill="#21365F" d="M89.863,67.014h-46.35c-0.414,0-0.75-0.336-0.75-0.75V30.187c0-0.273,0.149-0.526,0.39-0.657
			c4.792-2.627,10.228-4.016,15.719-4.016c18.059,0,32.75,14.691,32.75,32.75c0,2.773-0.347,5.528-1.031,8.187
			C90.504,66.783,90.205,67.014,89.863,67.014z M44.263,65.514h45.014c0.561-2.361,0.845-4.798,0.845-7.25
			c0-17.231-14.019-31.25-31.25-31.25c-5.091,0-10.132,1.251-14.608,3.621V65.514z"/>
		<path fill="#FFFFFF" d="M26.871,58.264c0,2.763,0.351,5.443,1.009,8h15.633V48.262H28.484
			C27.448,51.41,26.871,54.769,26.871,58.264z"/>
		<path fill="#BDC3D8" d="M38.513,66.264h5V48.262H28.484c-0.531,1.614-0.938,3.286-1.211,5.001h9.239c1.105,0,2,0.896,2,2V66.264z"
			/>
		<path fill="#21365F" d="M43.513,67.014H27.88c-0.342,0-0.641-0.231-0.727-0.563c-0.685-2.661-1.032-5.415-1.032-8.187
			c0-3.466,0.556-6.91,1.651-10.236c0.101-0.308,0.388-0.516,0.712-0.516h15.028c0.414,0,0.75,0.336,0.75,0.75v18.002
			C44.263,66.678,43.927,67.014,43.513,67.014z M28.467,65.514h14.296V49.012h-13.73c-0.937,3.015-1.411,6.124-1.411,9.252
			C27.621,60.714,27.905,63.151,28.467,65.514z"/>
		<path fill="#FFFFFF" d="M28.484,48.262h15.028V30.187C36.46,34.054,31.037,40.506,28.484,48.262z"/>
		<path fill="#BDC3D8" d="M43.513,36.444v-6.257c-7.053,3.867-12.476,10.319-15.028,18.075h0.573
			C32.412,42.881,37.484,38.684,43.513,36.444z"/>
		<path fill="#21365F" d="M43.513,49.012H28.484c-0.24,0-0.467-0.115-0.607-0.311c-0.142-0.194-0.181-0.445-0.105-0.674
			c2.606-7.92,8.068-14.489,15.381-18.498c0.232-0.129,0.515-0.122,0.742,0.012c0.229,0.135,0.368,0.381,0.368,0.645v18.075
			C44.263,48.676,43.927,49.012,43.513,49.012z M29.539,47.512h13.224V31.483C36.64,35.169,31.996,40.795,29.539,47.512z"/>
		<path fill="#FFFFFF" d="M27.88,66.264c2.226,8.649,7.979,15.882,15.633,20.077V66.264H27.88z"/>
		<path fill="#BDC3D8" d="M43.513,66.264H27.88c0.444,1.729,1.036,3.397,1.75,5.001h6.883c1.105,0,2,0.896,2,2v9.675
			c1.552,1.282,3.222,2.427,5,3.401V66.264z"/>
		<path fill="#21365F" d="M43.513,87.091c-0.124,0-0.248-0.03-0.36-0.093c-7.925-4.343-13.757-11.833-15.999-20.548
			c-0.058-0.225-0.008-0.463,0.134-0.646c0.143-0.183,0.361-0.29,0.593-0.29h15.633c0.414,0,0.75,0.336,0.75,0.75v20.077
			c0,0.265-0.14,0.511-0.368,0.646C43.777,87.056,43.644,87.091,43.513,87.091z M28.863,67.014
			c2.187,7.505,7.182,13.98,13.899,18.03v-18.03H28.863z"/>
		<path fill="#FFFFFF" d="M60.515,66.264H43.513v20.077c4.559,2.5,9.792,3.923,15.358,3.923c0.552,0,1.099-0.018,1.644-0.046v-8.952
			V66.264z"/>
		<path fill="#BDC3D8" d="M55.514,73.265v16.81c1.105,0.115,2.223,0.189,3.357,0.189c0.552,0,1.099-0.018,1.644-0.046V66.264H43.513
			v5.001h10.001C54.618,71.265,55.514,72.159,55.514,73.265z"/>
		<path fill="#21365F" d="M58.871,91.014c-5.492,0-10.928-1.389-15.719-4.016c-0.24-0.131-0.39-0.384-0.39-0.657V66.264
			c0-0.414,0.336-0.75,0.75-0.75h17.002c0.414,0,0.75,0.336,0.75,0.75v23.954c0,0.399-0.313,0.729-0.711,0.749
			C59.996,90.996,59.435,91.014,58.871,91.014z M44.263,85.893c4.737,2.509,10.142,3.778,15.502,3.606V67.014H44.263V85.893z"/>
		<path fill="#FFFFFF" d="M81.114,81.266c4.176-4.038,7.256-9.2,8.749-15.002H60.515v15.002H81.114z"/>
		<path fill="#BDC3D8" d="M76.325,81.266h4.789c4.176-4.038,7.256-9.2,8.749-15.002h-7.558
			C81.772,71.893,79.621,77.047,76.325,81.266z"/>
		<path fill="#21365F" d="M81.114,82.016h-20.6c-0.414,0-0.75-0.336-0.75-0.75V66.264c0-0.414,0.336-0.75,0.75-0.75h29.349
			c0.231,0,0.451,0.107,0.593,0.29c0.142,0.184,0.191,0.422,0.134,0.646c-1.501,5.831-4.597,11.14-8.954,15.354
			C81.496,81.941,81.309,82.016,81.114,82.016z M61.265,80.516h19.544c3.812-3.759,6.587-8.404,8.071-13.502H61.265V80.516z"/>
		<path fill="#FFFFFF" d="M60.515,81.266v8.952c7.991-0.404,15.208-3.74,20.6-8.952H60.515z"/>
		<path fill="#BDC3D8" d="M66.417,89.364c5.626-1.36,10.671-4.205,14.697-8.098h-4.789C73.68,84.651,70.298,87.431,66.417,89.364z"
			/>
		<path fill="#21365F" d="M60.515,90.968c-0.192,0-0.377-0.073-0.517-0.206c-0.149-0.142-0.233-0.339-0.233-0.544v-8.952
			c0-0.414,0.336-0.75,0.75-0.75h20.6c0.306,0,0.581,0.186,0.695,0.469c0.114,0.283,0.046,0.608-0.174,0.82
			c-5.699,5.509-13.187,8.763-21.083,9.162C60.54,90.968,60.527,90.968,60.515,90.968z M61.265,82.016v7.403
			c6.607-0.503,12.877-3.101,17.91-7.403H61.265z"/>
		<path fill="#FFFFFF" d="M77.587,40.117c-6.471-6.47-16.961-6.47-23.432,0c-6.471,6.471-6.471,16.961,0,23.432l11.716,11.716
			l11.716-11.716C84.058,57.078,84.058,46.588,77.587,40.117z"/>
		<path fill="#BDC3D8" d="M77.587,40.117c-6.471-6.47-16.961-6.47-23.432,0c-0.484,0.485-0.921,0.998-1.333,1.524
			c6.501-5.089,15.921-4.652,21.907,1.333c6.47,6.471,6.47,16.961,0,23.432l2.857-2.857C84.058,57.078,84.058,46.588,77.587,40.117z
			"/>
		<path fill="#21365F" d="M65.871,76.015c-0.192,0-0.384-0.073-0.53-0.22L53.625,64.079c-3.272-3.271-5.072-7.619-5.072-12.246
			c0-4.626,1.801-8.975,5.072-12.246c6.752-6.752,17.74-6.752,24.492,0l0,0c6.752,6.753,6.752,17.74,0,24.492L66.401,75.795
			C66.255,75.942,66.063,76.015,65.871,76.015z M65.871,36.023c-4.051,0-8.102,1.542-11.186,4.625
			c-2.988,2.988-4.633,6.961-4.633,11.186c0,4.226,1.644,8.198,4.633,11.186l11.186,11.186l11.186-11.186
			c6.167-6.167,6.167-16.203,0-22.371C73.973,37.565,69.922,36.023,65.871,36.023z"/>
		<circle fill="#FFFFFF" cx="65.871" cy="51.833" r="9"/>
		<path fill="#BDC3D8" d="M74.871,51.833c0-4.971-4.029-9-9-9c-3.255,0-6.098,1.733-7.678,4.322
			c1.364-0.833,2.962-1.321,4.678-1.321c4.97,0,9,4.029,9,9c0,1.715-0.489,3.312-1.322,4.678
			C73.138,57.931,74.871,55.088,74.871,51.833z"/>
		<path fill="#21365F" d="M65.871,61.583c-5.376,0-9.75-4.374-9.75-9.75c0-5.376,4.374-9.75,9.75-9.75c5.376,0,9.75,4.374,9.75,9.75
			C75.621,57.209,71.247,61.583,65.871,61.583z M65.871,43.583c-4.549,0-8.25,3.701-8.25,8.25c0,4.549,3.701,8.25,8.25,8.25
			c4.549,0,8.25-3.701,8.25-8.25C74.121,47.284,70.42,43.583,65.871,43.583z"/>
		<circle fill="#FFFFFF" cx="54.255" cy="83.063" r="2"/>
		<path fill="#21365F" d="M54.255,85.813c-1.517,0-2.75-1.233-2.75-2.75s1.233-2.75,2.75-2.75c1.517,0,2.75,1.233,2.75,2.75
			S55.771,85.813,54.255,85.813z M54.255,81.813c-0.689,0-1.25,0.561-1.25,1.25c0,0.689,0.561,1.25,1.25,1.25
			c0.689,0,1.25-0.561,1.25-1.25C55.505,82.373,54.944,81.813,54.255,81.813z"/>
		<circle fill="#FFFFFF" cx="78.257" cy="75.062" r="2"/>
		<path fill="#21365F" d="M78.257,77.812c-1.517,0-2.75-1.233-2.75-2.75s1.233-2.75,2.75-2.75s2.75,1.233,2.75,2.75
			S79.773,77.812,78.257,77.812z M78.257,73.812c-0.689,0-1.25,0.561-1.25,1.25c0,0.689,0.561,1.25,1.25,1.25
			c0.689,0,1.25-0.561,1.25-1.25C79.507,74.372,78.946,73.812,78.257,73.812z"/>
		<circle fill="#FFFFFF" cx="49.254" cy="73.062" r="2"/>
		<path fill="#21365F" d="M49.254,75.812c-1.517,0-2.75-1.233-2.75-2.75s1.233-2.75,2.75-2.75c1.517,0,2.75,1.233,2.75,2.75
			S50.77,75.812,49.254,75.812z M49.254,71.812c-0.689,0-1.25,0.561-1.25,1.25c0,0.689,0.561,1.25,1.25,1.25
			c0.689,0,1.25-0.561,1.25-1.25C50.504,72.372,49.943,71.812,49.254,71.812z"/>
		<circle fill="#FFFFFF" cx="34.253" cy="60.06" r="2"/>
		<path fill="#21365F" d="M34.253,62.81c-1.517,0-2.75-1.233-2.75-2.75s1.233-2.75,2.75-2.75c1.517,0,2.75,1.233,2.75,2.75
			S35.769,62.81,34.253,62.81z M34.253,58.81c-0.689,0-1.25,0.561-1.25,1.25c0,0.689,0.561,1.25,1.25,1.25
			c0.69,0,1.25-0.561,1.25-1.25C35.503,59.37,34.942,58.81,34.253,58.81z"/>
		<circle fill="#FFFFFF" cx="37.253" cy="42.058" r="2"/>
		<path fill="#21365F" d="M37.253,44.808c-1.517,0-2.75-1.233-2.75-2.75c0-1.517,1.233-2.75,2.75-2.75c1.517,0,2.75,1.233,2.75,2.75
			C40.003,43.575,38.769,44.808,37.253,44.808z M37.253,40.808c-0.689,0-1.25,0.561-1.25,1.25c0,0.689,0.561,1.25,1.25,1.25
			c0.69,0,1.25-0.561,1.25-1.25C38.503,41.368,37.942,40.808,37.253,40.808z"/>
		<circle fill="#FFFFFF" cx="51.255" cy="34.058" r="2"/>
		<path fill="#21365F" d="M51.254,36.808c-1.517,0-2.75-1.233-2.75-2.75c0-1.517,1.233-2.75,2.75-2.75c1.517,0,2.75,1.233,2.75,2.75
			C54.004,35.575,52.77,36.808,51.254,36.808z M51.254,32.808c-0.689,0-1.25,0.561-1.25,1.25c0,0.689,0.561,1.25,1.25,1.25
			c0.689,0,1.25-0.561,1.25-1.25C52.504,33.368,51.943,32.808,51.254,32.808z"/>
	</g>
</g>
</svg>
