<?xml version="1.0" encoding="utf-8"?>
<!-- Generator: Adobe Illustrator 24.3.0, SVG Export Plug-In . SVG Version: 6.00 Build 0)  -->
<svg version="1.1" id="Layer_1" xmlns="http://www.w3.org/2000/svg" xmlns:xlink="http://www.w3.org/1999/xlink" x="0px" y="0px"
	 viewBox="0 0 120 120" enable-background="new 0 0 120 120" xml:space="preserve">
<g>
	<circle fill="#E8EBEC" cx="86.284" cy="70.87" r="14"/>
	<circle fill="#E8EBEC" cx="52.031" cy="31.385" r="12"/>
	<circle fill="#E8EBEC" cx="38.843" cy="79.696" r="20"/>
	<g>
		<path fill="#BDC3D8" d="M84.979,38.039H32.978v52c0,1.104,0.896,2,2,2h48.001c1.104,0,2-0.896,2-2V38.039z"/>
		<path fill="#FFFFFF" d="M79.978,38.039H32.98v50h12.998c18.778,0,34-15.223,34-34V38.039z"/>
		<path fill="#21365F" d="M82.979,92.789H34.978c-1.516,0-2.75-1.234-2.75-2.75v-52c0-0.414,0.336-0.75,0.75-0.75h52.001
			c0.414,0,0.75,0.336,0.75,0.75v52C85.729,91.555,84.495,92.789,82.979,92.789z M33.728,38.789v51.25c0,0.69,0.56,1.25,1.25,1.25
			h48.001c0.689,0,1.25-0.56,1.25-1.25v-51.25H33.728z"/>
		<path fill="#BDC3D8" d="M84.979,38.039H32.98v-8c0-1.105,0.896-2,2-2h47.999c1.104,0,2,0.895,2,2V38.039z"/>
		<path fill="#FFFFFF" d="M71.978,35.039h-39v-5c0-1.105,0.896-2,2-2h43v1C77.978,32.352,75.292,35.039,71.978,35.039z"/>
		<path fill="#21365F" d="M78.983,34.039c-0.27,0-0.53-0.109-0.71-0.289c-0.19-0.19-0.29-0.45-0.29-0.711
			c0-0.26,0.1-0.52,0.29-0.709c0.37-0.37,1.04-0.37,1.41,0c0.19,0.189,0.3,0.449,0.3,0.709c0,0.261-0.11,0.521-0.3,0.711
			C79.503,33.93,79.243,34.039,78.983,34.039z"/>
		<path fill="#21365F" d="M71.983,33.039c0-0.549,0.44-1,1-1l0,0c0.55,0,1,0.451,1,1l0,0c0,0.551-0.45,1-1,1l0,0
			C72.423,34.039,71.983,33.59,71.983,33.039z"/>
		<path fill="#21365F" d="M66.983,34.039c-0.27,0-0.53-0.109-0.71-0.289c-0.19-0.19-0.29-0.45-0.29-0.711
			c0-0.26,0.1-0.52,0.29-0.709c0.37-0.37,1.04-0.37,1.41,0c0.19,0.189,0.3,0.449,0.3,0.709c0,0.261-0.11,0.521-0.3,0.711
			C67.503,33.93,67.243,34.039,66.983,34.039z"/>
		<path fill="#21365F" d="M84.979,38.789H32.98c-0.414,0-0.75-0.336-0.75-0.75v-8c0-1.518,1.233-2.75,2.75-2.75h47.999
			c1.517,0,2.75,1.232,2.75,2.75v8C85.729,38.453,85.393,38.789,84.979,38.789z M33.73,37.289h50.499v-7.25
			c0-0.689-0.561-1.25-1.25-1.25H34.98c-0.689,0-1.25,0.561-1.25,1.25V37.289z"/>
		<path fill="#FFFFFF" d="M50.977,44.037H27.976c-0.552,0-1,0.447-1,1v11c0,0.553,0.448,1,1,1h17c0.552,0,1-0.447,1-1v-7
			L50.977,44.037z"/>
		<path fill="#BDC3D8" d="M46.976,44.037l-3.414,3.414c-0.375,0.375-0.586,0.884-0.586,1.414v4.172c0,0.553-0.447,1-1,1h-15v2
			c0,0.553,0.448,1,1,1h17c0.552,0,1-0.447,1-1v-7l5-5H46.976z"/>
		<path fill="#21365F" d="M44.976,57.787h-17c-0.965,0-1.75-0.785-1.75-1.75v-11c0-0.965,0.785-1.75,1.75-1.75h23.001
			c0.303,0,0.577,0.183,0.693,0.463c0.116,0.28,0.052,0.604-0.163,0.817l-4.781,4.78v6.689
			C46.726,57.002,45.941,57.787,44.976,57.787z M27.976,44.787c-0.138,0-0.25,0.112-0.25,0.25v11c0,0.138,0.112,0.25,0.25,0.25h17
			c0.138,0,0.25-0.112,0.25-0.25v-7c0-0.199,0.079-0.39,0.22-0.53l3.72-3.72H27.976z"/>
		<path fill="#FFFFFF" d="M43.976,68.039h-16c-0.552,0-1,0.448-1,1v11c0,0.553,0.448,1,1,1h10c0.552,0,1-0.447,1-1v-7L43.976,68.039
			z"/>
		<path fill="#BDC3D8" d="M35.976,72.868v4.171c0,0.553-0.448,1-1,1h-8v2c0,0.553,0.448,1,1,1h10c0.552,0,1-0.447,1-1v-7l5-5h-4
			l-3.414,3.414C36.186,71.828,35.976,72.338,35.976,72.868z"/>
		<path fill="#21365F" d="M37.976,81.789h-10c-0.965,0-1.75-0.785-1.75-1.75v-11c0-0.965,0.785-1.75,1.75-1.75h16
			c0.303,0,0.577,0.184,0.693,0.463c0.116,0.281,0.052,0.604-0.163,0.818l-4.781,4.779v6.689
			C39.726,81.004,38.941,81.789,37.976,81.789z M27.976,68.789c-0.138,0-0.25,0.113-0.25,0.25v11c0,0.139,0.112,0.25,0.25,0.25h10
			c0.138,0,0.25-0.111,0.25-0.25v-7c0-0.198,0.079-0.389,0.22-0.529l3.72-3.721H27.976z"/>
		<circle fill="#FFFFFF" cx="69.98" cy="65.039" r="21"/>
		<path fill="#BDC3D8" d="M83.318,48.82c1.69,3.026,2.662,6.507,2.662,10.219c0,11.599-9.402,21-21,21
			c-5.065,0-9.711-1.794-13.338-4.78c3.59,6.428,10.452,10.781,18.338,10.781c11.598,0,21-9.402,21-21
			C90.98,58.506,87.996,52.671,83.318,48.82z"/>
		<path fill="#21365F" d="M69.98,86.789c-11.993,0-21.75-9.758-21.75-21.75c0-11.993,9.757-21.75,21.75-21.75
			c11.993,0,21.75,9.757,21.75,21.75C91.73,77.032,81.973,86.789,69.98,86.789z M69.98,44.789c-11.166,0-20.25,9.084-20.25,20.25
			s9.084,20.25,20.25,20.25c11.166,0,20.25-9.084,20.25-20.25S81.146,44.789,69.98,44.789z"/>
		<path fill="#21365F" d="M69.98,86.789c-0.131,0-0.263-0.035-0.38-0.104c-7.732-4.553-12.536-12.81-12.536-21.548
			c0-8.905,4.805-17.238,12.539-21.747c0.235-0.136,0.525-0.135,0.758,0.002c7.732,4.553,12.536,12.809,12.536,21.547
			c0,8.906-4.805,17.238-12.539,21.748C70.241,86.755,70.11,86.789,69.98,86.789z M69.978,44.913
			c-7.052,4.289-11.415,11.997-11.415,20.225c0,8.065,4.364,15.699,11.418,20.027c7.052-4.29,11.415-11.998,11.415-20.226
			C81.396,56.873,77.033,49.241,69.978,44.913z"/>
		<path fill="#21365F" d="M69.98,57.091c-5.81,0-11.271-2.263-15.379-6.37c-0.293-0.293-0.293-0.768,0-1.061
			c0.293-0.293,0.768-0.293,1.061,0c3.825,3.824,8.91,5.931,14.319,5.931c5.409,0,10.494-2.106,14.319-5.931
			c0.293-0.293,0.768-0.293,1.061,0c0.293,0.293,0.293,0.768,0,1.061C81.251,54.828,75.789,57.091,69.98,57.091z"/>
		<path fill="#21365F" d="M84.829,80.638c-0.192,0-0.384-0.073-0.53-0.22c-3.825-3.824-8.91-5.932-14.319-5.932
			c-5.409,0-10.494,2.107-14.318,5.932c-0.293,0.293-0.768,0.293-1.061,0c-0.293-0.293-0.293-0.768,0-1.061
			c4.108-4.108,9.57-6.371,15.379-6.371c5.81,0,11.272,2.263,15.38,6.371c0.293,0.293,0.293,0.768,0,1.061
			C85.213,80.565,85.021,80.638,84.829,80.638z"/>
		<path fill="#21365F" d="M69.979,86.789c-0.414,0-0.75-0.336-0.75-0.75v-42c0-0.414,0.336-0.75,0.75-0.75
			c0.414,0,0.75,0.336,0.75,0.75v42C70.729,86.453,70.393,86.789,69.979,86.789z"/>
		<path fill="#21365F" d="M90.979,65.789h-42c-0.414,0-0.75-0.336-0.75-0.75c0-0.414,0.336-0.75,0.75-0.75h42
			c0.414,0,0.75,0.336,0.75,0.75C91.729,65.453,91.393,65.789,90.979,65.789z"/>
		<circle fill="#FFFFFF" cx="50.23" cy="73.039" r="2.5"/>
		<path fill="#21365F" d="M50.23,76.289c-1.792,0-3.25-1.457-3.25-3.25c0-1.791,1.458-3.25,3.25-3.25c1.792,0,3.25,1.459,3.25,3.25
			C53.48,74.832,52.022,76.289,50.23,76.289z M50.23,71.289c-0.965,0-1.75,0.785-1.75,1.75c0,0.965,0.785,1.75,1.75,1.75
			c0.965,0,1.75-0.785,1.75-1.75C51.98,72.075,51.195,71.289,50.23,71.289z"/>
		<circle fill="#FFFFFF" cx="63.963" cy="65.039" r="2.5"/>
		<path fill="#21365F" d="M63.963,68.289c-1.792,0-3.25-1.459-3.25-3.25c0-1.793,1.458-3.25,3.25-3.25s3.25,1.457,3.25,3.25
			C67.213,66.83,65.755,68.289,63.963,68.289z M63.963,63.289c-0.965,0-1.75,0.785-1.75,1.75c0,0.965,0.785,1.75,1.75,1.75
			c0.965,0,1.75-0.785,1.75-1.75C65.713,64.075,64.928,63.289,63.963,63.289z"/>
		<circle fill="#FFFFFF" cx="81.213" cy="70.858" r="2.5"/>
		<path fill="#21365F" d="M81.213,74.107c-1.792,0-3.25-1.458-3.25-3.25s1.458-3.25,3.25-3.25s3.25,1.458,3.25,3.25
			S83.005,74.107,81.213,74.107z M81.213,69.107c-0.965,0-1.75,0.785-1.75,1.75c0,0.965,0.785,1.75,1.75,1.75
			c0.965,0,1.75-0.785,1.75-1.75C82.963,69.892,82.178,69.107,81.213,69.107z"/>
		<circle fill="#FFFFFF" cx="78.978" cy="54.247" r="2.5"/>
		<path fill="#21365F" d="M78.978,57.497c-1.792,0-3.25-1.458-3.25-3.25s1.458-3.25,3.25-3.25s3.25,1.458,3.25,3.25
			S80.77,57.497,78.978,57.497z M78.978,52.497c-0.965,0-1.75,0.785-1.75,1.75c0,0.965,0.785,1.75,1.75,1.75
			c0.965,0,1.75-0.785,1.75-1.75C80.728,53.283,79.943,52.497,78.978,52.497z"/>
		<circle fill="#FFFFFF" cx="55.126" cy="50.142" r="2.5"/>
		<path fill="#21365F" d="M55.126,53.392c-1.792,0-3.25-1.458-3.25-3.25s1.458-3.25,3.25-3.25s3.25,1.458,3.25,3.25
			S56.918,53.392,55.126,53.392z M55.126,48.392c-0.965,0-1.75,0.785-1.75,1.75c0,0.965,0.785,1.75,1.75,1.75
			c0.965,0,1.75-0.785,1.75-1.75C56.876,49.177,56.091,48.392,55.126,48.392z"/>
		<path fill="#21365F" d="M89.979,43.489c-0.414,0-0.75-0.336-0.75-0.75V31.039c0-0.414,0.336-0.75,0.75-0.75
			c0.414,0,0.75,0.336,0.75,0.75v11.699C90.729,43.153,90.393,43.489,89.979,43.489z"/>
		<path fill="#21365F" d="M89.979,49.788c-0.414,0-0.75-0.336-0.75-0.75v-2.3c0-0.414,0.336-0.75,0.75-0.75
			c0.414,0,0.75,0.336,0.75,0.75v2.3C90.729,49.452,90.393,49.788,89.979,49.788z"/>
	</g>
</g>
</svg>
