<?xml version="1.0" encoding="utf-8"?>
<!-- Generator: Adobe Illustrator 24.3.0, SVG Export Plug-In . SVG Version: 6.00 Build 0)  -->
<svg version="1.1" id="Layer_1" xmlns="http://www.w3.org/2000/svg" xmlns:xlink="http://www.w3.org/1999/xlink" x="0px" y="0px"
	 viewBox="0 0 120 120" enable-background="new 0 0 120 120" xml:space="preserve">
<g>
	<circle fill="#E8EBEC" cx="61.4" cy="83.81" r="14"/>
	<circle fill="#E8EBEC" cx="31.903" cy="52.792" r="12"/>
	<circle fill="#E8EBEC" cx="79.224" cy="41.27" r="20"/>
	<g>
		<path fill="#BDC3D8" d="M69.902,90.024h-32c-5.523,0-10-4.477-10-10v-32c0-5.523,4.477-10,10-10h32c5.522,0,10,4.477,10,10v32
			C79.902,85.548,75.425,90.024,69.902,90.024z"/>
		<path fill="#FFFFFF" d="M54.902,85.024h-19c-4.418,0-8-3.582-8-8v-29c0-5.523,4.477-10,10-10h29c4.418,0,8,3.582,8,8v19
			C74.902,76.07,65.947,85.024,54.902,85.024z"/>
		<path fill="#21365F" d="M69.902,90.774h-32c-5.928,0-10.75-4.822-10.75-10.75v-32c0-5.928,4.822-10.75,10.75-10.75h32
			c5.928,0,10.75,4.822,10.75,10.75v32C80.652,85.952,75.83,90.774,69.902,90.774z M37.902,38.774c-5.101,0-9.25,4.149-9.25,9.25v32
			c0,5.101,4.149,9.25,9.25,9.25h32c5.1,0,9.25-4.149,9.25-9.25v-32c0-5.101-4.15-9.25-9.25-9.25H37.902z"/>
		<path fill="#FFFFFF" d="M53.899,47.027c-9.389,0-17,7.611-17,17c0,3.019,0.795,5.848,2.175,8.305l-2.175,8.695l8.696-2.174
			c2.457,1.379,5.286,2.174,8.304,2.174c9.39,0,17-7.611,17-17C70.899,54.639,63.289,47.027,53.899,47.027z"/>
		<path fill="#BDC3D8" d="M68.482,55.322c0.525,2.362,0.604,4.893-0.053,7.546c-1.921,7.763-9.027,13.381-17.021,13.151
			c-2.479-0.071-4.823-0.678-6.927-1.703c-0.625-0.304-1.345-0.35-2.02-0.181l-4.095,1.024l-1.468,5.867l8.696-2.174
			c2.264,1.271,4.844,2.045,7.597,2.159c9.386,0.388,17.65-7.488,17.707-16.882C70.919,60.906,70.024,57.898,68.482,55.322z"/>
		<path fill="#21365F" d="M36.899,81.777c-0.196,0-0.388-0.077-0.53-0.22c-0.187-0.187-0.262-0.457-0.197-0.712l2.104-8.41
			c-1.392-2.58-2.126-5.48-2.126-8.408c0-9.787,7.963-17.75,17.75-17.75s17.75,7.963,17.75,17.75s-7.963,17.75-17.75,17.75
			c-2.927,0-5.826-0.733-8.407-2.125l-8.411,2.103C37.021,81.769,36.96,81.777,36.899,81.777z M45.596,78.103
			c0.128,0,0.254,0.032,0.367,0.096c2.422,1.359,5.167,2.078,7.937,2.078c8.96,0,16.25-7.29,16.25-16.25
			c0-8.96-7.29-16.25-16.25-16.25c-8.96,0-16.25,7.29-16.25,16.25c0,2.771,0.719,5.516,2.079,7.938
			c0.094,0.167,0.12,0.363,0.073,0.549l-1.871,7.482l7.483-1.87C45.474,78.111,45.535,78.103,45.596,78.103z"/>
		<circle fill="#FFFFFF" cx="53.899" cy="64.027" r="2.25"/>
		<path fill="#21365F" d="M53.899,67.027c-1.654,0-3-1.346-3-3c0-1.654,1.346-3,3-3s3,1.346,3,3
			C56.899,65.681,55.554,67.027,53.899,67.027z M53.899,62.527c-0.827,0-1.5,0.673-1.5,1.5c0,0.827,0.673,1.5,1.5,1.5
			c0.827,0,1.5-0.673,1.5-1.5C55.399,63.2,54.726,62.527,53.899,62.527z"/>
		<circle fill="#FFFFFF" cx="44.899" cy="64.027" r="2.25"/>
		<path fill="#21365F" d="M44.898,67.027c-1.654,0-3-1.346-3-3c0-1.654,1.346-3,3-3c1.654,0,3,1.346,3,3
			C47.898,65.681,46.553,67.027,44.898,67.027z M44.898,62.527c-0.827,0-1.5,0.673-1.5,1.5c0,0.827,0.673,1.5,1.5,1.5
			c0.827,0,1.5-0.673,1.5-1.5C46.398,63.2,45.725,62.527,44.898,62.527z"/>
		<circle fill="#FFFFFF" cx="62.9" cy="64.027" r="2.25"/>
		<path fill="#21365F" d="M62.9,67.027c-1.654,0-3-1.346-3-3c0-1.654,1.346-3,3-3s3,1.346,3,3
			C65.9,65.681,64.555,67.027,62.9,67.027z M62.9,62.527c-0.827,0-1.5,0.673-1.5,1.5c0,0.827,0.673,1.5,1.5,1.5
			c0.827,0,1.5-0.673,1.5-1.5C64.4,63.2,63.727,62.527,62.9,62.527z"/>
		<circle fill="#FFFFFF" cx="79.902" cy="38.024" r="12"/>
		<path fill="#BDC3D8" d="M86.749,28.177c1.354,1.943,2.153,4.301,2.153,6.848c0,6.627-5.373,12-12,12
			c-2.547,0-4.905-0.799-6.848-2.152c2.168,3.111,5.768,5.152,9.848,5.152c6.628,0,12-5.372,12-12
			C91.902,33.944,89.861,30.345,86.749,28.177z"/>
		<path fill="#21365F" d="M79.902,50.774c-7.03,0-12.75-5.72-12.75-12.75s5.72-12.75,12.75-12.75c7.03,0,12.75,5.72,12.75,12.75
			S86.932,50.774,79.902,50.774z M79.902,26.774c-6.203,0-11.25,5.047-11.25,11.25s5.047,11.25,11.25,11.25
			c6.203,0,11.25-5.047,11.25-11.25S86.105,26.774,79.902,26.774z"/>
		<path fill="#21365F" d="M79.902,44.774c-1.933,0-3.602-1.31-4.06-3.185c-0.099-0.402,0.148-0.808,0.551-0.906
			c0.396-0.097,0.808,0.147,0.906,0.551c0.293,1.201,1.363,2.04,2.603,2.04c1.476,0,2.679-1.201,2.679-2.678v-5.144
			c0-1.478-1.202-2.679-2.679-2.679c-1.477,0-2.679,1.201-2.679,2.679c0,0.414-0.336,0.75-0.75,0.75c-0.414,0-0.75-0.336-0.75-0.75
			c0-2.304,1.875-4.179,4.179-4.179c2.304,0,4.179,1.875,4.179,4.179v5.144C84.081,42.9,82.206,44.774,79.902,44.774z"/>
		<circle fill="#FFFFFF" cx="79.902" cy="35.453" r="3.429"/>
		<path fill="#BDC3D8" d="M82.284,32.994c0.021,0.151,0.047,0.302,0.047,0.459c0,1.894-1.535,3.429-3.429,3.429
			c-0.927,0-1.765-0.372-2.382-0.97c0.226,1.675,1.646,2.97,3.382,2.97c1.893,0,3.429-1.535,3.429-3.429
			C83.331,34.487,82.928,33.617,82.284,32.994z"/>
		<path fill="#21365F" d="M79.902,39.632c-2.304,0-4.179-1.875-4.179-4.179s1.875-4.179,4.179-4.179
			c2.304,0,4.179,1.875,4.179,4.179S82.206,39.632,79.902,39.632z M79.902,32.774c-1.477,0-2.679,1.202-2.679,2.679
			c0,1.477,1.202,2.679,2.679,2.679c1.476,0,2.679-1.202,2.679-2.679C82.581,33.976,81.379,32.774,79.902,32.774z"/>
		<path fill="#21365F" d="M29.902,35.893c-0.414,0-0.75-0.336-0.75-0.75v-4c0-0.414,0.336-0.75,0.75-0.75
			c0.414,0,0.75,0.336,0.75,0.75v4C30.652,35.557,30.316,35.893,29.902,35.893z"/>
		<path fill="#21365F" d="M31.902,33.893h-4c-0.414,0-0.75-0.336-0.75-0.75c0-0.414,0.336-0.75,0.75-0.75h4
			c0.414,0,0.75,0.336,0.75,0.75C32.652,33.557,32.316,33.893,31.902,33.893z"/>
		<circle fill="#21365F" cx="35.903" cy="33.143" r="0.75"/>
		<circle fill="#21365F" cx="38.903" cy="33.143" r="0.75"/>
		<circle fill="#21365F" cx="43.903" cy="33.143" r="0.75"/>
		<circle fill="#21365F" cx="49.904" cy="33.143" r="0.75"/>
		<path fill="#21365F" d="M63.655,30.893c-0.414,0-0.75-0.336-0.75-0.75v-4c0-0.414,0.336-0.75,0.75-0.75s0.75,0.336,0.75,0.75v4
			C64.405,30.557,64.069,30.893,63.655,30.893z"/>
		<path fill="#21365F" d="M65.655,28.893h-4c-0.414,0-0.75-0.336-0.75-0.75c0-0.414,0.336-0.75,0.75-0.75h4
			c0.414,0,0.75,0.336,0.75,0.75C66.405,28.557,66.069,28.893,65.655,28.893z"/>
		<circle fill="#21365F" cx="57.655" cy="28.143" r="0.75"/>
		<circle fill="#21365F" cx="53.655" cy="28.143" r="0.75"/>
		<circle fill="#21365F" cx="48.654" cy="28.143" r="0.75"/>
		<circle fill="#21365F" cx="41.653" cy="28.143" r="0.75"/>
		<path fill="#21365F" d="M91.902,55.292h-4c-0.414,0-0.75-0.336-0.75-0.75c0-0.414,0.336-0.75,0.75-0.75h4
			c0.414,0,0.75,0.336,0.75,0.75C92.652,54.956,92.316,55.292,91.902,55.292z"/>
		<path fill="#21365F" d="M89.902,57.292c-0.414,0-0.75-0.336-0.75-0.75v-4c0-0.414,0.336-0.75,0.75-0.75
			c0.414,0,0.75,0.336,0.75,0.75v4C90.652,56.956,90.316,57.292,89.902,57.292z"/>
		<path fill="#21365F" d="M87.902,64.293h-4c-0.414,0-0.75-0.336-0.75-0.75c0-0.414,0.336-0.75,0.75-0.75h4
			c0.414,0,0.75,0.336,0.75,0.75C88.652,63.957,88.316,64.293,87.902,64.293z"/>
		<path fill="#21365F" d="M85.902,66.293c-0.414,0-0.75-0.336-0.75-0.75v-4c0-0.414,0.336-0.75,0.75-0.75
			c0.414,0,0.75,0.336,0.75,0.75v4C86.652,65.957,86.316,66.293,85.902,66.293z"/>
		<path fill="#21365F" d="M91.902,81.295h-4c-0.414,0-0.75-0.336-0.75-0.75s0.336-0.75,0.75-0.75h4c0.414,0,0.75,0.336,0.75,0.75
			S92.316,81.295,91.902,81.295z"/>
		<path fill="#21365F" d="M89.902,83.295c-0.414,0-0.75-0.336-0.75-0.75v-4c0-0.414,0.336-0.75,0.75-0.75
			c0.414,0,0.75,0.336,0.75,0.75v4C90.652,82.959,90.316,83.295,89.902,83.295z"/>
	</g>
</g>
</svg>
