<?xml version="1.0" encoding="utf-8"?>
<!-- Generator: Adobe Illustrator 24.3.0, SVG Export Plug-In . SVG Version: 6.00 Build 0)  -->
<svg version="1.1" id="Layer_1" xmlns="http://www.w3.org/2000/svg" xmlns:xlink="http://www.w3.org/1999/xlink" x="0px" y="0px"
	 viewBox="0 0 120 120" enable-background="new 0 0 120 120" xml:space="preserve">
<g>
	<circle fill="#E8EBEC" cx="50.65" cy="82.318" r="14"/>
	<circle fill="#E8EBEC" cx="32.188" cy="52.621" r="12"/>
	<circle fill="#E8EBEC" cx="78.939" cy="52.818" r="20"/>
	<g>
		<path fill="#21365F" d="M90.938,88.319h-64c-0.414,0-0.75-0.336-0.75-0.75c0-0.414,0.336-0.75,0.75-0.75h64
			c0.414,0,0.75,0.336,0.75,0.75C91.688,87.983,91.352,88.319,90.938,88.319z"/>
		<polygon fill="#FFFFFF" points="86.938,87.569 30.938,87.569 30.938,53.319 58.938,30.569 86.938,53.319 		"/>
		<path fill="#BDC3D8" d="M86.938,53.319l-28-22.75l-3.11,2.527l24.221,19.68c1.168,0.949,1.847,2.375,1.847,3.88v30.913h5.042
			V53.319z"/>
		<path fill="#21365F" d="M86.938,88.319h-56c-0.414,0-0.75-0.336-0.75-0.75v-34.25c0-0.227,0.101-0.439,0.277-0.582l28-22.75
			c0.276-0.224,0.67-0.224,0.946,0l28,22.75c0.175,0.143,0.277,0.355,0.277,0.582v34.25C87.688,87.983,87.352,88.319,86.938,88.319z
			 M31.688,86.819h54.5V53.677l-27.25-22.141l-27.25,22.141V86.819z"/>
		<polygon fill="#FFFFFF" points="26.938,56.569 58.938,30.569 90.938,56.569 90.938,49.569 58.938,23.569 26.938,49.569 		"/>
		<path fill="#BDC3D8" d="M90.938,53.28v-3.711l-32-26l-32,26v2.536l30.016-24.388c0.735-0.598,1.788-0.598,2.522,0L90.938,53.28z"
			/>
		<path fill="#21365F" d="M90.938,57.319c-0.169,0-0.337-0.057-0.473-0.168L58.938,31.536L27.411,57.151
			c-0.226,0.182-0.536,0.219-0.795,0.096c-0.261-0.125-0.428-0.389-0.428-0.678v-7c0-0.227,0.101-0.439,0.277-0.582l32-26
			c0.276-0.225,0.67-0.225,0.946,0l32,26c0.175,0.143,0.277,0.355,0.277,0.582v7c0,0.289-0.167,0.553-0.428,0.678
			C91.158,57.296,91.047,57.319,90.938,57.319z M58.938,29.819c0.167,0,0.335,0.057,0.473,0.168l30.777,25.006v-5.067l-31.25-25.391
			l-31.25,25.391v5.067l30.777-25.006C58.603,29.876,58.771,29.819,58.938,29.819z"/>
		<path fill="#FFFFFF" d="M58.938,62.268c1.822,0,3.3,1.477,3.3,3.299c0,1.823-1.478,3.301-3.3,3.301c-1.823,0-3.3-1.478-3.3-3.301
			C55.638,63.745,57.115,62.268,58.938,62.268z"/>
		<path fill="#BDC3D8" d="M56.472,63.395c0.089-0.008,0.175-0.027,0.266-0.027c1.822,0,3.3,1.478,3.3,3.3
			c0,0.837-0.321,1.591-0.834,2.173c1.696-0.137,3.035-1.541,3.035-3.273c0-1.822-1.478-3.299-3.3-3.299
			C57.952,62.268,57.077,62.71,56.472,63.395z"/>
		<path fill="#21365F" d="M58.938,69.618c-2.233,0-4.05-1.817-4.05-4.051c0-2.232,1.817-4.049,4.05-4.049s4.05,1.816,4.05,4.049
			C62.988,67.801,61.171,69.618,58.938,69.618z M58.938,63.018c-1.406,0-2.55,1.144-2.55,2.549c0,1.406,1.144,2.551,2.55,2.551
			c1.406,0,2.55-1.145,2.55-2.551C61.488,64.162,60.344,63.018,58.938,63.018z"/>
		<path fill="#21365F" d="M52.716,72.54c-0.192,0-0.384-0.073-0.53-0.22c-3.724-3.724-3.724-9.782,0-13.505
			c0.293-0.293,0.768-0.293,1.061,0c0.293,0.293,0.293,0.768,0,1.061c-3.139,3.139-3.139,8.245,0,11.384
			c0.293,0.293,0.293,0.767,0,1.06C53.1,72.467,52.908,72.54,52.716,72.54z"/>
		<path fill="#21365F" d="M48.827,76.429c-0.192,0-0.384-0.072-0.53-0.219c-5.867-5.868-5.867-15.416,0-21.283
			c0.293-0.293,0.767-0.293,1.06,0c0.293,0.293,0.293,0.768,0,1.061c-5.282,5.283-5.282,13.879,0,19.162
			c0.293,0.293,0.293,0.768,0,1.061C49.211,76.356,49.019,76.429,48.827,76.429z"/>
		<path fill="#21365F" d="M44.938,80.317c-0.192,0-0.384-0.072-0.53-0.219c-8.012-8.013-8.012-21.049,0-29.061
			c0.293-0.293,0.768-0.293,1.061,0c0.293,0.293,0.293,0.768,0,1.061c-7.427,7.427-7.427,19.512,0,26.939
			c0.293,0.293,0.293,0.768,0,1.061C45.322,80.245,45.13,80.317,44.938,80.317z"/>
		<path fill="#21365F" d="M65.16,72.54c-0.192,0-0.384-0.073-0.53-0.22c-0.293-0.293-0.293-0.768,0-1.06
			c3.139-3.139,3.139-8.245,0-11.384c-0.293-0.293-0.293-0.768,0-1.061c0.293-0.293,0.768-0.293,1.061,0
			c3.724,3.723,3.724,9.781,0,13.505C65.544,72.467,65.352,72.54,65.16,72.54z"/>
		<path fill="#21365F" d="M69.049,76.429c-0.192,0-0.384-0.072-0.53-0.219c-0.293-0.293-0.293-0.768,0-1.061
			c5.283-5.283,5.283-13.879,0-19.162c-0.293-0.293-0.293-0.768,0-1.061c0.293-0.293,0.768-0.293,1.061,0
			c5.868,5.867,5.868,15.415,0,21.283C69.433,76.356,69.241,76.429,69.049,76.429z"/>
		<path fill="#21365F" d="M72.938,80.317c-0.192,0-0.384-0.072-0.53-0.219c-0.293-0.293-0.293-0.768,0-1.061
			c7.427-7.428,7.427-19.513,0-26.939c-0.293-0.293-0.293-0.768,0-1.061c0.293-0.293,0.768-0.293,1.061,0
			c8.012,8.012,8.012,21.048,0,29.061C73.322,80.245,73.13,80.317,72.938,80.317z"/>
		<polygon fill="#BDC3D8" points="47.49,32.87 39.49,39.37 39.49,23.569 47.49,23.569 		"/>
		<path fill="#FFFFFF" d="M44.49,35.307l-5,4.062V26.569h4c0.552,0,1,0.447,1,1V35.307z"/>
		<path fill="#21365F" d="M39.49,40.12c-0.109,0-0.22-0.023-0.322-0.072c-0.261-0.125-0.428-0.389-0.428-0.678V23.569
			c0-0.414,0.336-0.75,0.75-0.75h8c0.414,0,0.75,0.336,0.75,0.75v9.301c0,0.227-0.102,0.439-0.277,0.582l-8,6.5
			C39.827,40.063,39.659,40.12,39.49,40.12z M40.24,24.319v13.475l6.5-5.281v-8.193H40.24z M47.49,32.87h0.01H47.49z"/>
		<path fill="#21365F" d="M49.49,24.319h-12c-0.414,0-0.75-0.336-0.75-0.75c0-0.414,0.336-0.75,0.75-0.75h12
			c0.414,0,0.75,0.336,0.75,0.75C50.24,23.983,49.904,24.319,49.49,24.319z"/>
		<path fill="#21365F" d="M58.935,84.318H47.236c-0.414,0-0.75-0.336-0.75-0.75c0-0.414,0.336-0.75,0.75-0.75h11.699
			c0.414,0,0.75,0.336,0.75,0.75C59.685,83.982,59.349,84.318,58.935,84.318z"/>
		<path fill="#21365F" d="M43.236,84.318h-2.3c-0.414,0-0.75-0.336-0.75-0.75c0-0.414,0.336-0.75,0.75-0.75h2.3
			c0.414,0,0.75,0.336,0.75,0.75C43.986,83.982,43.65,84.318,43.236,84.318z"/>
		<path fill="#21365F" d="M69.386,44.809c-0.166,0-0.334-0.055-0.473-0.168l-1.979-1.607c-0.321-0.262-0.37-0.734-0.109-1.056
			c0.26-0.321,0.733-0.37,1.055-0.108l1.979,1.607c0.321,0.262,0.37,0.733,0.109,1.055C69.821,44.715,69.605,44.809,69.386,44.809z"
			/>
		<path fill="#21365F" d="M64.475,40.819c-0.166,0-0.333-0.055-0.473-0.168l-5.064-4.115l-5.064,4.115
			c-0.323,0.26-0.795,0.211-1.055-0.109c-0.261-0.321-0.212-0.793,0.109-1.055l5.538-4.5c0.276-0.223,0.67-0.223,0.946,0l5.537,4.5
			c0.321,0.262,0.37,0.733,0.109,1.055C64.909,40.724,64.693,40.819,64.475,40.819z"/>
	</g>
</g>
</svg>
