<?xml version="1.0" encoding="utf-8"?>
<!-- Generator: Adobe Illustrator 24.3.0, SVG Export Plug-In . SVG Version: 6.00 Build 0)  -->
<svg version="1.1" id="Layer_1" xmlns="http://www.w3.org/2000/svg" xmlns:xlink="http://www.w3.org/1999/xlink" x="0px" y="0px"
	 viewBox="0 0 120 120" enable-background="new 0 0 120 120" xml:space="preserve">
<g>
	<circle fill="#E8EBEC" cx="83.688" cy="60.219" r="14"/>
	<circle fill="#E8EBEC" cx="57.688" cy="86.346" r="12"/>
	<circle fill="#E8EBEC" cx="41.439" cy="40.735" r="20"/>
	<g>
		<path fill="#BDC3D8" d="M44.69,90.596h36c2.209,0,4-1.791,4-4v-56c0-2.209-1.791-4-4-4h-36c-2.209,0-4,1.791-4,4v56
			C40.69,88.805,42.481,90.596,44.69,90.596z"/>
		<path fill="#FFFFFF" d="M40.69,86.596h36c2.209,0,4-1.791,4-4v-52c0-2.209-1.791-4-4-4h-32c-2.209,0-4,1.791-4,4V86.596z"/>
		<path fill="#21365F" d="M80.69,91.346h-36c-2.619,0-4.75-2.131-4.75-4.75v-56c0-2.619,2.131-4.75,4.75-4.75h36
			c2.619,0,4.75,2.131,4.75,4.75v56C85.44,89.215,83.309,91.346,80.69,91.346z M44.69,27.346c-1.792,0-3.25,1.458-3.25,3.25v56
			c0,1.792,1.458,3.25,3.25,3.25h36c1.792,0,3.25-1.458,3.25-3.25v-56c0-1.792-1.458-3.25-3.25-3.25H44.69z"/>
		<path fill="#BDC3D8" d="M42.69,82.596h40c1.104,0,2-0.896,2-2v-44c0-1.104-0.896-2-2-2h-40c-1.104,0-2,0.896-2,2v44
			C40.69,81.701,41.586,82.596,42.69,82.596z"/>
		<path fill="#FFFFFF" d="M40.69,79.596h24.999c4.971,0,9-4.029,9-9v-36H42.69c-1.104,0-2,0.896-2,2V79.596z"/>
		<path fill="#21365F" d="M82.69,83.346h-40c-1.517,0-2.75-1.233-2.75-2.75v-44c0-1.517,1.233-2.75,2.75-2.75h40
			c1.517,0,2.75,1.233,2.75,2.75v44C85.44,82.113,84.207,83.346,82.69,83.346z M42.69,35.346c-0.689,0-1.25,0.561-1.25,1.25v44
			c0,0.689,0.561,1.25,1.25,1.25h40c0.689,0,1.25-0.561,1.25-1.25v-44c0-0.689-0.561-1.25-1.25-1.25H42.69z"/>
		<path fill="#21365F" d="M68.26,31.346h-10c-0.414,0-0.75-0.336-0.75-0.75c0-0.414,0.336-0.75,0.75-0.75h10
			c0.414,0,0.75,0.336,0.75,0.75C69.01,31.01,68.674,31.346,68.26,31.346z"/>
		<path fill="#21365F" d="M65.26,87.346h-4c-0.414,0-0.75-0.336-0.75-0.75c0-0.414,0.336-0.75,0.75-0.75h4
			c0.414,0,0.75,0.336,0.75,0.75C66.01,87.01,65.674,87.346,65.26,87.346z"/>
		<path fill="#21365F" d="M75.261,87.346h-4c-0.414,0-0.75-0.336-0.75-0.75c0-0.414,0.336-0.75,0.75-0.75h4
			c0.414,0,0.75,0.336,0.75,0.75C76.011,87.01,75.675,87.346,75.261,87.346z"/>
		<path fill="#21365F" d="M55.259,87.346h-4c-0.414,0-0.75-0.336-0.75-0.75c0-0.414,0.336-0.75,0.75-0.75h4
			c0.414,0,0.75,0.336,0.75,0.75C56.009,87.01,55.673,87.346,55.259,87.346z"/>
		<circle fill="#21365F" cx="72.26" cy="30.596" r="1"/>
		<path fill="#BDC3D8" d="M73.189,62.596h3c1.381,0,2.5-1.119,2.5-2.5v-3c0-1.381-1.119-2.5-2.5-2.5h-3c-1.381,0-2.5,1.119-2.5,2.5
			v3C70.689,61.477,71.808,62.596,73.189,62.596z"/>
		<path fill="#FFFFFF" d="M70.689,59.596h5c0.552,0,1-0.448,1-1v-4h-3.5c-1.381,0-2.5,1.119-2.5,2.5V59.596z"/>
		<path fill="#21365F" d="M76.189,63.346h-3c-1.792,0-3.25-1.458-3.25-3.25v-3c0-1.792,1.458-3.25,3.25-3.25h3
			c1.792,0,3.25,1.458,3.25,3.25v3C79.439,61.888,77.981,63.346,76.189,63.346z M73.189,55.346c-0.965,0-1.75,0.785-1.75,1.75v3
			c0,0.965,0.785,1.75,1.75,1.75h3c0.965,0,1.75-0.785,1.75-1.75v-3c0-0.965-0.785-1.75-1.75-1.75H73.189z"/>
		<path fill="#BDC3D8" d="M73.189,76.597h3c1.381,0,2.5-1.119,2.5-2.5v-3c0-1.38-1.119-2.5-2.5-2.5h-3c-1.381,0-2.5,1.12-2.5,2.5v3
			C70.689,75.478,71.808,76.597,73.189,76.597z"/>
		<path fill="#FFFFFF" d="M70.689,73.597h5c0.552,0,1-0.447,1-1v-4h-3.5c-1.381,0-2.5,1.12-2.5,2.5V73.597z"/>
		<path fill="#21365F" d="M76.189,77.347h-3c-1.792,0-3.25-1.458-3.25-3.25v-3c0-1.792,1.458-3.25,3.25-3.25h3
			c1.792,0,3.25,1.458,3.25,3.25v3C79.439,75.889,77.981,77.347,76.189,77.347z M73.189,69.347c-0.965,0-1.75,0.785-1.75,1.75v3
			c0,0.965,0.785,1.75,1.75,1.75h3c0.965,0,1.75-0.785,1.75-1.75v-3c0-0.965-0.785-1.75-1.75-1.75H73.189z"/>
		<path fill="#BDC3D8" d="M73.189,48.596h3c1.381,0,2.5-1.119,2.5-2.5v-3c0-1.381-1.119-2.5-2.5-2.5h-3c-1.381,0-2.5,1.119-2.5,2.5
			v3C70.689,47.477,71.808,48.596,73.189,48.596z"/>
		<path fill="#FFFFFF" d="M70.689,45.596h5c0.552,0,1-0.448,1-1v-4h-3.5c-1.381,0-2.5,1.119-2.5,2.5V45.596z"/>
		<path fill="#21365F" d="M76.189,49.346h-3c-1.792,0-3.25-1.458-3.25-3.25v-3c0-1.792,1.458-3.25,3.25-3.25h3
			c1.792,0,3.25,1.458,3.25,3.25v3C79.439,47.888,77.981,49.346,76.189,49.346z M73.189,41.346c-0.965,0-1.75,0.785-1.75,1.75v3
			c0,0.965,0.785,1.75,1.75,1.75h3c0.965,0,1.75-0.785,1.75-1.75v-3c0-0.965-0.785-1.75-1.75-1.75H73.189z"/>
		<path fill="#21365F" d="M36.689,34.345h-4c-0.414,0-0.75-0.336-0.75-0.75s0.336-0.75,0.75-0.75h4c0.414,0,0.75,0.336,0.75,0.75
			S37.103,34.345,36.689,34.345z"/>
		<path fill="#21365F" d="M34.689,36.345c-0.414,0-0.75-0.336-0.75-0.75v-4c0-0.414,0.336-0.75,0.75-0.75
			c0.414,0,0.75,0.336,0.75,0.75v4C35.439,36.009,35.103,36.345,34.689,36.345z"/>
		<path fill="#21365F" d="M32.688,82.35h-4c-0.414,0-0.75-0.336-0.75-0.75c0-0.414,0.336-0.75,0.75-0.75h4
			c0.414,0,0.75,0.336,0.75,0.75C33.438,82.014,33.102,82.35,32.688,82.35z"/>
		<path fill="#21365F" d="M30.688,84.35c-0.414,0-0.75-0.336-0.75-0.75v-4c0-0.414,0.336-0.75,0.75-0.75
			c0.414,0,0.75,0.336,0.75,0.75v4C31.438,84.014,31.102,84.35,30.688,84.35z"/>
		<path fill="#21365F" d="M36.689,89.351h-4c-0.414,0-0.75-0.336-0.75-0.75c0-0.414,0.336-0.75,0.75-0.75h4
			c0.414,0,0.75,0.336,0.75,0.75C37.439,89.015,37.103,89.351,36.689,89.351z"/>
		<path fill="#21365F" d="M34.689,91.351c-0.414,0-0.75-0.336-0.75-0.75v-4c0-0.414,0.336-0.75,0.75-0.75
			c0.414,0,0.75,0.336,0.75,0.75v4C35.439,91.015,35.103,91.351,34.689,91.351z"/>
		<path fill="#21365F" d="M92.69,76.891h-4c-0.414,0-0.75-0.336-0.75-0.75c0-0.414,0.336-0.75,0.75-0.75h4
			c0.414,0,0.75,0.336,0.75,0.75C93.44,76.555,93.104,76.891,92.69,76.891z"/>
		<path fill="#21365F" d="M90.69,78.891c-0.414,0-0.75-0.336-0.75-0.75v-4c0-0.414,0.336-0.75,0.75-0.75
			c0.414,0,0.75,0.336,0.75,0.75v4C91.44,78.555,91.104,78.891,90.69,78.891z"/>
		<circle fill="#21365F" cx="90.69" cy="70.141" r="0.75"/>
		<circle fill="#21365F" cx="90.69" cy="67.141" r="0.75"/>
		<circle fill="#21365F" cx="90.69" cy="62.14" r="0.75"/>
		<circle fill="#21365F" cx="90.69" cy="56.14" r="0.75"/>
		<path fill="#BDC3D8" d="M33.689,76.596h26c2.761,0,5-2.238,5-5v-26c0-2.762-2.239-5-5-5h-26c-2.762,0-5,2.238-5,5v26
			C28.689,74.358,30.927,76.596,33.689,76.596z"/>
		<path fill="#FFFFFF" d="M28.689,70.596h19c6.075,0,11-4.925,11-11v-19h-25c-2.762,0-5,2.238-5,5V70.596z"/>
		<path fill="#21365F" d="M59.688,77.346h-26c-3.17,0-5.75-2.579-5.75-5.75v-26c0-3.171,2.58-5.75,5.75-5.75h26
			c3.17,0,5.75,2.579,5.75,5.75v26C65.438,74.767,62.859,77.346,59.688,77.346z M33.688,41.346c-2.343,0-4.25,1.906-4.25,4.25v26
			c0,2.344,1.907,4.25,4.25,4.25h26c2.343,0,4.25-1.906,4.25-4.25v-26c0-2.344-1.907-4.25-4.25-4.25H33.688z"/>
		<path fill="#21365F" d="M58.816,66.346c-0.127,0-0.257-0.032-0.375-0.101c-0.358-0.207-0.481-0.666-0.274-1.024
			c2.363-4.088,2.362-9.165-0.001-13.252c-0.207-0.358-0.084-0.817,0.274-1.024c0.358-0.207,0.817-0.086,1.025,0.274
			c2.631,4.549,2.631,10.202,0.001,14.752C59.327,66.212,59.075,66.346,58.816,66.346z"/>
		<path fill="#21365F" d="M34.56,66.345c-0.259,0-0.511-0.134-0.65-0.375c-2.63-4.549-2.629-10.202,0.001-14.751
			c0.208-0.36,0.667-0.481,1.025-0.274c0.358,0.207,0.481,0.666,0.274,1.024c-2.363,4.087-2.363,9.164-0.001,13.251
			c0.207,0.358,0.084,0.817-0.274,1.024C34.817,66.313,34.688,66.345,34.56,66.345z"/>
		<circle fill="#FFFFFF" cx="46.689" cy="58.596" r="10"/>
		<path fill="#BDC3D8" d="M53.881,51.659c0.518,1.208,0.807,2.539,0.807,3.938c0,5.522-4.477,10-10,10
			c-2.826,0-5.374-1.178-7.192-3.062c1.529,3.564,5.068,6.062,9.193,6.062c5.522,0,10-4.478,10-10
			C56.689,55.9,55.616,53.457,53.881,51.659z"/>
		<path fill="#21365F" d="M46.688,69.346c-5.928,0-10.75-4.822-10.75-10.75c0-5.928,4.822-10.75,10.75-10.75
			c5.928,0,10.75,4.822,10.75,10.75C57.438,64.524,52.616,69.346,46.688,69.346z M46.688,49.346c-5.101,0-9.25,4.149-9.25,9.25
			s4.149,9.25,9.25,9.25s9.25-4.149,9.25-9.25S51.789,49.346,46.688,49.346z"/>
		<polygon fill="#BDC3D8" points="44.141,53.096 44.141,64.096 52.141,58.596 		"/>
		<polygon fill="#FFFFFF" points="44.141,53.096 44.141,64.096 48.481,56.079 		"/>
		<path fill="#21365F" d="M44.141,64.846c-0.12,0-0.239-0.028-0.349-0.086c-0.247-0.13-0.401-0.386-0.401-0.664v-11
			c0-0.278,0.154-0.534,0.401-0.664c0.247-0.129,0.544-0.112,0.774,0.046l8,5.5c0.204,0.14,0.325,0.371,0.325,0.618
			c0,0.247-0.122,0.479-0.325,0.618l-8,5.5C44.438,64.802,44.29,64.846,44.141,64.846z M44.891,54.522v8.149l5.926-4.074
			L44.891,54.522z"/>
		<circle fill="#21365F" cx="60.688" cy="44.596" r="1"/>
	</g>
</g>
</svg>
