<?xml version="1.0" encoding="utf-8"?>
<!-- Generator: Adobe Illustrator 24.3.0, SVG Export Plug-In . SVG Version: 6.00 Build 0)  -->
<svg version="1.1" id="Layer_1" xmlns="http://www.w3.org/2000/svg" xmlns:xlink="http://www.w3.org/1999/xlink" x="0px" y="0px"
	 viewBox="0 0 120 120" enable-background="new 0 0 120 120" xml:space="preserve">
<g>
	<circle fill="#E8EBEC" cx="84.827" cy="75.918" r="14"/>
	<circle fill="#E8EBEC" cx="59.517" cy="32.227" r="12"/>
	<circle fill="#E8EBEC" cx="40.3" cy="78.853" r="20"/>
	<g>
		<path fill="#21365F" d="M81.654,84.736h-1.385c-0.414,0-0.75-0.336-0.75-0.75s0.336-0.75,0.75-0.75h1.385
			c0.414,0,0.75,0.336,0.75,0.75S82.068,84.736,81.654,84.736z"/>
		<path fill="#21365F" d="M86.269,84.736h-1.384c-0.414,0-0.75-0.336-0.75-0.75s0.336-0.75,0.75-0.75h1.384
			c0.414,0,0.75,0.336,0.75,0.75S86.683,84.736,86.269,84.736z"/>
		<path fill="#21365F" d="M83.269,87.736c-0.414,0-0.75-0.336-0.75-0.75v-1.385c0-0.414,0.336-0.75,0.75-0.75
			c0.414,0,0.75,0.336,0.75,0.75v1.385C84.019,87.4,83.683,87.736,83.269,87.736z"/>
		<path fill="#21365F" d="M83.269,83.121c-0.414,0-0.75-0.336-0.75-0.75v-1.385c0-0.414,0.336-0.75,0.75-0.75
			c0.414,0,0.75,0.336,0.75,0.75v1.385C84.019,82.785,83.683,83.121,83.269,83.121z"/>
		<path fill="#21365F" d="M89.655,38.731H88.27c-0.414,0-0.75-0.336-0.75-0.75c0-0.414,0.336-0.75,0.75-0.75h1.385
			c0.414,0,0.75,0.336,0.75,0.75C90.405,38.395,90.069,38.731,89.655,38.731z"/>
		<path fill="#21365F" d="M94.27,38.731h-1.385c-0.414,0-0.75-0.336-0.75-0.75c0-0.414,0.336-0.75,0.75-0.75h1.385
			c0.414,0,0.75,0.336,0.75,0.75C95.02,38.395,94.684,38.731,94.27,38.731z"/>
		<path fill="#21365F" d="M91.27,41.731c-0.414,0-0.75-0.336-0.75-0.75v-1.384c0-0.414,0.336-0.75,0.75-0.75
			c0.414,0,0.75,0.336,0.75,0.75v1.384C92.02,41.395,91.684,41.731,91.27,41.731z"/>
		<path fill="#21365F" d="M91.27,37.116c-0.414,0-0.75-0.336-0.75-0.75v-1.385c0-0.414,0.336-0.75,0.75-0.75
			c0.414,0,0.75,0.336,0.75,0.75v1.385C92.02,36.78,91.684,37.116,91.27,37.116z"/>
		<path fill="#21365F" d="M79.654,31.731h-1.385c-0.414,0-0.75-0.336-0.75-0.75c0-0.414,0.336-0.75,0.75-0.75h1.385
			c0.414,0,0.75,0.336,0.75,0.75C80.404,31.395,80.068,31.731,79.654,31.731z"/>
		<path fill="#21365F" d="M84.269,31.731h-1.385c-0.414,0-0.75-0.336-0.75-0.75c0-0.414,0.336-0.75,0.75-0.75h1.385
			c0.414,0,0.75,0.336,0.75,0.75C85.019,31.395,84.683,31.731,84.269,31.731z"/>
		<path fill="#21365F" d="M81.269,34.731c-0.414,0-0.75-0.336-0.75-0.75v-1.385c0-0.414,0.336-0.75,0.75-0.75
			c0.414,0,0.75,0.336,0.75,0.75v1.385C82.019,34.395,81.683,34.731,81.269,34.731z"/>
		<path fill="#21365F" d="M81.269,30.115c-0.414,0-0.75-0.336-0.75-0.75v-1.384c0-0.414,0.336-0.75,0.75-0.75
			c0.414,0,0.75,0.336,0.75,0.75v1.384C82.019,29.779,81.683,30.115,81.269,30.115z"/>
		<path fill="#BDC3D8" d="M70.268,91.976h-36c-2.209,0-4-1.79-4-4v-56c0-2.209,1.791-4,4-4h36c2.209,0,4,1.791,4,4v56
			C74.268,90.186,72.477,91.976,70.268,91.976z"/>
		<path fill="#FFFFFF" d="M64.267,91.976H34.268c-2.209,0-4-1.79-4-4v-56c0-2.209,1.791-4,4-4h29.999c2.209,0,4,1.791,4,4v56
			C68.267,90.186,66.476,91.976,64.267,91.976z"/>
		<path fill="#21365F" d="M70.268,92.727h-36c-2.619,0-4.75-2.131-4.75-4.75v-56c0-2.619,2.131-4.75,4.75-4.75h36
			c2.619,0,4.75,2.131,4.75,4.75v56C75.018,90.597,72.888,92.727,70.268,92.727z M34.268,28.727c-1.792,0-3.25,1.458-3.25,3.25v56
			c0,1.792,1.458,3.25,3.25,3.25h36c1.792,0,3.25-1.458,3.25-3.25v-56c0-1.792-1.458-3.25-3.25-3.25H34.268z"/>
		<path fill="#BDC3D8" d="M72.268,83.976h-40c-1.105,0-2-0.895-2-2v-44c0-1.104,0.896-2,2-2h40c1.104,0,2,0.896,2,2v44
			C74.268,83.082,73.373,83.976,72.268,83.976z"/>
		<path fill="#FFFFFF" d="M64.267,80.976H30.268v-43c0-1.104,0.896-2,2-2h33.999v43C66.267,80.081,65.372,80.976,64.267,80.976z"/>
		<path fill="#21365F" d="M72.268,84.727h-40c-1.517,0-2.75-1.233-2.75-2.75v-44c0-1.517,1.233-2.75,2.75-2.75h40
			c1.517,0,2.75,1.233,2.75,2.75v44C75.018,83.494,73.785,84.727,72.268,84.727z M32.268,36.727c-0.69,0-1.25,0.561-1.25,1.25v44
			c0,0.689,0.561,1.25,1.25,1.25h40c0.689,0,1.25-0.561,1.25-1.25v-44c0-0.689-0.561-1.25-1.25-1.25H32.268z"/>
		<path fill="#21365F" d="M57.268,32.727h-10c-0.414,0-0.75-0.336-0.75-0.75c0-0.414,0.336-0.75,0.75-0.75h10
			c0.414,0,0.75,0.336,0.75,0.75C58.018,32.391,57.682,32.727,57.268,32.727z"/>
		<path fill="#21365F" d="M54.268,88.732h-4c-0.414,0-0.75-0.336-0.75-0.75s0.336-0.75,0.75-0.75h4c0.414,0,0.75,0.336,0.75,0.75
			S54.682,88.732,54.268,88.732z"/>
		<path fill="#21365F" d="M44.267,88.732h-4c-0.414,0-0.75-0.336-0.75-0.75s0.336-0.75,0.75-0.75h4c0.414,0,0.75,0.336,0.75,0.75
			S44.682,88.732,44.267,88.732z"/>
		<path fill="#21365F" d="M64.269,88.732h-4c-0.414,0-0.75-0.336-0.75-0.75s0.336-0.75,0.75-0.75h4c0.414,0,0.75,0.336,0.75,0.75
			S64.683,88.732,64.269,88.732z"/>
		<circle fill="#21365F" cx="61.27" cy="31.976" r="1"/>
		<path fill="#BDC3D8" d="M38.769,49.976h3c1.38,0,2.5-1.119,2.5-2.5v-3c0-1.381-1.12-2.5-2.5-2.5h-3c-1.381,0-2.5,1.119-2.5,2.5v3
			C36.269,48.857,37.389,49.976,38.769,49.976z"/>
		<path fill="#FFFFFF" d="M36.269,47.976h3.999c0.553,0,1-0.447,1-1v-4.983h-2.499c-1.381,0-2.5,1.119-2.5,2.5V47.976z"/>
		<path fill="#21365F" d="M41.769,50.726h-3c-1.792,0-3.25-1.458-3.25-3.25v-3c0-1.792,1.458-3.25,3.25-3.25h3
			c1.792,0,3.25,1.458,3.25,3.25v3C45.019,49.268,43.561,50.726,41.769,50.726z M38.769,42.726c-0.965,0-1.75,0.785-1.75,1.75v3
			c0,0.965,0.785,1.75,1.75,1.75h3c0.965,0,1.75-0.785,1.75-1.75v-3c0-0.965-0.785-1.75-1.75-1.75H38.769z"/>
		<path fill="#BDC3D8" d="M38.769,63.977h3c1.38,0,2.5-1.119,2.5-2.5v-3c0-1.381-1.12-2.5-2.5-2.5h-3c-1.381,0-2.5,1.119-2.5,2.5v3
			C36.269,62.858,37.389,63.977,38.769,63.977z"/>
		<path fill="#FFFFFF" d="M36.269,61.977h3.999c0.553,0,1-0.448,1-1v-4.983h-2.499c-1.381,0-2.5,1.119-2.5,2.5V61.977z"/>
		<path fill="#21365F" d="M41.769,64.727h-3c-1.792,0-3.25-1.458-3.25-3.25v-3c0-1.792,1.458-3.25,3.25-3.25h3
			c1.792,0,3.25,1.458,3.25,3.25v3C45.019,63.269,43.561,64.727,41.769,64.727z M38.769,56.727c-0.965,0-1.75,0.785-1.75,1.75v3
			c0,0.965,0.785,1.75,1.75,1.75h3c0.965,0,1.75-0.785,1.75-1.75v-3c0-0.965-0.785-1.75-1.75-1.75H38.769z"/>
		<path fill="#BDC3D8" d="M38.769,77.978h3c1.38,0,2.5-1.119,2.5-2.5v-3c0-1.381-1.12-2.5-2.5-2.5h-3c-1.381,0-2.5,1.119-2.5,2.5v3
			C36.269,76.859,37.389,77.978,38.769,77.978z"/>
		<path fill="#FFFFFF" d="M36.269,75.978h3.999c0.553,0,1-0.448,1-1v-4.983h-2.499c-1.381,0-2.5,1.119-2.5,2.5V75.978z"/>
		<path fill="#21365F" d="M41.769,78.728h-3c-1.792,0-3.25-1.458-3.25-3.25v-3c0-1.792,1.458-3.25,3.25-3.25h3
			c1.792,0,3.25,1.458,3.25,3.25v3C45.019,77.27,43.561,78.728,41.769,78.728z M38.769,70.728c-0.965,0-1.75,0.785-1.75,1.75v3
			c0,0.965,0.785,1.75,1.75,1.75h3c0.965,0,1.75-0.785,1.75-1.75v-3c0-0.965-0.785-1.75-1.75-1.75H38.769z"/>
		<polygon fill="#BDC3D8" points="94.27,73.976 69.269,73.976 57.268,79.977 57.268,73.976 50.269,73.976 50.269,45.977 
			94.27,45.977 		"/>
		<path fill="#21365F" d="M57.268,80.727c-0.137,0-0.274-0.037-0.395-0.112c-0.221-0.137-0.355-0.378-0.355-0.638v-5.251h-6.249
			c-0.414,0-0.75-0.336-0.75-0.75V45.977c0-0.414,0.336-0.75,0.75-0.75H94.27c0.414,0,0.75,0.336,0.75,0.75v27.999
			c0,0.414-0.336,0.75-0.75,0.75H69.446l-11.843,5.922C57.498,80.701,57.383,80.727,57.268,80.727z M51.019,73.226h6.249
			c0.414,0,0.75,0.336,0.75,0.75v4.787l10.916-5.458c0.104-0.052,0.219-0.079,0.335-0.079H93.52V46.727H51.019V73.226z"/>
		<polygon fill="#FFFFFF" points="77.158,59.976 94.27,73.976 88.655,53.551 		"/>
		<polygon fill="#FFFFFF" points="50.269,45.977 54.304,67.055 67.38,59.977 		"/>
		<polygon fill="#BDC3D8" points="50.268,73.976 57.268,73.976 57.268,79.977 69.269,73.976 94.27,73.976 72.268,55.977 		"/>
		<polygon fill="#FFFFFF" points="50.269,73.976 57.268,73.976 57.268,79.977 69.269,73.976 85.137,71.305 77.158,59.976 
			72.27,63.975 67.38,59.977 		"/>
		<path fill="#21365F" d="M57.268,80.727c-0.137,0-0.274-0.037-0.395-0.112c-0.221-0.137-0.355-0.378-0.355-0.638v-5.251h-6.25
			c-0.317,0-0.6-0.199-0.706-0.498c-0.106-0.299-0.015-0.632,0.232-0.832l22-17.998c0.275-0.226,0.674-0.226,0.949,0l22.002,17.998
			c0.246,0.2,0.338,0.533,0.231,0.832c-0.106,0.299-0.389,0.498-0.706,0.498H69.446l-11.843,5.922
			C57.498,80.701,57.383,80.727,57.268,80.727z M52.37,73.226h4.899c0.414,0,0.75,0.336,0.75,0.75v4.787l10.916-5.458
			c0.104-0.052,0.219-0.079,0.335-0.079h22.899l-19.9-16.279L52.37,73.226z"/>
		<polygon fill="#BDC3D8" points="94.27,45.976 50.268,45.976 72.27,63.975 		"/>
		<polygon fill="#FFFFFF" points="94.27,45.977 50.269,45.976 70.387,58.972 		"/>
		<path fill="#21365F" d="M72.27,64.725c-0.168,0-0.337-0.057-0.475-0.17L49.794,46.556c-0.246-0.2-0.338-0.533-0.232-0.832
			c0.107-0.299,0.389-0.498,0.706-0.498H94.27c0.317,0,0.6,0.199,0.706,0.498c0.106,0.299,0.015,0.632-0.231,0.832l-22,17.999
			C72.607,64.669,72.438,64.725,72.27,64.725z M52.37,46.726l19.9,16.28l19.899-16.28H52.37z"/>
	</g>
</g>
</svg>
