<?xml version="1.0" encoding="utf-8"?>
<!-- Generator: Adobe Illustrator 24.3.0, SVG Export Plug-In . SVG Version: 6.00 Build 0)  -->
<svg version="1.1" id="Layer_1" xmlns="http://www.w3.org/2000/svg" xmlns:xlink="http://www.w3.org/1999/xlink" x="0px" y="0px"
	 viewBox="0 0 120 120" enable-background="new 0 0 120 120" xml:space="preserve">
<g>
	<circle fill="#E8EBEC" cx="85.893" cy="67.571" r="14"/>
	<circle fill="#E8EBEC" cx="57.144" cy="32.008" r="12"/>
	<circle fill="#E8EBEC" cx="39.233" cy="79.073" r="20"/>
	<g>
		<path fill="#BDC3D8" d="M73.893,38.82h-46v46c0,1.104,0.896,2,2,2H35.2l0,6l14.001-6h22.692c1.104,0,2-0.896,2-2V38.82z"/>
		<path fill="#FFFFFF" d="M67.892,38.82H27.894v43.999h37.998c1.105,0,2-0.895,2-2V38.82z"/>
		<path fill="#21365F" d="M35.199,93.571c-0.145,0-0.289-0.042-0.413-0.124c-0.21-0.139-0.337-0.374-0.337-0.626V87.57h-4.557
			c-1.517,0-2.75-1.233-2.75-2.75V38.821c0-0.414,0.336-0.75,0.75-0.75h46c0.414,0,0.75,0.336,0.75,0.75V84.82
			c0,1.517-1.233,2.75-2.75,2.75H49.353l-13.859,5.94C35.4,93.551,35.299,93.571,35.199,93.571z M28.643,39.571V84.82
			c0,0.689,0.56,1.25,1.25,1.25h5.307c0.414,0,0.75,0.336,0.75,0.75v4.863l12.955-5.553c0.093-0.04,0.194-0.061,0.295-0.061h22.693
			c0.689,0,1.25-0.561,1.25-1.25V39.571H28.643z"/>
		<path fill="#BDC3D8" d="M73.893,38.82H27.894v-8c0-1.104,0.896-2,2-2h41.999c1.104,0,2,0.896,2,2V38.82z"/>
		<path fill="#FFFFFF" d="M67.892,35.82H27.894v-5c0-1.104,0.896-2,2-2h39.998v5C69.892,34.925,68.997,35.82,67.892,35.82z"/>
		<path fill="#21365F" d="M67.894,34.825c-0.26,0-0.52-0.11-0.71-0.3c-0.19-0.181-0.29-0.44-0.29-0.7c0-0.271,0.1-0.521,0.29-0.71
			c0.37-0.37,1.05-0.37,1.42,0c0.18,0.189,0.29,0.439,0.29,0.71c0,0.26-0.11,0.51-0.29,0.7
			C68.414,34.715,68.154,34.825,67.894,34.825z"/>
		<path fill="#21365F" d="M60.894,33.825c0-0.561,0.44-1,1-1l0,0c0.55,0,1,0.439,1,1l0,0c0,0.55-0.45,1-1,1l0,0
			C61.334,34.825,60.894,34.375,60.894,33.825z"/>
		<path fill="#21365F" d="M55.894,34.825c-0.27,0-0.52-0.11-0.71-0.3c-0.19-0.19-0.29-0.44-0.29-0.7c0-0.271,0.1-0.521,0.29-0.71
			c0.37-0.38,1.04-0.37,1.41,0c0.19,0.189,0.3,0.439,0.3,0.71c0,0.26-0.11,0.52-0.29,0.7C56.414,34.715,56.154,34.825,55.894,34.825
			z"/>
		<path fill="#21365F" d="M73.892,39.571H27.894c-0.414,0-0.75-0.336-0.75-0.75v-8c0-1.517,1.234-2.75,2.75-2.75h41.998
			c1.516,0,2.75,1.233,2.75,2.75v8C74.642,39.235,74.307,39.571,73.892,39.571z M28.644,38.071h44.498v-7.25
			c0-0.689-0.561-1.25-1.25-1.25H29.894c-0.689,0-1.25,0.561-1.25,1.25V38.071z"/>
		<path fill="#BDC3D8" d="M91.893,90.823v-4h-12v4c0,1.104,0.895,2,2,2h8C90.998,92.823,91.893,91.928,91.893,90.823z"/>
		<path fill="#FFFFFF" d="M89.893,89.823v-3h-10v4h9C89.445,90.823,89.893,90.375,89.893,89.823z"/>
		<path fill="#21365F" d="M89.893,93.573h-8c-1.517,0-2.75-1.233-2.75-2.75v-4c0-0.414,0.336-0.75,0.75-0.75h12
			c0.414,0,0.75,0.336,0.75,0.75v4C92.643,92.34,91.41,93.573,89.893,93.573z M80.643,87.573v3.25c0,0.689,0.561,1.25,1.25,1.25h8
			c0.689,0,1.25-0.561,1.25-1.25v-3.25H80.643z"/>
		<polygon fill="#BDC3D8" points="91.893,38.82 85.893,28.82 79.893,38.82 85.893,40.821 		"/>
		<polygon fill="#FFFFFF" points="89.893,35.487 85.893,28.82 81.893,35.487 85.893,36.82 		"/>
		<path fill="#21365F" d="M85.893,41.571c-0.08,0-0.16-0.013-0.237-0.038l-6-2c-0.216-0.072-0.387-0.238-0.466-0.452
			c-0.079-0.213-0.057-0.45,0.061-0.646l6-10c0.271-0.451,1.016-0.451,1.286,0l6,10c0.117,0.195,0.139,0.433,0.061,0.646
			c-0.079,0.214-0.251,0.38-0.466,0.452l-6,2C86.053,41.558,85.973,41.571,85.893,41.571z M81.017,38.405l4.876,1.625l4.876-1.625
			l-4.876-8.126L81.017,38.405z"/>
		<polygon fill="#BDC3D8" points="91.893,38.82 85.893,40.821 85.893,86.823 91.893,86.823 		"/>
		<path fill="#FFFFFF" d="M89.893,39.487l-4,1.334v43.002h3c0.552,0,1-0.448,1-1V39.487z"/>
		<path fill="#21365F" d="M91.893,87.573h-6c-0.414,0-0.75-0.336-0.75-0.75V40.821c0-0.323,0.207-0.609,0.513-0.712l6-2
			c0.229-0.075,0.48-0.038,0.676,0.103c0.196,0.141,0.312,0.367,0.312,0.608v48.002C92.643,87.237,92.307,87.573,91.893,87.573z
			 M86.643,86.073h4.5V39.862l-4.5,1.5V86.073z"/>
		<polygon fill="#BDC3D8" points="79.893,38.82 79.893,86.823 85.893,86.823 85.893,40.821 		"/>
		<path fill="#FFFFFF" d="M79.893,38.82v45.003h3c0.552,0,1-0.448,1-1V40.154L79.893,38.82z"/>
		<path fill="#21365F" d="M85.893,87.573h-6c-0.414,0-0.75-0.336-0.75-0.75V38.821c0-0.241,0.116-0.468,0.312-0.608
			c0.196-0.141,0.446-0.179,0.676-0.103l6,2c0.306,0.103,0.513,0.389,0.513,0.712v46.002C86.643,87.237,86.307,87.573,85.893,87.573
			z M80.643,86.073h4.5V41.362l-4.5-1.5V86.073z"/>
		<rect x="32.893" y="43.822" fill="#BDC3D8" width="18.999" height="15.001"/>
		<path fill="#FFFFFF" d="M39.891,55.822h-6.998V43.821h15.998v3.001C48.891,51.793,44.861,55.822,39.891,55.822z"/>
		<path fill="#21365F" d="M51.891,59.573H32.893c-0.414,0-0.75-0.336-0.75-0.75V43.822c0-0.414,0.336-0.75,0.75-0.75h18.999
			c0.414,0,0.75,0.336,0.75,0.75v15.001C52.641,59.237,52.305,59.573,51.891,59.573z M33.643,58.073h17.499V44.572H33.643V58.073z"
			/>
		<path fill="#21365F" d="M68.892,59.573H55.894c-0.414,0-0.75-0.336-0.75-0.75s0.336-0.75,0.75-0.75h12.999
			c0.414,0,0.75,0.336,0.75,0.75S69.307,59.573,68.892,59.573z"/>
		<path fill="#21365F" d="M59.892,64.573H44.2c-0.414,0-0.75-0.336-0.75-0.75c0-0.414,0.336-0.75,0.75-0.75h15.692
			c0.414,0,0.75,0.336,0.75,0.75C60.642,64.237,60.306,64.573,59.892,64.573z"/>
		<path fill="#21365F" d="M40.199,64.573h-7.307c-0.414,0-0.75-0.336-0.75-0.75c0-0.414,0.336-0.75,0.75-0.75h7.307
			c0.414,0,0.75,0.336,0.75,0.75C40.949,64.237,40.613,64.573,40.199,64.573z"/>
		<path fill="#21365F" d="M68.892,69.574H52.95c-0.414,0-0.75-0.336-0.75-0.75c0-0.414,0.336-0.75,0.75-0.75h15.942
			c0.414,0,0.75,0.336,0.75,0.75C69.642,69.238,69.307,69.574,68.892,69.574z"/>
		<path fill="#21365F" d="M48.95,69.574H32.893c-0.414,0-0.75-0.336-0.75-0.75c0-0.414,0.336-0.75,0.75-0.75H48.95
			c0.414,0,0.75,0.336,0.75,0.75C49.7,69.238,49.364,69.574,48.95,69.574z"/>
		<path fill="#21365F" d="M68.893,44.571h-13c-0.414,0-0.75-0.336-0.75-0.75c0-0.414,0.336-0.75,0.75-0.75h13
			c0.414,0,0.75,0.336,0.75,0.75C69.643,44.235,69.308,44.571,68.893,44.571z"/>
		<path fill="#21365F" d="M64.893,49.572h-8.999c-0.414,0-0.75-0.336-0.75-0.75c0-0.414,0.336-0.75,0.75-0.75h8.999
			c0.414,0,0.75,0.336,0.75,0.75C65.643,49.236,65.307,49.572,64.893,49.572z"/>
		<path fill="#21365F" d="M68.893,54.572h-5.354c-0.414,0-0.75-0.336-0.75-0.75c0-0.414,0.336-0.75,0.75-0.75h5.354
			c0.414,0,0.75,0.336,0.75,0.75C69.643,54.236,69.308,54.572,68.893,54.572z"/>
		<path fill="#21365F" d="M59.538,54.572h-3.645c-0.414,0-0.75-0.336-0.75-0.75c0-0.414,0.336-0.75,0.75-0.75h3.645
			c0.414,0,0.75,0.336,0.75,0.75C60.288,54.236,59.953,54.572,59.538,54.572z"/>
		<path fill="#21365F" d="M68.892,74.574H47.574c-0.414,0-0.75-0.336-0.75-0.75c0-0.414,0.336-0.75,0.75-0.75h21.318
			c0.414,0,0.75,0.336,0.75,0.75C69.642,74.238,69.307,74.574,68.892,74.574z"/>
		<path fill="#21365F" d="M43.574,74.574H32.893c-0.414,0-0.75-0.336-0.75-0.75c0-0.414,0.336-0.75,0.75-0.75h10.681
			c0.414,0,0.75,0.336,0.75,0.75C44.324,74.238,43.988,74.574,43.574,74.574z"/>
		<path fill="#21365F" d="M62.892,79.575h-7.191c-0.414,0-0.75-0.336-0.75-0.75c0-0.414,0.336-0.75,0.75-0.75h7.191
			c0.414,0,0.75,0.336,0.75,0.75C63.642,79.239,63.306,79.575,62.892,79.575z"/>
		<path fill="#21365F" d="M51.701,79.575H32.893c-0.414,0-0.75-0.336-0.75-0.75c0-0.414,0.336-0.75,0.75-0.75h18.808
			c0.414,0,0.75,0.336,0.75,0.75C52.451,79.239,52.115,79.575,51.701,79.575z"/>
		<path fill="#21365F" d="M39.893,49.572h-4c-0.414,0-0.75-0.336-0.75-0.75c0-0.414,0.336-0.75,0.75-0.75h4
			c0.414,0,0.75,0.336,0.75,0.75C40.643,49.236,40.307,49.572,39.893,49.572z"/>
		<path fill="#21365F" d="M37.893,51.572c-0.414,0-0.75-0.336-0.75-0.75v-4c0-0.414,0.336-0.75,0.75-0.75
			c0.414,0,0.75,0.336,0.75,0.75v4C38.643,51.236,38.307,51.572,37.893,51.572z"/>
		<path fill="#21365F" d="M46.893,54.573h-4c-0.414,0-0.75-0.336-0.75-0.75s0.336-0.75,0.75-0.75h4c0.414,0,0.75,0.336,0.75,0.75
			S47.308,54.573,46.893,54.573z"/>
		<path fill="#21365F" d="M44.893,56.573c-0.414,0-0.75-0.336-0.75-0.75v-4c0-0.414,0.336-0.75,0.75-0.75
			c0.414,0,0.75,0.336,0.75,0.75v4C45.643,56.237,45.308,56.573,44.893,56.573z"/>
	</g>
</g>
</svg>
