<?xml version="1.0" encoding="utf-8"?>
<!-- Generator: Adobe Illustrator 24.3.0, SVG Export Plug-In . SVG Version: 6.00 Build 0)  -->
<svg version="1.1" id="Layer_1" xmlns="http://www.w3.org/2000/svg" xmlns:xlink="http://www.w3.org/1999/xlink" x="0px" y="0px"
	 viewBox="0 0 120 120" enable-background="new 0 0 120 120" xml:space="preserve">
<g>
	<circle fill="#E8EBEC" cx="51.477" cy="34.665" r="14"/>
	<circle fill="#E8EBEC" cx="87.034" cy="56.816" r="12"/>
	<circle fill="#E8EBEC" cx="40.093" cy="78.415" r="20"/>
	<g>
		<ellipse fill="#FFFFFF" cx="58.785" cy="86.666" rx="22" ry="6"/>
		<path fill="#BDC3D8" d="M73.014,82.092c0.499,0.502,0.771,1.029,0.771,1.574c0,3.313-9.851,6-22,6
			c-5.428,0-10.393-0.537-14.229-1.426c2.536,2.55,11.077,4.426,21.229,4.426c12.15,0,22-2.686,22-6
			C80.785,84.833,77.766,83.193,73.014,82.092z"/>
		<path fill="#21365F" d="M58.785,93.417c-11.028,0-22.75-2.365-22.75-6.75c0-4.385,11.722-6.75,22.75-6.75s22.75,2.365,22.75,6.75
			C81.535,91.052,69.813,93.417,58.785,93.417z M58.785,81.417c-13.166,0-21.25,3.058-21.25,5.25c0,2.192,8.084,5.25,21.25,5.25
			s21.25-3.058,21.25-5.25C80.035,84.475,71.951,81.417,58.785,81.417z"/>
		<path fill="#BDC3D8" d="M88.785,28.665h-60c-1.104,0-2,0.896-2,2v41.002c0,1.104,0.896,2,2,2h17.004l13,10.999l13-10.999h16.996
			c1.104,0,2-0.896,2-2V30.665C90.785,29.561,89.889,28.665,88.785,28.665z"/>
		<path fill="#FFFFFF" d="M82.785,28.665h-54c-1.104,0-2,0.896-2,2v41.002c0,1.104,0.896,2,2,2h17.004l8.454,7.152l14.427-12.207
			c0.723-0.611,1.638-0.946,2.584-0.946h11.531c1.104,0,2-0.896,2-2V30.665C84.785,29.561,83.889,28.665,82.785,28.665z"/>
		<path fill="#21365F" d="M58.788,85.416c-0.172,0-0.345-0.06-0.484-0.178l-12.79-10.821H28.785c-1.517,0-2.75-1.233-2.75-2.75
			V30.665c0-1.517,1.233-2.75,2.75-2.75h60c1.517,0,2.75,1.233,2.75,2.75v41.002c0,1.517-1.233,2.75-2.75,2.75H72.063l-12.79,10.821
			C59.133,85.357,58.96,85.416,58.788,85.416z M28.785,29.415c-0.689,0-1.25,0.561-1.25,1.25v41.002c0,0.689,0.561,1.25,1.25,1.25
			h17.004c0.178,0,0.349,0.062,0.484,0.178l12.516,10.589l12.516-10.589c0.136-0.115,0.307-0.178,0.484-0.178h16.996
			c0.689,0,1.25-0.561,1.25-1.25V30.665c0-0.689-0.561-1.25-1.25-1.25H28.785z"/>
		<path fill="#FFFFFF" d="M75.785,47.717c0-4.998-4.091-9.051-9.136-9.051c-3.352,0-6.273,1.795-7.863,4.46
			c-1.59-2.665-4.512-4.46-7.864-4.46c-5.046,0-9.137,4.053-9.137,9.051c0,10.663,17.001,20.949,17.001,20.949
			S75.785,58.38,75.785,47.717z"/>
		<path fill="#BDC3D8" d="M66.649,38.666c-0.703,0-1.381,0.096-2.037,0.245c1.928,1.659,3.173,4.076,3.173,6.805
			c0,7.992-9.549,15.771-14.333,19.168c2.966,2.349,5.334,3.782,5.334,3.782s16.999-10.287,16.999-20.949
			C75.785,42.719,71.694,38.666,66.649,38.666z"/>
		<path fill="#21365F" d="M58.785,69.416c-0.135,0-0.269-0.036-0.389-0.108c-0.709-0.429-17.361-10.631-17.361-21.591
			c0-5.404,4.436-9.801,9.887-9.801c3.088,0,6.007,1.462,7.863,3.878c1.858-2.416,4.778-3.878,7.864-3.878
			c5.451,0,9.886,4.396,9.886,9.801c0,10.96-16.652,21.162-17.361,21.591C59.053,69.38,58.919,69.416,58.785,69.416z M50.921,39.416
			c-4.624,0-8.387,3.724-8.387,8.301c0,9.247,13.744,18.461,16.25,20.063c2.506-1.604,16.25-10.823,16.25-20.063
			c0-4.577-3.762-8.301-8.386-8.301c-2.946,0-5.713,1.569-7.22,4.096c-0.136,0.227-0.381,0.365-0.645,0.365l0,0
			c-0.265,0-0.509-0.139-0.645-0.366C56.635,40.986,53.869,39.416,50.921,39.416z"/>
		<path fill="#21365F" d="M40.786,38.416h-1.385c-0.414,0-0.75-0.336-0.75-0.75s0.336-0.75,0.75-0.75h1.385
			c0.414,0,0.75,0.336,0.75,0.75S41.2,38.416,40.786,38.416z"/>
		<path fill="#21365F" d="M36.17,38.416h-1.385c-0.414,0-0.75-0.336-0.75-0.75s0.336-0.75,0.75-0.75h1.385
			c0.414,0,0.75,0.336,0.75,0.75S36.584,38.416,36.17,38.416z"/>
		<path fill="#21365F" d="M37.786,41.416c-0.414,0-0.75-0.336-0.75-0.75v-1.385c0-0.414,0.336-0.75,0.75-0.75
			c0.414,0,0.75,0.336,0.75,0.75v1.385C38.536,41.08,38.2,41.416,37.786,41.416z"/>
		<path fill="#21365F" d="M37.786,36.801c-0.414,0-0.75-0.336-0.75-0.75v-1.385c0-0.414,0.336-0.75,0.75-0.75
			c0.414,0,0.75,0.336,0.75,0.75v1.385C38.536,36.465,38.2,36.801,37.786,36.801z"/>
		<path fill="#21365F" d="M36.786,60.418h-1.385c-0.414,0-0.75-0.336-0.75-0.75c0-0.414,0.336-0.75,0.75-0.75h1.385
			c0.414,0,0.75,0.336,0.75,0.75C37.536,60.082,37.2,60.418,36.786,60.418z"/>
		<path fill="#21365F" d="M32.169,60.418h-1.384c-0.414,0-0.75-0.336-0.75-0.75c0-0.414,0.336-0.75,0.75-0.75h1.384
			c0.414,0,0.75,0.336,0.75,0.75C32.919,60.082,32.583,60.418,32.169,60.418z"/>
		<path fill="#21365F" d="M33.786,63.418c-0.414,0-0.75-0.336-0.75-0.75v-1.385c0-0.414,0.336-0.75,0.75-0.75
			c0.414,0,0.75,0.336,0.75,0.75v1.385C34.536,63.082,34.2,63.418,33.786,63.418z"/>
		<path fill="#21365F" d="M33.786,58.803c-0.414,0-0.75-0.336-0.75-0.75v-1.385c0-0.414,0.336-0.75,0.75-0.75
			c0.414,0,0.75,0.336,0.75,0.75v1.385C34.536,58.467,34.2,58.803,33.786,58.803z"/>
		<path fill="#21365F" d="M79.789,66.419h-1.385c-0.414,0-0.75-0.336-0.75-0.75c0-0.414,0.336-0.75,0.75-0.75h1.385
			c0.414,0,0.75,0.336,0.75,0.75C80.539,66.083,80.203,66.419,79.789,66.419z"/>
		<path fill="#21365F" d="M75.174,66.419h-1.385c-0.414,0-0.75-0.336-0.75-0.75c0-0.414,0.336-0.75,0.75-0.75h1.385
			c0.414,0,0.75,0.336,0.75,0.75C75.924,66.083,75.588,66.419,75.174,66.419z"/>
		<path fill="#21365F" d="M76.789,69.419c-0.414,0-0.75-0.336-0.75-0.75v-1.385c0-0.414,0.336-0.75,0.75-0.75
			c0.414,0,0.75,0.336,0.75,0.75v1.385C77.539,69.083,77.203,69.419,76.789,69.419z"/>
		<path fill="#21365F" d="M76.789,64.803c-0.414,0-0.75-0.336-0.75-0.75v-1.384c0-0.414,0.336-0.75,0.75-0.75
			c0.414,0,0.75,0.336,0.75,0.75v1.384C77.539,64.467,77.203,64.803,76.789,64.803z"/>
		<path fill="#21365F" d="M84.79,43.416h-1.385c-0.414,0-0.75-0.336-0.75-0.75s0.336-0.75,0.75-0.75h1.385
			c0.414,0,0.75,0.336,0.75,0.75S85.204,43.416,84.79,43.416z"/>
		<path fill="#21365F" d="M80.174,43.416H78.79c-0.414,0-0.75-0.336-0.75-0.75s0.336-0.75,0.75-0.75h1.384
			c0.414,0,0.75,0.336,0.75,0.75S80.588,43.416,80.174,43.416z"/>
		<path fill="#21365F" d="M81.79,46.416c-0.414,0-0.75-0.336-0.75-0.75v-1.384c0-0.414,0.336-0.75,0.75-0.75
			c0.414,0,0.75,0.336,0.75,0.75v1.384C82.54,46.08,82.204,46.416,81.79,46.416z"/>
		<path fill="#21365F" d="M81.79,41.801c-0.414,0-0.75-0.336-0.75-0.75v-1.385c0-0.414,0.336-0.75,0.75-0.75
			c0.414,0,0.75,0.336,0.75,0.75v1.385C82.54,41.465,82.204,41.801,81.79,41.801z"/>
		<path fill="#21365F" d="M79.784,33.416H67.084c-0.414,0-0.75-0.336-0.75-0.75s0.336-0.75,0.75-0.75h12.699
			c0.414,0,0.75,0.336,0.75,0.75S80.198,33.416,79.784,33.416z"/>
		<path fill="#21365F" d="M63.084,33.416h-2.3c-0.414,0-0.75-0.336-0.75-0.75s0.336-0.75,0.75-0.75h2.3
			c0.414,0,0.75,0.336,0.75,0.75S63.498,33.416,63.084,33.416z"/>
	</g>
</g>
</svg>
