<?xml version="1.0" encoding="utf-8"?>
<!-- Generator: Adobe Illustrator 24.3.0, SVG Export Plug-In . SVG Version: 6.00 Build 0)  -->
<svg version="1.1" id="Layer_1" xmlns="http://www.w3.org/2000/svg" xmlns:xlink="http://www.w3.org/1999/xlink" x="0px" y="0px"
	 viewBox="0 0 120 120" enable-background="new 0 0 120 120" xml:space="preserve">
<g>
	<circle fill="#E8EBEC" cx="87.419" cy="49.87" r="14"/>
	<circle fill="#E8EBEC" cx="41.894" cy="32.386" r="12"/>
	<circle fill="#E8EBEC" cx="37.707" cy="78.695" r="20"/>
	<g>
		<path fill="#FFFFFF" d="M89.423,54.389h-60c-1.105,0-2,0.896-2,2v24c0,1.104,0.895,2,2,2h17.005l12.999,11l13-11h16.996
			c1.105,0,2-0.896,2-2v-24C91.423,55.286,90.529,54.389,89.423,54.389z"/>
		<path fill="#BDC3D8" d="M89.423,54.389h-1l-3,25l-14.996-1L52.941,87.9l6.486,5.489l13-11h16.996c1.105,0,2-0.896,2-2v-24
			C91.423,55.285,90.529,54.389,89.423,54.389z"/>
		<path fill="#21365F" d="M59.427,94.139c-0.172,0-0.345-0.06-0.484-0.178l-12.79-10.822H29.423c-1.517,0-2.75-1.234-2.75-2.75v-24
			c0-1.517,1.233-2.75,2.75-2.75h60c1.517,0,2.75,1.233,2.75,2.75v24c0,1.516-1.233,2.75-2.75,2.75H72.702l-12.79,10.822
			C59.772,94.08,59.599,94.139,59.427,94.139z M29.423,55.139c-0.689,0-1.25,0.56-1.25,1.25v24c0,0.689,0.561,1.25,1.25,1.25h17.004
			c0.178,0,0.349,0.062,0.484,0.178l12.516,10.59l12.516-10.59c0.136-0.115,0.307-0.178,0.484-0.178h16.996
			c0.689,0,1.25-0.561,1.25-1.25v-24c0-0.69-0.561-1.25-1.25-1.25H29.423z"/>
		<polygon fill="#BDC3D8" points="59.423,56.387 83.423,75.053 35.423,75.053 		"/>
		<polygon fill="#FFFFFF" points="59.423,65.72 65.422,61.053 74.858,72.095 35.423,75.053 53.423,61.053 		"/>
		<path fill="#21365F" d="M83.423,75.803h-48c-0.32,0-0.605-0.204-0.709-0.507c-0.104-0.303-0.004-0.639,0.249-0.835l24-18.665
			c0.27-0.211,0.65-0.211,0.92,0l24,18.665c0.253,0.196,0.354,0.532,0.249,0.835C84.029,75.598,83.744,75.803,83.423,75.803z
			 M37.609,74.303h43.629L59.423,57.337L37.609,74.303z"/>
		<polygon fill="#BDC3D8" points="59.423,65.719 35.423,47.053 83.423,47.053 		"/>
		<polygon fill="#FFFFFF" points="59.423,65.719 44.423,50.011 83.423,47.053 		"/>
		<path fill="#21365F" d="M59.423,66.469c-0.162,0-0.325-0.053-0.461-0.158l-24-18.666c-0.252-0.196-0.353-0.532-0.248-0.835
			c0.104-0.303,0.389-0.507,0.709-0.507h48c0.32,0,0.605,0.204,0.709,0.507c0.104,0.303,0.004,0.639-0.248,0.835l-24,18.666
			C59.748,66.416,59.585,66.469,59.423,66.469z M37.609,47.803l21.814,16.966l21.815-16.966H37.609z"/>
		<path fill="#21365F" d="M75.422,34.137c-0.132,0-0.266-0.035-0.387-0.107c-8.607-5.191-22.617-5.191-31.225,0
			c-0.355,0.215-0.815,0.1-1.03-0.256c-0.214-0.354-0.1-0.814,0.255-1.029c9.037-5.449,23.738-5.449,32.775,0
			c0.354,0.215,0.469,0.676,0.255,1.029C75.924,34.009,75.677,34.137,75.422,34.137z"/>
		<path fill="#21365F" d="M70.422,38.512c-0.132,0-0.266-0.034-0.387-0.107c-5.852-3.528-15.373-3.528-21.225,0
			c-0.355,0.215-0.815,0.1-1.03-0.255c-0.214-0.355-0.1-0.815,0.255-1.029c6.279-3.787,16.496-3.787,22.775,0
			c0.354,0.214,0.469,0.675,0.255,1.029C70.924,38.384,70.677,38.512,70.422,38.512z"/>
		<path fill="#21365F" d="M65.422,42.888c-0.132,0-0.266-0.034-0.387-0.108c-3.094-1.865-8.131-1.865-11.225,0
			c-0.355,0.214-0.815,0.1-1.03-0.254c-0.214-0.356-0.1-0.816,0.255-1.029c3.582-2.16,9.193-2.16,12.775,0
			c0.354,0.213,0.469,0.674,0.255,1.029C65.924,42.759,65.677,42.888,65.422,42.888z"/>
		<polygon fill="#BDC3D8" points="35.423,47.053 35.423,75.053 53.423,61.053 		"/>
		<polygon fill="#BDC3D8" points="83.423,75.053 83.423,47.053 65.422,61.053 		"/>
		<polygon fill="#FFFFFF" points="35.423,47.053 38.545,68.511 53.423,61.053 		"/>
		<polygon fill="#FFFFFF" points="83.423,75.053 80.212,53.678 65.422,61.053 		"/>
		<path fill="#21365F" d="M35.423,75.803c-0.112,0-0.225-0.024-0.329-0.076c-0.258-0.126-0.421-0.388-0.421-0.674v-28
			c0-0.286,0.163-0.548,0.421-0.674c0.258-0.126,0.563-0.093,0.79,0.082l18,14.001c0.183,0.143,0.289,0.36,0.289,0.592
			c0,0.232-0.106,0.449-0.29,0.592l-18,13.999C35.749,75.749,35.587,75.803,35.423,75.803z M36.173,48.587v24.933l16.028-12.466
			L36.173,48.587z"/>
		<path fill="#21365F" d="M83.423,75.803c-0.164,0-0.326-0.054-0.46-0.158l-18.001-14c-0.184-0.142-0.29-0.36-0.29-0.592
			c0-0.231,0.106-0.45,0.29-0.592l18.001-14c0.226-0.177,0.532-0.208,0.789-0.082c0.258,0.126,0.421,0.388,0.421,0.674v28
			c0,0.286-0.163,0.548-0.421,0.674C83.648,75.778,83.536,75.803,83.423,75.803z M66.644,61.053l16.029,12.467V48.586L66.644,61.053
			z"/>
		<path fill="#21365F" d="M91.423,42.802h-4c-0.414,0-0.75-0.336-0.75-0.75c0-0.414,0.336-0.75,0.75-0.75h4
			c0.414,0,0.75,0.336,0.75,0.75C92.173,42.466,91.837,42.802,91.423,42.802z"/>
		<path fill="#21365F" d="M89.423,44.802c-0.414,0-0.75-0.336-0.75-0.75v-4c0-0.414,0.336-0.75,0.75-0.75
			c0.414,0,0.75,0.336,0.75,0.75v4C90.173,44.466,89.837,44.802,89.423,44.802z"/>
		<path fill="#21365F" d="M38.418,36.802h-4c-0.414,0-0.75-0.336-0.75-0.75c0-0.414,0.336-0.75,0.75-0.75h4
			c0.414,0,0.75,0.336,0.75,0.75C39.168,36.466,38.832,36.802,38.418,36.802z"/>
		<path fill="#21365F" d="M36.418,38.802c-0.414,0-0.75-0.336-0.75-0.75v-4c0-0.414,0.336-0.75,0.75-0.75
			c0.414,0,0.75,0.336,0.75,0.75v4C37.168,38.466,36.832,38.802,36.418,38.802z"/>
		<path fill="#21365F" d="M31.417,45.803h-4c-0.414,0-0.75-0.336-0.75-0.75c0-0.414,0.336-0.75,0.75-0.75h4
			c0.414,0,0.75,0.336,0.75,0.75C32.167,45.467,31.831,45.803,31.417,45.803z"/>
		<path fill="#21365F" d="M29.417,47.803c-0.414,0-0.75-0.336-0.75-0.75v-4c0-0.414,0.336-0.75,0.75-0.75
			c0.414,0,0.75,0.336,0.75,0.75v4C30.167,47.467,29.831,47.803,29.417,47.803z"/>
		<path fill="#21365F" d="M85.423,33.137h-4c-0.414,0-0.75-0.336-0.75-0.75c0-0.414,0.336-0.75,0.75-0.75h4
			c0.414,0,0.75,0.336,0.75,0.75C86.173,32.802,85.837,33.137,85.423,33.137z"/>
		<path fill="#21365F" d="M83.423,35.137c-0.414,0-0.75-0.336-0.75-0.75v-4c0-0.414,0.336-0.75,0.75-0.75
			c0.414,0,0.75,0.336,0.75,0.75v4C84.173,34.802,83.837,35.137,83.423,35.137z"/>
	</g>
</g>
</svg>
