<?xml version="1.0" encoding="utf-8"?>
<!-- Generator: Adobe Illustrator 24.3.0, SVG Export Plug-In . SVG Version: 6.00 Build 0)  -->
<svg version="1.1" id="Layer_1" xmlns="http://www.w3.org/2000/svg" xmlns:xlink="http://www.w3.org/1999/xlink" x="0px" y="0px"
	 viewBox="0 0 120 120" enable-background="new 0 0 120 120" xml:space="preserve">
<g>
	<circle fill="#E8EBEC" cx="67.103" cy="84.213" r="14"/>
	<circle fill="#E8EBEC" cx="87.856" cy="54.023" r="12"/>
	<circle fill="#E8EBEC" cx="39.27" cy="40.868" r="20"/>
	<g>
		<path fill="#BDC3D8" d="M92.105,37.213H44.107v-8c0-1.104,0.896-2,2-2h43.998c1.104,0,2,0.896,2,2V37.213z"/>
		<path fill="#FFFFFF" d="M79.105,34.213h-35v-5c0-1.104,0.896-2,2-2h39v1C85.105,31.526,82.419,34.213,79.105,34.213z"/>
		<path fill="#21365F" d="M87.101,33.213c-0.261,0-0.521-0.11-0.7-0.29c-0.19-0.19-0.3-0.45-0.3-0.71c0-0.26,0.109-0.52,0.29-0.71
			c0.38-0.37,1.05-0.37,1.42,0c0.189,0.19,0.29,0.44,0.29,0.71c0,0.269-0.101,0.519-0.29,0.71
			C87.62,33.102,87.37,33.213,87.101,33.213z"/>
		<path fill="#21365F" d="M80.101,32.213c0-0.551,0.449-1,1-1l0,0c0.559,0,1,0.449,1,1l0,0c0,0.55-0.441,1-1,1l0,0
			C80.55,33.213,80.101,32.762,80.101,32.213z"/>
		<path fill="#21365F" d="M75.101,33.213c-0.261,0-0.521-0.11-0.71-0.29c-0.181-0.19-0.29-0.45-0.29-0.71
			c0-0.26,0.109-0.52,0.29-0.71c0.38-0.37,1.05-0.37,1.42,0c0.189,0.19,0.29,0.45,0.29,0.71c0,0.26-0.101,0.519-0.29,0.71
			C75.63,33.102,75.37,33.213,75.101,33.213z"/>
		<path fill="#21365F" d="M92.105,37.963H44.107c-0.414,0-0.75-0.336-0.75-0.75v-8c0-1.517,1.233-2.75,2.75-2.75h43.998
			c1.517,0,2.75,1.233,2.75,2.75v8C92.855,37.627,92.519,37.963,92.105,37.963z M44.857,36.463h46.498v-7.25
			c0-0.689-0.561-1.25-1.25-1.25H46.107c-0.689,0-1.25,0.561-1.25,1.25V36.463z"/>
		<path fill="#BDC3D8" d="M92.105,37.213h-48v37.999c0,1.104,0.896,2,2,2h44c1.104,0,2-0.896,2-2V37.213z"/>
		<path fill="#FFFFFF" d="M83.104,37.213H44.107v35.998h35.997c1.657,0,3-1.343,3-3V37.213z"/>
		<path fill="#21365F" d="M90.105,77.961H46.104c-1.517,0-2.75-1.232-2.75-2.75V37.213c0-0.414,0.336-0.75,0.75-0.75h48.001
			c0.414,0,0.75,0.336,0.75,0.75v37.998C92.855,76.728,91.622,77.961,90.105,77.961z M44.854,37.963v37.248
			c0,0.689,0.56,1.25,1.25,1.25h44.001c0.689,0,1.25-0.561,1.25-1.25V37.963H44.854z"/>
		<path fill="#BDC3D8" d="M62.103,51.214h-32c-0.553,0-1,0.448-1,1v38c0,0.552,0.447,1,1,1h32c0.552,0,1-0.448,1-1v-38
			C63.103,51.662,62.655,51.214,62.103,51.214z"/>
		<path fill="#FFFFFF" d="M59.102,51.214H30.103c-0.553,0-1,0.448-1,1v34.999h28.999c0.553,0,1-0.447,1-1V51.214z"/>
		<path fill="#21365F" d="M62.102,91.964h-32c-0.965,0-1.75-0.785-1.75-1.75v-38c0-0.965,0.785-1.75,1.75-1.75h32
			c0.965,0,1.75,0.785,1.75,1.75v38C63.852,91.178,63.067,91.964,62.102,91.964z M30.102,51.964c-0.138,0-0.25,0.112-0.25,0.25v38
			c0,0.138,0.112,0.25,0.25,0.25h32c0.138,0,0.25-0.112,0.25-0.25v-38c0-0.138-0.112-0.25-0.25-0.25H30.102z"/>
		<path fill="#21365F" d="M40.103,30.961h-1.385c-0.414,0-0.75-0.336-0.75-0.75c0-0.414,0.336-0.75,0.75-0.75h1.385
			c0.414,0,0.75,0.336,0.75,0.75C40.853,30.625,40.518,30.961,40.103,30.961z"/>
		<path fill="#21365F" d="M35.487,30.961h-1.384c-0.414,0-0.75-0.336-0.75-0.75c0-0.414,0.336-0.75,0.75-0.75h1.384
			c0.414,0,0.75,0.336,0.75,0.75C36.237,30.625,35.901,30.961,35.487,30.961z"/>
		<path fill="#21365F" d="M37.103,33.961c-0.414,0-0.75-0.336-0.75-0.75v-1.384c0-0.414,0.336-0.75,0.75-0.75
			c0.414,0,0.75,0.336,0.75,0.75v1.384C37.853,33.625,37.518,33.961,37.103,33.961z"/>
		<path fill="#21365F" d="M37.103,29.345c-0.414,0-0.75-0.336-0.75-0.75v-1.385c0-0.414,0.336-0.75,0.75-0.75
			c0.414,0,0.75,0.336,0.75,0.75v1.385C37.853,29.01,37.518,29.345,37.103,29.345z"/>
		<path fill="#21365F" d="M89.108,84.967h-1.385c-0.414,0-0.75-0.336-0.75-0.75s0.336-0.75,0.75-0.75h1.385
			c0.414,0,0.75,0.336,0.75,0.75S89.522,84.967,89.108,84.967z"/>
		<path fill="#21365F" d="M84.493,84.967h-1.385c-0.414,0-0.75-0.336-0.75-0.75s0.336-0.75,0.75-0.75h1.385
			c0.414,0,0.75,0.336,0.75,0.75S84.907,84.967,84.493,84.967z"/>
		<path fill="#21365F" d="M86.108,87.967c-0.414,0-0.75-0.336-0.75-0.75v-1.385c0-0.414,0.336-0.75,0.75-0.75
			c0.414,0,0.75,0.336,0.75,0.75v1.385C86.858,87.631,86.522,87.967,86.108,87.967z"/>
		<path fill="#21365F" d="M86.108,83.351c-0.414,0-0.75-0.336-0.75-0.75v-1.385c0-0.414,0.336-0.75,0.75-0.75
			c0.414,0,0.75,0.336,0.75,0.75v1.385C86.858,83.015,86.522,83.351,86.108,83.351z"/>
		<path fill="#21365F" d="M78.107,88.967h-1.385c-0.414,0-0.75-0.336-0.75-0.75s0.336-0.75,0.75-0.75h1.385
			c0.414,0,0.75,0.336,0.75,0.75S78.521,88.967,78.107,88.967z"/>
		<path fill="#21365F" d="M73.491,88.967h-1.384c-0.414,0-0.75-0.336-0.75-0.75s0.336-0.75,0.75-0.75h1.384
			c0.414,0,0.75,0.336,0.75,0.75S73.905,88.967,73.491,88.967z"/>
		<path fill="#21365F" d="M75.107,91.967c-0.414,0-0.75-0.336-0.75-0.75v-1.384c0-0.414,0.336-0.75,0.75-0.75s0.75,0.336,0.75,0.75
			v1.384C75.857,91.631,75.521,91.967,75.107,91.967z"/>
		<path fill="#21365F" d="M75.107,87.351c-0.414,0-0.75-0.336-0.75-0.75v-1.385c0-0.414,0.336-0.75,0.75-0.75s0.75,0.336,0.75,0.75
			v1.385C75.857,87.015,75.521,87.351,75.107,87.351z"/>
		<path fill="#21365F" d="M34.102,40.963h-1.385c-0.414,0-0.75-0.336-0.75-0.75c0-0.414,0.336-0.75,0.75-0.75h1.385
			c0.414,0,0.75,0.336,0.75,0.75C34.852,40.627,34.517,40.963,34.102,40.963z"/>
		<path fill="#21365F" d="M29.487,40.963h-1.385c-0.414,0-0.75-0.336-0.75-0.75c0-0.414,0.336-0.75,0.75-0.75h1.385
			c0.414,0,0.75,0.336,0.75,0.75C30.237,40.627,29.901,40.963,29.487,40.963z"/>
		<path fill="#21365F" d="M31.102,43.963c-0.414,0-0.75-0.336-0.75-0.75v-1.385c0-0.414,0.336-0.75,0.75-0.75
			c0.414,0,0.75,0.336,0.75,0.75v1.385C31.852,43.627,31.517,43.963,31.102,43.963z"/>
		<path fill="#21365F" d="M31.102,39.347c-0.414,0-0.75-0.336-0.75-0.75v-1.385c0-0.414,0.336-0.75,0.75-0.75
			c0.414,0,0.75,0.336,0.75,0.75v1.385C31.852,39.011,31.517,39.347,31.102,39.347z"/>
		<path fill="#BDC3D8" d="M62.103,44.213h-25c-0.552,0-1,0.447-1,1v38c0,0.553,0.448,1,1,1h32c0.553,0,1-0.447,1-1v-31
			C66.979,49.089,65.227,47.338,62.103,44.213z"/>
		<path fill="#FFFFFF" d="M62.103,44.213h-25c-0.552,0-1,0.447-1,1v35h29c0.552,0,1-0.447,1-1v-31
			C64.541,46.65,63.665,45.775,62.103,44.213z"/>
		<path fill="#21365F" d="M69.103,84.963h-32c-0.965,0-1.75-0.785-1.75-1.75v-38c0-0.965,0.785-1.75,1.75-1.75h25
			c0.199,0,0.39,0.079,0.53,0.22l8,8c0.141,0.141,0.22,0.331,0.22,0.53v31C70.853,84.177,70.068,84.963,69.103,84.963z
			 M37.103,44.963c-0.138,0-0.25,0.112-0.25,0.25v38c0,0.138,0.112,0.25,0.25,0.25h32c0.138,0,0.25-0.112,0.25-0.25v-30.69
			l-7.561-7.56H37.103z"/>
		<polygon fill="#BDC3D8" points="70.103,52.213 62.103,44.213 62.103,52.213 		"/>
		<polygon fill="#FFFFFF" points="70.103,52.213 62.103,48.213 62.103,52.213 		"/>
		<path fill="#21365F" d="M70.103,52.963h-8c-0.414,0-0.75-0.336-0.75-0.75v-8c0-0.303,0.183-0.576,0.463-0.693
			c0.28-0.115,0.603-0.051,0.817,0.163l8,8c0.215,0.214,0.278,0.537,0.163,0.817C70.681,52.78,70.407,52.963,70.103,52.963z
			 M62.853,51.463h5.439l-5.439-5.44V51.463z"/>
		<path fill="#FFFFFF" d="M84.704,60.755l-8.542-8.542v4.726c0,0-17.072,0.15-17.072,18.583c0,0,3.298-11.269,17.072-10.952v4.727
			L84.704,60.755z"/>
		<path fill="#BDC3D8" d="M78.247,63.381v-1.204c0-0.285-0.244-0.517-0.528-0.503C59.78,62.468,59.09,75.522,59.09,75.522
			s3.298-11.269,17.072-10.952v4.727l8.542-8.542l-1.821-1.821L78.247,63.381z"/>
		<path fill="#21365F" d="M59.09,76.271c-0.036,0-0.071-0.002-0.107-0.008c-0.369-0.053-0.644-0.369-0.644-0.742
			c0-16.704,13.697-18.979,17.073-19.285v-4.023c0-0.303,0.183-0.576,0.463-0.693c0.28-0.115,0.603-0.052,0.817,0.163l8.542,8.542
			c0.141,0.141,0.22,0.332,0.22,0.53c0,0.198-0.079,0.39-0.22,0.53l-8.542,8.541c-0.215,0.215-0.537,0.28-0.817,0.163
			c-0.28-0.116-0.463-0.39-0.463-0.692v-3.982C62.974,65.42,59.84,75.627,59.809,75.732C59.714,76.056,59.418,76.271,59.09,76.271z
			 M76.912,54.023v2.916c0,0.412-0.332,0.746-0.742,0.75c-0.616,0.008-14.022,0.324-16.07,14.12
			c2.237-3.456,6.935-8.202,16.08-7.989c0.407,0.01,0.732,0.342,0.732,0.75v2.916l6.731-6.731L76.912,54.023z"/>
		<path fill="#21365F" d="M40.103,77.963c-0.414,0-0.75-0.336-0.75-0.75V65.513c0-0.414,0.336-0.75,0.75-0.75
			c0.414,0,0.75,0.336,0.75,0.75v11.699C40.853,77.627,40.518,77.963,40.103,77.963z"/>
		<path fill="#21365F" d="M40.103,62.263c-0.414,0-0.75-0.336-0.75-0.75v-2.301c0-0.414,0.336-0.75,0.75-0.75
			c0.414,0,0.75,0.336,0.75,0.75v2.301C40.853,61.927,40.518,62.263,40.103,62.263z"/>
	</g>
</g>
</svg>
