<?xml version="1.0" encoding="utf-8"?>
<!-- Generator: Adobe Illustrator 24.3.0, SVG Export Plug-In . SVG Version: 6.00 Build 0)  -->
<svg version="1.1" id="Layer_1" xmlns="http://www.w3.org/2000/svg" xmlns:xlink="http://www.w3.org/1999/xlink" x="0px" y="0px"
	 viewBox="0 0 120 120" enable-background="new 0 0 120 120" xml:space="preserve">
<g>
	<circle fill="#E8EBEC" cx="34.591" cy="67.435" r="14"/>
	<circle fill="#E8EBEC" cx="76.344" cy="85.293" r="12"/>
	<circle fill="#E8EBEC" cx="78.536" cy="41.787" r="20"/>
	<g>
		<rect x="47.843" y="83.785" fill="#BDC3D8" width="26" height="7"/>
		<path fill="#FFFFFF" d="M68.843,83.785H47.843v4.666h17.999c1.657,0,3-1.343,3-3V83.785z"/>
		<path fill="#21365F" d="M73.843,91.535h-26c-0.414,0-0.75-0.336-0.75-0.75v-7c0-0.414,0.336-0.75,0.75-0.75h26
			c0.414,0,0.75,0.336,0.75,0.75v7C74.593,91.2,74.257,91.535,73.843,91.535z M48.593,90.035h24.5v-5.5h-24.5V90.035z"/>
		<path fill="#BDC3D8" d="M92.843,76.786h-64v-29c0-1.657,1.343-3,3-3h58c1.657,0,3,1.343,3,3V76.786z"/>
		<path fill="#FFFFFF" d="M84.843,71.786H28.843v-24c0-1.657,1.343-3,3-3h56.999v23C88.843,69.995,87.052,71.786,84.843,71.786z"/>
		<path fill="#21365F" d="M92.843,77.536h-64c-0.414,0-0.75-0.336-0.75-0.75v-29c0-2.067,1.682-3.75,3.75-3.75h58
			c2.068,0,3.75,1.683,3.75,3.75v29C93.593,77.2,93.257,77.536,92.843,77.536z M29.593,76.036h62.5v-28.25
			c0-1.24-1.009-2.25-2.25-2.25h-58c-1.241,0-2.25,1.01-2.25,2.25V76.036z"/>
		<path fill="#BDC3D8" d="M89.843,83.784h-58c-1.657,0-3-1.343-3-3v-4h64v4C92.843,82.442,91.5,83.784,89.843,83.784z"/>
		<path fill="#FFFFFF" d="M83.843,81.451H28.843v-4.667h57.999v1.667C86.843,80.108,85.499,81.451,83.843,81.451z"/>
		<path fill="#21365F" d="M89.843,84.534h-58c-2.068,0-3.75-1.683-3.75-3.75v-4c0-0.414,0.336-0.75,0.75-0.75h64
			c0.414,0,0.75,0.336,0.75,0.75v4C93.593,82.852,91.911,84.534,89.843,84.534z M29.593,77.534v3.25c0,1.24,1.009,2.25,2.25,2.25h58
			c1.241,0,2.25-1.01,2.25-2.25v-3.25H29.593z"/>
		<path fill="#21365F" d="M80.843,91.535h-40c-0.414,0-0.75-0.336-0.75-0.75s0.336-0.75,0.75-0.75h40c0.414,0,0.75,0.336,0.75,0.75
			S81.257,91.535,80.843,91.535z"/>
		<circle fill="#21365F" cx="60.843" cy="80.285" r="1"/>
		<path fill="#BDC3D8" d="M82.843,30.786h-44c-1.105,0-2,0.896-2,2v5.999h48v-5.999C84.843,31.682,83.948,30.786,82.843,30.786z"/>
		<path fill="#FFFFFF" d="M80.843,30.787H38.843c-1.105,0-2,0.896-2,2v4h41.999c1.105,0,2-0.896,2-2V30.787z"/>
		<path fill="#21365F" d="M84.843,39.536h-48c-0.414,0-0.75-0.336-0.75-0.75v-6c0-1.517,1.233-2.75,2.75-2.75h44
			c1.517,0,2.75,1.233,2.75,2.75v6C85.593,39.2,85.257,39.536,84.843,39.536z M37.593,38.036h46.5v-5.25
			c0-0.69-0.561-1.25-1.25-1.25h-44c-0.689,0-1.25,0.56-1.25,1.25V38.036z"/>
		<path fill="#21365F" d="M50.842,31.537c-0.414,0-0.75-0.336-0.75-0.75c0-1.793-1.458-3.252-3.25-3.252s-3.25,1.459-3.25,3.252
			c0,0.414-0.336,0.75-0.75,0.75c-0.414,0-0.75-0.336-0.75-0.75c0-2.62,2.131-4.752,4.75-4.752c2.619,0,4.75,2.132,4.75,4.752
			C51.592,31.201,51.256,31.537,50.842,31.537z"/>
		<path fill="#21365F" d="M46.842,35.535c-2.619,0-4.75-2.131-4.75-4.751c0-0.414,0.336-0.75,0.75-0.75
			c0.414,0,0.75,0.336,0.75,0.75c0,1.793,1.458,3.251,3.25,3.251c0.414,0,0.75,0.336,0.75,0.75
			C47.592,35.2,47.256,35.535,46.842,35.535z"/>
		<path fill="#21365F" d="M64.843,31.537c-0.414,0-0.75-0.336-0.75-0.75c0-1.793-1.458-3.252-3.25-3.252
			c-1.792,0-3.25,1.459-3.25,3.252c0,0.414-0.336,0.75-0.75,0.75c-0.414,0-0.75-0.336-0.75-0.75c0-2.62,2.131-4.752,4.75-4.752
			c2.619,0,4.75,2.132,4.75,4.752C65.593,31.201,65.257,31.537,64.843,31.537z"/>
		<path fill="#21365F" d="M60.843,35.535c-2.619,0-4.75-2.131-4.75-4.751c0-0.414,0.336-0.75,0.75-0.75
			c0.414,0,0.75,0.336,0.75,0.75c0,1.793,1.458,3.251,3.25,3.251c0.414,0,0.75,0.336,0.75,0.75
			C61.593,35.2,61.257,35.535,60.843,35.535z"/>
		<path fill="#21365F" d="M78.845,31.537c-0.414,0-0.75-0.336-0.75-0.75c0-1.793-1.458-3.252-3.25-3.252s-3.25,1.459-3.25,3.252
			c0,0.414-0.336,0.75-0.75,0.75c-0.414,0-0.75-0.336-0.75-0.75c0-2.62,2.131-4.752,4.75-4.752c2.619,0,4.75,2.132,4.75,4.752
			C79.595,31.201,79.259,31.537,78.845,31.537z"/>
		<path fill="#21365F" d="M74.845,35.535c-2.619,0-4.75-2.131-4.75-4.751c0-0.414,0.336-0.75,0.75-0.75
			c0.414,0,0.75,0.336,0.75,0.75c0,1.793,1.458,3.251,3.25,3.251c0.414,0,0.75,0.336,0.75,0.75
			C75.595,35.2,75.259,35.535,74.845,35.535z"/>
		<path fill="#BDC3D8" d="M76.843,76.785h-40v-38h48v30C81.719,71.909,79.968,73.661,76.843,76.785z"/>
		<path fill="#FFFFFF" d="M62.843,73.785H36.843v-35h40.999v20C77.843,67.07,71.127,73.785,62.843,73.785z"/>
		<path fill="#21365F" d="M76.843,77.535h-40c-0.414,0-0.75-0.336-0.75-0.75V38.786c0-0.414,0.336-0.75,0.75-0.75h48
			c0.414,0,0.75,0.336,0.75,0.75v29.999c0,0.199-0.079,0.39-0.22,0.53l-8,8C77.233,77.456,77.042,77.535,76.843,77.535z
			 M37.593,76.035h38.939l7.561-7.561V39.536h-46.5V76.035z"/>
		<polygon fill="#FFFFFF" points="60.843,45.785 64.743,53.686 73.461,54.953 67.152,61.103 68.641,69.785 60.843,65.686 
			53.045,69.785 54.535,61.103 48.226,54.953 56.944,53.686 		"/>
		<path fill="#BDC3D8" d="M67.152,61.103l6.309-6.15l-5.58-0.811l-4.678,4.561c-0.539,0.525-0.784,1.281-0.657,2.023l1.104,6.436
			l4.992,2.624L67.152,61.103z"/>
		<path fill="#21365F" d="M53.045,70.535c-0.155,0-0.31-0.048-0.441-0.144c-0.231-0.168-0.347-0.452-0.298-0.733l1.423-8.294
			l-6.026-5.874c-0.205-0.199-0.278-0.497-0.19-0.769c0.088-0.271,0.323-0.47,0.605-0.511L56.446,53l3.725-7.547
			c0.252-0.512,1.093-0.512,1.345,0L65.241,53l8.328,1.211c0.283,0.041,0.517,0.239,0.605,0.511c0.088,0.271,0.015,0.569-0.19,0.769
			l-6.026,5.874l1.423,8.294c0.048,0.281-0.067,0.565-0.298,0.733c-0.231,0.17-0.537,0.19-0.79,0.058l-7.449-3.916l-7.449,3.916
			C53.285,70.507,53.165,70.535,53.045,70.535z M60.843,64.936c0.12,0,0.24,0.028,0.349,0.086l6.453,3.393l-1.232-7.185
			c-0.042-0.243,0.039-0.492,0.216-0.664l5.22-5.089l-7.214-1.049c-0.244-0.035-0.456-0.188-0.564-0.41l-3.227-6.538l-3.227,6.538
			c-0.109,0.222-0.32,0.375-0.564,0.41l-7.214,1.049l5.22,5.089c0.177,0.172,0.257,0.421,0.216,0.664l-1.233,7.185l6.453-3.393
			C60.603,64.964,60.723,64.936,60.843,64.936z"/>
		<polygon fill="#FFFFFF" points="76.843,76.785 84.843,68.785 76.843,68.785 		"/>
		<path fill="#21365F" d="M76.843,77.535c-0.097,0-0.194-0.019-0.287-0.057c-0.28-0.116-0.463-0.39-0.463-0.693v-8
			c0-0.414,0.336-0.75,0.75-0.75h8c0.303,0,0.577,0.183,0.693,0.463c0.116,0.28,0.052,0.603-0.163,0.817l-8,8
			C77.23,77.459,77.038,77.535,76.843,77.535z M77.593,69.535v5.439l5.439-5.439H77.593z"/>
		<path fill="#21365F" d="M40.844,71.534c-0.414,0-0.75-0.336-0.75-0.75V60.085c0-0.414,0.336-0.75,0.75-0.75
			c0.414,0,0.75,0.336,0.75,0.75v10.699C41.594,71.199,41.258,71.534,40.844,71.534z"/>
		<path fill="#21365F" d="M40.844,56.835c-0.414,0-0.75-0.336-0.75-0.75v-2.3c0-0.414,0.336-0.75,0.75-0.75
			c0.414,0,0.75,0.336,0.75,0.75v2.3C41.594,56.499,41.258,56.835,40.844,56.835z"/>
		<path fill="#21365F" d="M80.848,60.534c-0.414,0-0.75-0.336-0.75-0.75v-9.699c0-0.414,0.336-0.75,0.75-0.75
			c0.414,0,0.75,0.336,0.75,0.75v9.699C81.598,60.198,81.262,60.534,80.848,60.534z"/>
		<path fill="#21365F" d="M80.848,46.834c-0.414,0-0.75-0.336-0.75-0.75v-2.3c0-0.414,0.336-0.75,0.75-0.75
			c0.414,0,0.75,0.336,0.75,0.75v2.3C81.598,46.498,81.262,46.834,80.848,46.834z"/>
	</g>
</g>
</svg>
