<?xml version="1.0" encoding="utf-8"?>
<!-- Generator: Adobe Illustrator 24.3.0, SVG Export Plug-In . SVG Version: 6.00 Build 0)  -->
<svg version="1.1" id="Layer_1" xmlns="http://www.w3.org/2000/svg" xmlns:xlink="http://www.w3.org/1999/xlink" x="0px" y="0px"
	 viewBox="0 0 120 120" enable-background="new 0 0 120 120" xml:space="preserve">
<g>
	<circle fill="#E8EBEC" cx="33.439" cy="65.16" r="14"/>
	<circle fill="#E8EBEC" cx="71.688" cy="33.917" r="12"/>
	<circle fill="#E8EBEC" cx="79.688" cy="77.163" r="20"/>
	<g>
		<circle fill="#FFFFFF" cx="61.439" cy="60.909" r="32"/>
		<path fill="#BDC3D8" d="M93.439,60.909c0-17.673-14.327-32-32-32c-5.901,0-11.426,1.604-16.172,4.391
			c2.608-0.688,5.347-1.057,8.171-1.057c17.673,0,32,14.327,32,32c0,11.771-6.36,22.052-15.828,27.609
			C83.324,88.241,93.439,75.758,93.439,60.909z"/>
		<path fill="#21365F" d="M61.439,93.659c-18.059,0-32.75-14.691-32.75-32.75s14.691-32.75,32.75-32.75s32.75,14.691,32.75,32.75
			S79.497,93.659,61.439,93.659z M61.439,29.659c-17.231,0-31.25,14.019-31.25,31.25c0,17.231,14.019,31.25,31.25,31.25
			s31.25-14.019,31.25-31.25C92.689,43.678,78.67,29.659,61.439,29.659z"/>
		<path fill="#FFFFFF" d="M79.348,61.091c0.815-0.003,2.588-1.23,2.588-4.077c0-2.253-1.775-4.103-3.672-4.103H64.146
			c0.384-1.347,1.139-4.612,0.783-8.512c-0.465-5.137-2.916-8.601-5.832-8.715c-2.916-0.116-3.966,0.52-3.966,0.52
			s1.418,6.43,0.451,9.602c-2.253,7.391-9.61,13.36-9.61,13.36V82.66h28.202c0.096,0,0.189-0.01,0.283-0.021
			c2.33-0.221,4.152-2.161,4.152-4.523c0-0.796-0.216-1.553-0.576-2.203c2.075-0.438,3.64-2.25,3.64-4.434
			c0-1.203-0.478-2.293-1.249-3.107c1.128-0.827,1.859-2.151,1.859-3.646C82.284,62.393,80.677,61.093,79.348,61.091z"/>
		<path fill="#BDC3D8" d="M82.284,64.726c0-2.333-1.606-3.633-2.935-3.635c0.815-0.003,2.588-1.23,2.588-4.077
			c0-2.253-1.775-4.103-3.672-4.103H64.146c0.384-1.347,1.139-4.612,0.783-8.512c-0.465-5.137-2.916-8.601-5.832-8.715
			c-2.917-0.116-3.966,0.52-3.966,0.52c4.453-0.534,5.703,4.387,5.703,9.553c0,3.155-1.011,6.514-1.996,8.751
			c-0.292,0.663,0.188,1.403,0.913,1.403h12.512c1.898,0,3.672,1.852,3.672,4.103c0,2.847-1.772,4.075-2.588,4.078
			c1.329,0.001,2.936,1.302,2.936,3.635c0,1.494-0.731,2.818-1.859,3.646c0.772,0.815,1.249,1.903,1.249,3.107
			c0,2.184-1.564,3.996-3.64,4.434c0.36,0.65,0.576,1.408,0.576,2.204c0,0.543-0.106,1.061-0.283,1.544h1.849
			c0.096,0,0.189-0.01,0.283-0.021c2.33-0.221,4.152-2.161,4.152-4.523c0-0.796-0.216-1.553-0.576-2.203
			c2.075-0.438,3.64-2.25,3.64-4.434c0-1.203-0.478-2.293-1.249-3.107C81.552,67.545,82.284,66.221,82.284,64.726z"/>
		<path fill="#21365F" d="M74.174,83.41H45.972c-0.414,0-0.75-0.336-0.75-0.75V59.164c0-0.226,0.102-0.439,0.277-0.582
			c0.072-0.059,7.208-5.918,9.365-12.996c0.899-2.949-0.452-9.16-0.466-9.223c-0.069-0.313,0.069-0.637,0.344-0.803
			c0.128-0.077,1.33-0.758,4.384-0.627c3.368,0.133,6.062,3.997,6.55,9.396c0.3,3.295-0.176,6.171-0.562,7.829h13.15
			c2.355,0,4.422,2.268,4.422,4.854c0,1.798-0.663,3.132-1.485,3.938c1.039,0.716,1.833,2.032,1.833,3.775
			c0,1.404-0.575,2.754-1.566,3.738c0.621,0.884,0.956,1.93,0.956,3.015c0,2.171-1.369,4.108-3.36,4.903
			c0.195,0.559,0.297,1.146,0.297,1.733c0,2.744-2.077,5.01-4.832,5.27C74.431,83.399,74.304,83.41,74.174,83.41z M46.722,81.91
			h27.452c0.062,0,0.122-0.008,0.183-0.016c2.01-0.19,3.503-1.814,3.503-3.779c0-0.635-0.167-1.271-0.482-1.839
			c-0.115-0.208-0.125-0.459-0.026-0.676c0.099-0.216,0.295-0.373,0.527-0.422c1.765-0.373,3.045-1.929,3.045-3.7
			c0-0.961-0.37-1.881-1.044-2.592c-0.147-0.156-0.222-0.368-0.202-0.583c0.02-0.214,0.13-0.41,0.304-0.537
			c0.986-0.724,1.553-1.832,1.553-3.041c0-1.966-1.305-2.884-2.186-2.885c-0.414-0.001-0.749-0.336-0.749-0.749
			c0-0.414,0.334-0.749,0.747-0.751c0.375-0.001,1.841-0.874,1.841-3.328c0-1.755-1.393-3.354-2.922-3.354H64.146
			c-0.235,0-0.457-0.11-0.599-0.298c-0.142-0.188-0.188-0.432-0.123-0.658c0.344-1.205,1.106-4.42,0.758-8.237
			c-0.419-4.628-2.522-7.932-5.114-8.034c-1.583-0.062-2.55,0.105-3.073,0.248c0.337,1.745,1.144,6.595,0.306,9.344
			c-2.07,6.789-8.18,12.297-9.578,13.491V81.91z"/>
		<path fill="#FFFFFF" d="M45.972,59.165H29.488c-0.031,0.577-0.049,1.158-0.049,1.744c0,8.401,3.241,16.042,8.537,21.751h7.996
			V59.165z"/>
		<path fill="#BDC3D8" d="M45.972,59.165H29.488c-0.031,0.577-0.049,1.158-0.049,1.744c0,0.421,0.014,0.839,0.03,1.256h12.503
			c0.552,0,1,0.447,1,1V82.66h3V59.165z"/>
		<path fill="#21365F" d="M45.972,83.41h-7.996c-0.209,0-0.408-0.087-0.55-0.24c-5.635-6.074-8.737-13.98-8.737-22.261
			c0-0.6,0.018-1.194,0.05-1.785c0.021-0.398,0.351-0.71,0.749-0.71h16.484c0.414,0,0.75,0.336,0.75,0.75V82.66
			C46.722,83.075,46.386,83.41,45.972,83.41z M38.306,81.91h6.916V59.914H30.205c-0.011,0.33-0.017,0.662-0.017,0.995
			C30.189,68.701,33.069,76.147,38.306,81.91z"/>
		<path fill="#FFFFFF" d="M29.696,56.912c-0.163,1.311-0.257,2.643-0.257,3.997c0,9.412,4.064,17.874,10.533,23.729V56.912H29.696z"
			/>
		<path fill="#BDC3D8" d="M29.696,56.912c-0.123,0.986-0.189,1.989-0.224,3.001h6.499c0.553,0,1,0.447,1,1v20.604
			c0.932,1.104,1.93,2.151,3.001,3.121V56.912H29.696z"/>
		<path fill="#21365F" d="M39.972,85.389c-0.183,0-0.362-0.066-0.503-0.194c-6.852-6.201-10.78-15.053-10.78-24.285
			c0-1.313,0.088-2.689,0.263-4.09c0.047-0.375,0.366-0.657,0.744-0.657h10.276c0.414,0,0.75,0.336,0.75,0.75v27.726
			c0,0.297-0.175,0.565-0.446,0.686C40.178,85.368,40.075,85.389,39.972,85.389z M30.365,57.662
			c-0.118,1.116-0.176,2.184-0.176,3.247c0,8.23,3.272,16.144,9.033,21.974V57.662H30.365z"/>
		<circle fill="#FFFFFF" cx="88.438" cy="33.909" r="2"/>
		<path fill="#21365F" d="M88.438,36.659c-1.517,0-2.75-1.233-2.75-2.75c0-1.517,1.233-2.75,2.75-2.75s2.75,1.233,2.75,2.75
			C91.188,35.426,89.954,36.659,88.438,36.659z M88.438,32.659c-0.689,0-1.25,0.561-1.25,1.25c0,0.69,0.561,1.25,1.25,1.25
			c0.689,0,1.25-0.56,1.25-1.25C89.688,33.22,89.127,32.659,88.438,32.659z"/>
		<circle fill="#FFFFFF" cx="37.44" cy="30.909" r="2"/>
		<path fill="#21365F" d="M37.439,33.659c-1.517,0-2.75-1.233-2.75-2.75s1.233-2.75,2.75-2.75c1.517,0,2.75,1.233,2.75,2.75
			S38.955,33.659,37.439,33.659z M37.439,29.659c-0.689,0-1.25,0.561-1.25,1.25c0,0.689,0.561,1.25,1.25,1.25
			c0.689,0,1.25-0.56,1.25-1.25C38.689,30.22,38.128,29.659,37.439,29.659z"/>
		<circle fill="#FFFFFF" cx="31.439" cy="37.91" r="2"/>
		<path fill="#21365F" d="M31.439,40.659c-1.517,0-2.75-1.233-2.75-2.75c0-1.517,1.233-2.75,2.75-2.75c1.517,0,2.75,1.233,2.75,2.75
			C34.189,39.426,32.955,40.659,31.439,40.659z M31.439,36.659c-0.689,0-1.25,0.561-1.25,1.25c0,0.69,0.561,1.25,1.25,1.25
			c0.689,0,1.25-0.56,1.25-1.25C32.689,37.22,32.128,36.659,31.439,36.659z"/>
		<circle fill="#FFFFFF" cx="91.439" cy="84.909" r="2"/>
		<path fill="#21365F" d="M91.439,87.659c-1.517,0-2.75-1.233-2.75-2.75s1.233-2.75,2.75-2.75s2.75,1.233,2.75,2.75
			S92.955,87.659,91.439,87.659z M91.439,83.659c-0.689,0-1.25,0.561-1.25,1.25c0,0.689,0.561,1.25,1.25,1.25
			c0.689,0,1.25-0.561,1.25-1.25C92.689,84.219,92.128,83.659,91.439,83.659z"/>
		<circle fill="#FFFFFF" cx="83.438" cy="90.909" r="2"/>
		<path fill="#21365F" d="M83.438,93.659c-1.517,0-2.75-1.233-2.75-2.75s1.233-2.75,2.75-2.75s2.75,1.233,2.75,2.75
			S84.954,93.659,83.438,93.659z M83.438,89.659c-0.689,0-1.25,0.561-1.25,1.25c0,0.689,0.561,1.25,1.25,1.25
			c0.689,0,1.25-0.561,1.25-1.25C84.688,90.22,84.127,89.659,83.438,89.659z"/>
		<circle fill="#FFFFFF" cx="32.439" cy="85.909" r="2"/>
		<path fill="#21365F" d="M32.439,88.659c-1.517,0-2.75-1.233-2.75-2.75s1.233-2.75,2.75-2.75c1.517,0,2.75,1.233,2.75,2.75
			S33.955,88.659,32.439,88.659z M32.439,84.659c-0.689,0-1.25,0.561-1.25,1.25c0,0.689,0.561,1.25,1.25,1.25
			c0.689,0,1.25-0.561,1.25-1.25C33.689,85.219,33.128,84.659,32.439,84.659z"/>
	</g>
</g>
</svg>
