<?xml version="1.0" encoding="utf-8"?>
<!-- Generator: Adobe Illustrator 24.3.0, SVG Export Plug-In . SVG Version: 6.00 Build 0)  -->
<svg version="1.1" id="Layer_1" xmlns="http://www.w3.org/2000/svg" xmlns:xlink="http://www.w3.org/1999/xlink" x="0px" y="0px"
	 viewBox="0 0 120 120" enable-background="new 0 0 120 120" xml:space="preserve">
<g>
	<circle fill="#E8EBEC" cx="73.497" cy="83.417" r="14"/>
	<circle fill="#E8EBEC" cx="91.497" cy="57.007" r="12"/>
	<circle fill="#E8EBEC" cx="35.63" cy="41.663" r="20"/>
	<g>
		<rect x="46.248" y="83.417" fill="#BDC3D8" width="26" height="6"/>
		<path fill="#FFFFFF" d="M67.248,83.417h-21v4h17C65.457,87.417,67.248,85.626,67.248,83.417L67.248,83.417z"/>
		<path fill="#21365F" d="M72.249,90.167h-26c-0.414,0-0.75-0.336-0.75-0.75v-6c0-0.414,0.336-0.75,0.75-0.75h26
			c0.414,0,0.75,0.336,0.75,0.75v6C72.999,89.831,72.663,90.167,72.249,90.167z M46.999,88.667h24.5v-4.5h-24.5V88.667z"/>
		<path fill="#BDC3D8" d="M91.248,77.417h-64v-46c0-1.657,1.344-3,3-3h58c1.657,0,3,1.343,3,3V77.417z"/>
		<path fill="#FFFFFF" d="M72.248,73.417h-45v-42c0-1.657,1.344-3,3-3h56v31C86.248,67.15,79.979,73.417,72.248,73.417z"/>
		<path fill="#21365F" d="M91.249,78.167h-64c-0.414,0-0.75-0.336-0.75-0.75v-46c0-2.068,1.683-3.75,3.75-3.75h58
			c2.066,0,3.75,1.682,3.75,3.75v46C91.999,77.831,91.663,78.167,91.249,78.167z M27.999,76.667h62.5v-45.25
			c0-1.241-1.01-2.25-2.25-2.25h-58c-1.24,0-2.25,1.009-2.25,2.25V76.667z"/>
		<path fill="#BDC3D8" d="M88.248,83.417h-58c-1.656,0-3-1.344-3-3v-3h64v3C91.248,82.074,89.905,83.417,88.248,83.417z"/>
		<path fill="#FFFFFF" d="M81.248,81.417h-54v-4h58l0,0C85.248,79.626,83.457,81.417,81.248,81.417z"/>
		<path fill="#21365F" d="M88.249,84.167h-58c-2.067,0-3.75-1.682-3.75-3.75v-3c0-0.414,0.336-0.75,0.75-0.75h64
			c0.414,0,0.75,0.336,0.75,0.75v3C91.999,82.486,90.315,84.167,88.249,84.167z M27.999,78.167v2.25c0,1.24,1.01,2.25,2.25,2.25h58
			c1.24,0,2.25-1.01,2.25-2.25v-2.25H27.999z"/>
		<path fill="#21365F" d="M79.249,90.167h-40c-0.414,0-0.75-0.336-0.75-0.75c0-0.414,0.336-0.75,0.75-0.75h40
			c0.414,0,0.75,0.336,0.75,0.75C79.999,89.831,79.663,90.167,79.249,90.167z"/>
		<circle fill="#21365F" cx="59.248" cy="80.417" r="0.75"/>
		<path fill="#FFFFFF" d="M62.655,65.292l-7.127-1.871h-8.283v13.996h20.001v-6.172C67.246,68.449,65.36,66.003,62.655,65.292z"/>
		<path fill="#FFFFFF" d="M38.966,63.421l-7.13,1.871c-2.705,0.711-4.591,3.156-4.591,5.953v6.172h20V63.421H38.966z"/>
		<path fill="#BDC3D8" d="M62.655,65.292l-7.127-1.871h-8.283v3.077h3.667l9.318,2.447c1.414,0.371,2.399,1.65,2.399,3.11v5.361
			h4.616v-6.172C67.246,68.449,65.36,66.003,62.655,65.292z"/>
		<path fill="#21365F" d="M67.246,78.167h-20c-0.414,0-0.75-0.336-0.75-0.75V63.421c0-0.414,0.336-0.75,0.75-0.75h8.282
			c0.065,0,0.128,0.008,0.191,0.023l7.126,1.872l0,0c3.033,0.796,5.151,3.542,5.151,6.678v6.173
			C67.996,77.831,67.66,78.167,67.246,78.167z M47.996,76.667h18.5v-5.423c0-2.454-1.658-4.604-4.031-5.227l-7.033-1.847h-7.436
			V76.667z"/>
		<path fill="#BDC3D8" d="M38.966,63.421l-5.092,1.336c0.689,3.604,5.131,7.079,7.41,8.652c0.85,0.586,1.346,1.551,1.346,2.582
			v1.426h4.615V63.421H38.966z"/>
		<path fill="#21365F" d="M47.246,78.167h-20c-0.414,0-0.75-0.336-0.75-0.75v-6.172c0-3.137,2.118-5.883,5.15-6.678l7.129-1.873
			c0.062-0.016,0.126-0.023,0.19-0.023h8.28c0.414,0,0.75,0.336,0.75,0.75v13.996C47.996,77.831,47.66,78.167,47.246,78.167z
			 M27.996,76.667h18.5V64.171h-7.435l-7.034,1.848c-2.374,0.622-4.031,2.771-4.031,5.227V76.667z"/>
		<path fill="#FFFFFF" d="M47.245,71.209c0,0,8.229-4.442,8.283-7.788c-1.744-0.894-3.054-2.523-3.421-4.482
			c-0.054-0.287-0.096-2.107-0.128-2.384l-9.479,0.007c-0.036,0.316-0.086,2.185-0.152,2.523c-0.373,1.922-1.663,3.49-3.384,4.336
			C39.039,66.755,47.245,71.209,47.245,71.209z"/>
		<path fill="#BDC3D8" d="M52.107,58.939c-0.054-0.287-0.096-2.107-0.128-2.384l-5.376,0.004c0.026,0.283,0.604,2.016,0.644,2.302
			c0.229,1.682,1.647,3.75,2.845,4.867c0.415,0.387,0.637,0.942,0.567,1.506c-0.329,2.656-2.97,5.148-3.717,5.806
			c0.187,0.106,0.303,0.17,0.303,0.17s8.229-4.442,8.283-7.788C53.784,62.527,52.474,60.898,52.107,58.939z"/>
		<path fill="#21365F" d="M47.246,71.959c-0.123,0-0.247-0.03-0.357-0.091c-0.88-0.477-8.592-4.768-8.673-8.432
			c-0.006-0.291,0.157-0.561,0.419-0.689c1.573-0.772,2.658-2.16,2.979-3.805c0.029-0.166,0.066-0.986,0.088-1.477
			c0.021-0.455,0.04-0.857,0.056-0.992c0.045-0.377,0.364-0.662,0.744-0.662l9.479-0.007c0.001,0,0.001,0,0.001,0
			c0.382,0,0.702,0.286,0.745,0.665c0.014,0.121,0.03,0.516,0.048,0.961c0.018,0.457,0.048,1.223,0.071,1.375
			c0.312,1.658,1.443,3.137,3.025,3.947c0.254,0.131,0.412,0.393,0.408,0.68c-0.059,3.68-7.794,7.961-8.676,8.437
			C47.491,71.929,47.368,71.959,47.246,71.959z M39.782,63.831c0.575,2.029,4.638,4.932,7.465,6.521
			c2.839-1.588,6.918-4.494,7.469-6.527c-1.744-1.061-2.979-2.802-3.346-4.748c-0.037-0.202-0.059-0.661-0.095-1.588
			c-0.003-0.062-0.005-0.125-0.008-0.184l-8.058,0.006c-0.003,0.07-0.007,0.145-0.01,0.221c-0.04,0.895-0.068,1.455-0.114,1.695
			C42.709,61.162,41.517,62.814,39.782,63.831z"/>
		<path fill="#FFFFFF" d="M56.861,49.418c0-6.373-4.306-10.001-9.616-10.001c-5.31,0-9.615,3.628-9.615,10.001
			c0,6.372,4.305,11.538,9.615,11.538C52.556,60.956,56.861,55.79,56.861,49.418z"/>
		<path fill="#BDC3D8" d="M49.551,39.669c0.736,1.426,1.155,3.147,1.155,5.133c0,6.373-4.305,11.539-9.615,11.539
			c-0.559,0-1.103-0.069-1.637-0.18c1.747,2.9,4.581,4.795,7.791,4.795c5.311,0,9.616-5.166,9.616-11.539
			C56.861,44.001,53.746,40.577,49.551,39.669z"/>
		<path fill="#FFFFFF" d="M47.246,47.05c-3.819-1.743-6.756-2.002-8.933-1.668c-0.437,1.188-0.684,2.532-0.684,4.036
			c0,6.372,4.305,11.538,9.615,11.538c5.311,0,9.616-5.166,9.616-11.538c0-0.785-0.067-1.527-0.191-2.227
			C54.105,48.177,50.784,48.663,47.246,47.05z"/>
		<path fill="#BDC3D8" d="M56.67,47.191c-0.909,0.35-1.918,0.631-2.993,0.783c-0.663,5.598-4.661,9.906-9.509,9.906
			c-1.615,0-3.134-0.484-4.471-1.328c1.761,2.679,4.484,4.404,7.548,4.404c5.311,0,9.616-5.166,9.616-11.539
			C56.861,48.633,56.794,47.891,56.67,47.191z"/>
		<path fill="#21365F" d="M47.246,61.706c-5.716,0-10.365-5.512-10.365-12.289c0-1.531,0.245-2.976,0.729-4.293
			c0.094-0.257,0.32-0.441,0.591-0.482c2.765-0.424,5.917,0.155,9.358,1.726l0,0c2.781,1.269,5.757,1.311,8.842,0.123
			c0.21-0.079,0.444-0.062,0.638,0.047c0.195,0.11,0.331,0.302,0.369,0.521c0.136,0.755,0.204,1.548,0.204,2.358
			C57.611,56.195,52.962,61.706,47.246,61.706z M38.873,46.066c-0.327,1.037-0.492,2.162-0.492,3.351
			c0,5.949,3.977,10.789,8.865,10.789s8.865-4.84,8.865-10.789c0-0.412-0.021-0.818-0.058-1.215
			c-3.161,1.008-6.225,0.85-9.117-0.471l0,0C43.954,46.372,41.243,45.811,38.873,46.066z"/>
		<path fill="#21365F" d="M47.246,61.706c-5.716,0-10.365-5.512-10.365-12.289c0-6.329,4.263-10.75,10.365-10.75
			s10.365,4.421,10.365,10.75C57.611,56.195,52.962,61.706,47.246,61.706z M47.246,40.167c-5.303,0-8.865,3.718-8.865,9.25
			c0,5.949,3.977,10.789,8.865,10.789s8.865-4.84,8.865-10.789C56.111,43.885,52.549,40.167,47.246,40.167z"/>
		<path fill="#BDC3D8" d="M91.248,36.417h-26c-1.104,0-2,0.896-2,2v19c0,1.105,0.895,2,2,2h26V36.417z"/>
		<path fill="#FFFFFF" d="M88.248,36.417h-23c-1.104,0-2,0.896-2,2v17h14c6.075,0,11-4.925,11-11V36.417z"/>
		<path fill="#21365F" d="M91.249,60.167h-26c-1.517,0-2.75-1.233-2.75-2.75v-19c0-1.516,1.233-2.75,2.75-2.75h26
			c0.414,0,0.75,0.336,0.75,0.75v23C91.999,59.831,91.663,60.167,91.249,60.167z M65.249,37.167c-0.689,0-1.25,0.561-1.25,1.25v19
			c0,0.689,0.561,1.25,1.25,1.25h25.25v-21.5H65.249z"/>
		<path fill="#FFFFFF" d="M84.953,53.855l-3.563-0.936h-4.142h-4.14l-3.564,0.936c-1.353,0.355-2.296,1.578-2.296,2.977v2.586
			h20.001v-2.586C87.249,55.433,86.306,54.21,84.953,53.855z"/>
		<path fill="#BDC3D8" d="M87.249,56.831c0-1.398-0.943-2.621-2.296-2.977l-0.429-0.112c-0.162,2.93-2.048,3.786-5.01,5.675h7.734
			V56.831z"/>
		<path fill="#21365F" d="M87.249,60.167h-20c-0.414,0-0.75-0.336-0.75-0.75v-2.586c0-1.738,1.174-3.26,2.855-3.701l3.565-0.937
			c0.063-0.017,0.126-0.024,0.19-0.024h8.28c0.064,0,0.128,0.008,0.19,0.024l3.563,0.936l0,0c1.682,0.442,2.855,1.964,2.855,3.702
			v2.586C87.999,59.831,87.663,60.167,87.249,60.167z M67.999,58.667h18.5v-1.836c0-1.057-0.714-1.982-1.736-2.251l-3.47-0.911
			h-8.087l-3.472,0.912c-1.021,0.268-1.735,1.193-1.735,2.25V58.667z"/>
		<path fill="#FFFFFF" d="M77.248,55.814c0,0,4.115-1.221,4.142-2.895c-0.872-0.447-1.526-1.262-1.71-2.24
			c-0.027-0.145-0.048-1.055-0.064-1.192l-4.739,0.003c-0.018,0.158-0.043,1.092-0.076,1.262c-0.187,0.961-0.831,1.745-1.691,2.168
			C73.145,54.587,77.248,55.814,77.248,55.814z"/>
		<path fill="#BDC3D8" d="M81.39,52.919c-0.872-0.447-1.526-1.262-1.71-2.24c-0.027-0.145-0.048-1.055-0.064-1.193l-2.271,0.412
			c0.022,0.199,0.053,1.519,0.092,1.727c0.253,1.35,1.128,2.479,2.3,3.143C80.608,54.276,81.378,53.64,81.39,52.919z"/>
		<path fill="#21365F" d="M77.249,56.564c-0.072,0-0.144-0.011-0.215-0.031c-0.772-0.231-4.629-1.49-4.676-3.597
			c-0.006-0.292,0.157-0.561,0.419-0.689c0.681-0.335,1.15-0.933,1.287-1.638c0.014-0.099,0.025-0.411,0.037-0.681
			c0.011-0.241,0.022-0.455,0.03-0.526c0.045-0.377,0.364-0.662,0.744-0.662l4.739-0.004c0.001,0,0.001,0,0.001,0
			c0.382,0,0.702,0.287,0.745,0.666c0.008,0.064,0.017,0.274,0.026,0.512c0.01,0.254,0.02,0.545,0.033,0.648
			c0.131,0.697,0.622,1.337,1.311,1.689c0.255,0.131,0.413,0.395,0.408,0.68c-0.033,2.117-3.902,3.371-4.678,3.602
			C77.392,56.553,77.321,56.564,77.249,56.564z M74.012,53.251c0.461,0.594,1.888,1.342,3.237,1.777
			c1.365-0.438,2.803-1.18,3.25-1.781c-0.809-0.592-1.376-1.465-1.557-2.432c-0.014-0.074-0.029-0.316-0.042-0.579l-3.311,0.003
			c-0.016,0.287-0.034,0.562-0.052,0.652C75.351,51.85,74.807,52.681,74.012,53.251z"/>
		<path fill="#FFFFFF" d="M82.056,45.417c0-3.186-2.152-5-4.808-5c-2.655,0-4.808,1.814-4.808,5c0,3.188,2.152,5.77,4.808,5.77
			C79.903,51.187,82.056,48.605,82.056,45.417z"/>
		<path fill="#BDC3D8" d="M78.401,40.543c0.368,0.714,0.577,1.573,0.577,2.566c0,3.187-2.152,5.77-4.808,5.77
			c-0.279,0-0.552-0.034-0.818-0.09c0.873,1.45,2.291,2.397,3.896,2.397c2.655,0,4.808-2.582,4.808-5.77
			C82.056,42.709,80.499,40.997,78.401,40.543z"/>
		<path fill="#21365F" d="M77.249,51.937c-3.064,0-5.559-2.924-5.559-6.52c0-3.385,2.286-5.75,5.559-5.75
			c3.273,0,5.558,2.365,5.558,5.75C82.807,49.013,80.313,51.937,77.249,51.937z M77.249,41.167c-2.465,0-4.059,1.669-4.059,4.25
			c0,2.768,1.821,5.02,4.059,5.02c2.237,0,4.058-2.252,4.058-5.02C81.307,42.836,79.714,41.167,77.249,41.167z"/>
		<path fill="#21365F" d="M77.249,60.165c-0.414,0-0.75-0.336-0.75-0.75v-3.602c0-0.414,0.336-0.75,0.75-0.75
			c0.414,0,0.75,0.336,0.75,0.75v3.602C77.999,59.829,77.663,60.165,77.249,60.165z"/>
		<path fill="#FFFFFF" d="M62.248,31.417h-6c-1.104,0-2-0.896-2-2v-2c0-1.105,0.896-2,2-2h6c1.104,0,2,0.895,2,2v2
			C64.248,30.521,63.352,31.417,62.248,31.417z"/>
		<path fill="#21365F" d="M62.249,32.167h-6c-1.517,0-2.75-1.234-2.75-2.75v-2c0-1.518,1.233-2.75,2.75-2.75h6
			c1.517,0,2.75,1.232,2.75,2.75v2C64.999,30.933,63.765,32.167,62.249,32.167z M56.249,26.167c-0.689,0-1.25,0.561-1.25,1.25v2
			c0,0.69,0.561,1.25,1.25,1.25h6c0.69,0,1.25-0.56,1.25-1.25v-2c0-0.689-0.56-1.25-1.25-1.25H56.249z"/>
		<circle fill="#21365F" cx="59.249" cy="28.417" r="1"/>
		<path fill="#21365F" d="M98.248,42.162h-4c-0.414,0-0.75-0.336-0.75-0.75c0-0.414,0.336-0.75,0.75-0.75h4
			c0.414,0,0.75,0.336,0.75,0.75C98.998,41.826,98.662,42.162,98.248,42.162z"/>
		<path fill="#21365F" d="M96.248,44.162c-0.414,0-0.75-0.336-0.75-0.75v-4c0-0.414,0.336-0.75,0.75-0.75
			c0.414,0,0.75,0.336,0.75,0.75v4C96.998,43.826,96.662,44.162,96.248,44.162z"/>
		<circle fill="#21365F" cx="96.248" cy="47.413" r="0.75"/>
		<circle fill="#21365F" cx="96.248" cy="50.413" r="0.75"/>
		<circle fill="#21365F" cx="96.248" cy="54.413" r="0.75"/>
		<circle fill="#21365F" cx="96.248" cy="60.413" r="0.75"/>
		<path fill="#21365F" d="M24.249,75.159h-4c-0.414,0-0.75-0.336-0.75-0.75s0.336-0.75,0.75-0.75h4c0.414,0,0.75,0.336,0.75,0.75
			S24.663,75.159,24.249,75.159z"/>
		<path fill="#21365F" d="M22.249,77.159c-0.414,0-0.75-0.336-0.75-0.75v-4c0-0.414,0.336-0.75,0.75-0.75
			c0.414,0,0.75,0.336,0.75,0.75v4C22.999,76.824,22.663,77.159,22.249,77.159z"/>
		<circle fill="#21365F" cx="22.248" cy="68.409" r="0.75"/>
		<circle fill="#21365F" cx="22.248" cy="64.409" r="0.75"/>
		<circle fill="#21365F" cx="22.248" cy="59.408" r="0.75"/>
		<circle fill="#21365F" cx="22.248" cy="52.408" r="0.75"/>
	</g>
</g>
</svg>
