<?xml version="1.0" encoding="utf-8"?>
<!-- Generator: Adobe Illustrator 24.3.0, SVG Export Plug-In . SVG Version: 6.00 Build 0)  -->
<svg version="1.1" id="Layer_1" xmlns="http://www.w3.org/2000/svg" xmlns:xlink="http://www.w3.org/1999/xlink" x="0px" y="0px"
	 viewBox="0 0 120 120" enable-background="new 0 0 120 120" xml:space="preserve">
<g>
	<circle fill="#E8EBEC" cx="85.647" cy="49.791" r="14"/>
	<circle fill="#E8EBEC" cx="71.146" cy="84.791" r="12"/>
	<circle fill="#E8EBEC" cx="39.48" cy="42.29" r="20"/>
	<g>
		<path fill="#BDC3D8" d="M90.398,88.04H54.776l-11.376,6v-6h-4.003c-1.104,0-2-0.896-2-2V46.041c0-1.104,0.896-2,2-2h51.001
			c1.104,0,2,0.896,2,2V86.04C92.398,87.144,91.502,88.04,90.398,88.04z"/>
		<path fill="#FFFFFF" d="M80.397,83.039h-43V46.041c0-1.104,0.896-2,2-2h48v31.998C87.397,79.905,84.263,83.039,80.397,83.039z"/>
		<path fill="#21365F" d="M43.4,94.79c-0.135,0-0.269-0.036-0.388-0.107c-0.225-0.136-0.362-0.38-0.362-0.643v-5.251h-3.253
			c-1.517,0-2.75-1.233-2.75-2.75V46.04c0-1.517,1.233-2.75,2.75-2.75h51.001c1.517,0,2.75,1.233,2.75,2.75v39.999
			c0,1.517-1.233,2.75-2.75,2.75H54.961l-11.212,5.914C43.64,94.762,43.52,94.79,43.4,94.79z M39.397,44.79
			c-0.69,0-1.25,0.561-1.25,1.25v39.999c0,0.689,0.56,1.25,1.25,1.25H43.4c0.414,0,0.75,0.336,0.75,0.75v4.758l10.276-5.421
			c0.107-0.058,0.227-0.087,0.35-0.087h35.622c0.689,0,1.25-0.561,1.25-1.25V46.04c0-0.689-0.561-1.25-1.25-1.25H39.397z"/>
		<path fill="#BDC3D8" d="M30.396,78.039h34.622l11.375,6v-6h4.004c1.104,0,2-0.896,2-2V38.04H28.396v37.999
			C28.396,77.143,29.291,78.039,30.396,78.039z"/>
		<path fill="#FFFFFF" d="M56.395,75.039H28.396V38.04h43.999v20.999C72.395,67.876,65.232,75.039,56.395,75.039z"/>
		<path fill="#21365F" d="M76.394,84.789c-0.12,0-0.24-0.028-0.35-0.087l-11.212-5.914H30.396c-1.517,0-2.75-1.233-2.75-2.75V38.04
			c0-0.414,0.336-0.75,0.75-0.75h54.001c0.414,0,0.75,0.336,0.75,0.75v37.998c0,1.517-1.233,2.75-2.75,2.75h-3.253v5.251
			c0,0.263-0.138,0.507-0.362,0.643C76.662,84.753,76.529,84.789,76.394,84.789z M29.146,38.79v37.248c0,0.689,0.561,1.25,1.25,1.25
			h34.622c0.122,0,0.242,0.029,0.35,0.087l10.276,5.421v-4.758c0-0.414,0.336-0.75,0.75-0.75h4.003c0.689,0,1.25-0.561,1.25-1.25
			V38.79H29.146z"/>
		<path fill="#BDC3D8" d="M82.397,38.04H28.396v-6c0-1.105,0.896-2,2-2h50.001c1.104,0,2,0.895,2,2V38.04z"/>
		<path fill="#FFFFFF" d="M77.396,36.039h-49V32.04c0-1.105,0.896-2,2-2h49v3.999C79.396,35.143,78.5,36.039,77.396,36.039z"/>
		<path fill="#21365F" d="M82.397,38.789H28.396c-0.414,0-0.75-0.336-0.75-0.75v-6c0-1.517,1.233-2.75,2.75-2.75h50.001
			c1.517,0,2.75,1.233,2.75,2.75v6C83.147,38.453,82.811,38.789,82.397,38.789z M29.146,37.289h52.501v-5.25
			c0-0.689-0.561-1.25-1.25-1.25H30.396c-0.689,0-1.25,0.561-1.25,1.25V37.289z"/>
		<path fill="#21365F" d="M67.4,34.792c-0.2,0-0.391-0.08-0.53-0.221c-0.14-0.149-0.22-0.34-0.22-0.529c0-0.2,0.08-0.391,0.21-0.53
			c0.29-0.28,0.79-0.28,1.069-0.01c0.141,0.149,0.221,0.34,0.221,0.54c0,0.189-0.08,0.39-0.221,0.529
			C67.789,34.712,67.589,34.792,67.4,34.792z"/>
		<path fill="#21365F" d="M71.65,34.042c0-0.42,0.33-0.75,0.75-0.75l0,0c0.409,0,0.75,0.33,0.75,0.75l0,0
			c0,0.41-0.341,0.75-0.75,0.75l0,0C71.98,34.792,71.65,34.452,71.65,34.042z"/>
		<path fill="#21365F" d="M77.4,34.792c-0.2,0-0.391-0.08-0.53-0.221c-0.14-0.14-0.22-0.34-0.22-0.529c0-0.2,0.08-0.391,0.21-0.53
			c0.29-0.28,0.79-0.28,1.069,0c0.141,0.14,0.221,0.33,0.221,0.53c0,0.189-0.08,0.39-0.221,0.529
			C77.789,34.712,77.589,34.792,77.4,34.792z"/>
		<path fill="#21365F" d="M89.397,83.795h-4c-0.414,0-0.75-0.336-0.75-0.75s0.336-0.75,0.75-0.75h4c0.414,0,0.75,0.336,0.75,0.75
			S89.811,83.795,89.397,83.795z"/>
		<path fill="#21365F" d="M87.397,85.795c-0.414,0-0.75-0.336-0.75-0.75v-4c0-0.414,0.336-0.75,0.75-0.75
			c0.414,0,0.75,0.336,0.75,0.75v4C88.147,85.459,87.811,85.795,87.397,85.795z"/>
		<circle fill="#21365F" cx="87.397" cy="77.045" r="0.75"/>
		<circle fill="#21365F" cx="87.397" cy="73.044" r="0.75"/>
		<circle fill="#21365F" cx="87.397" cy="68.044" r="0.75"/>
		<circle fill="#21365F" cx="87.397" cy="61.043" r="0.75"/>
		<circle fill="#FFFFFF" cx="55.396" cy="58.038" r="13"/>
		<path fill="#BDC3D8" d="M65.002,49.301c0.779,1.669,1.227,3.523,1.227,5.487c0,7.18-5.82,13-13,13
			c-3.811,0-7.228-1.65-9.606-4.263c2.07,4.434,6.557,7.513,11.773,7.513c7.18,0,13-5.82,13-13
			C68.396,54.67,67.104,51.61,65.002,49.301z"/>
		<path fill="#21365F" d="M55.396,71.788c-7.582,0-13.75-6.168-13.75-13.75c0-7.582,6.168-13.75,13.75-13.75
			s13.75,6.168,13.75,13.75C69.146,65.62,62.978,71.788,55.396,71.788z M55.396,45.788c-6.755,0-12.25,5.495-12.25,12.25
			c0,6.755,5.495,12.25,12.25,12.25s12.25-5.495,12.25-12.25C67.646,51.283,62.151,45.788,55.396,45.788z"/>
		<polygon fill="#BDC3D8" points="51.604,64.539 51.604,51.539 61.354,58.039 		"/>
		<polygon fill="#FFFFFF" points="51.604,64.539 51.604,51.539 57.026,55.152 		"/>
		<path fill="#21365F" d="M51.605,65.288c-0.121,0-0.243-0.029-0.354-0.089c-0.244-0.131-0.396-0.385-0.396-0.661v-13
			c0-0.276,0.152-0.53,0.396-0.661c0.243-0.13,0.539-0.115,0.77,0.037l9.75,6.5c0.209,0.139,0.334,0.373,0.334,0.624
			c0,0.251-0.125,0.485-0.334,0.624l-9.75,6.5C51.896,65.246,51.75,65.288,51.605,65.288z M52.355,52.939v10.197l7.647-5.099
			L52.355,52.939z"/>
		<path fill="#21365F" d="M36.396,48.791h-4c-0.414,0-0.75-0.336-0.75-0.75c0-0.414,0.336-0.75,0.75-0.75h4
			c0.414,0,0.75,0.336,0.75,0.75C37.146,48.455,36.81,48.791,36.396,48.791z"/>
		<path fill="#21365F" d="M34.396,50.791c-0.414,0-0.75-0.336-0.75-0.75v-4c0-0.414,0.336-0.75,0.75-0.75
			c0.414,0,0.75,0.336,0.75,0.75v4C35.146,50.455,34.81,50.791,34.396,50.791z"/>
		<path fill="#21365F" d="M41.397,68.793h-4c-0.414,0-0.75-0.336-0.75-0.75c0-0.414,0.336-0.75,0.75-0.75h4
			c0.414,0,0.75,0.336,0.75,0.75C42.147,68.457,41.811,68.793,41.397,68.793z"/>
		<path fill="#21365F" d="M39.397,70.793c-0.414,0-0.75-0.336-0.75-0.75v-4c0-0.414,0.336-0.75,0.75-0.75
			c0.414,0,0.75,0.336,0.75,0.75v4C40.147,70.457,39.811,70.793,39.397,70.793z"/>
		<path fill="#21365F" d="M77.401,66.793h-4c-0.414,0-0.75-0.336-0.75-0.75c0-0.414,0.336-0.75,0.75-0.75h4
			c0.414,0,0.75,0.336,0.75,0.75C78.151,66.457,77.815,66.793,77.401,66.793z"/>
		<path fill="#21365F" d="M75.401,68.793c-0.414,0-0.75-0.336-0.75-0.75v-4c0-0.414,0.336-0.75,0.75-0.75
			c0.414,0,0.75,0.336,0.75,0.75v4C76.151,68.457,75.815,68.793,75.401,68.793z"/>
		<path fill="#21365F" d="M70.4,44.79h-4c-0.414,0-0.75-0.336-0.75-0.75s0.336-0.75,0.75-0.75h4c0.414,0,0.75,0.336,0.75,0.75
			S70.814,44.79,70.4,44.79z"/>
		<path fill="#21365F" d="M68.4,46.79c-0.414,0-0.75-0.336-0.75-0.75v-4c0-0.414,0.336-0.75,0.75-0.75s0.75,0.336,0.75,0.75v4
			C69.15,46.454,68.814,46.79,68.4,46.79z"/>
	</g>
</g>
</svg>
